STARTFONT 2.3
FONT -FontForge-Lobster-Book-R-Normal--10-100-72-72-P-58-ISO10646-1
SIZE 10 72 72  2
FONTBOUNDINGBOX 21 15 -5 -4
COMMENT "Generated by fontforge, http://fontforge.sourceforge.net"
COMMENT "Copyright 2010 The Lobster Project Authors (https://github.com/impallari/The-Lobster-Font), with Reserved Font Name "Lobster"."
STARTPROPERTIES 41
FOUNDRY "FontForge"
FAMILY_NAME "Lobster"
WEIGHT_NAME "Book"
SLANT "R"
SETWIDTH_NAME "Normal"
ADD_STYLE_NAME ""
PIXEL_SIZE 10
POINT_SIZE 100
RESOLUTION_X 72
RESOLUTION_Y 72
SPACING "P"
AVERAGE_WIDTH 58
CHARSET_REGISTRY "ISO10646"
CHARSET_ENCODING "1"
FONTNAME_REGISTRY ""
CHARSET_COLLECTIONS "ISO8859-2 ISO8859-5 ISO8859-9 ISO8859-4 ISO10646-1"
BITS_PER_PIXEL 2
FONT_NAME "Lobster-Regular"
FACE_NAME "Lobster Regular"
COPYRIGHT "Copyright 2010 The Lobster Project Authors (https://github.com/impallari/The-Lobster-Font), with Reserved Font Name "Lobster"."
FONT_VERSION "2.100"
FONT_ASCENT 8
FONT_DESCENT 2
UNDERLINE_POSITION -1
UNDERLINE_THICKNESS 1
X_HEIGHT 5
CAP_HEIGHT 6
DEFAULT_CHAR 1
RAW_ASCENT 800
RAW_DESCENT 200
NORM_SPACE 2
RELATIVE_WEIGHT 40
RELATIVE_SETWIDTH 50
SUPERSCRIPT_X 0
SUPERSCRIPT_Y 3
SUPERSCRIPT_SIZE 6
SUBSCRIPT_X 0
SUBSCRIPT_Y 0
SUBSCRIPT_SIZE 6
AVG_LOWERCASE_WIDTH 46
AVG_UPPERCASE_WIDTH 62
ENDPROPERTIES
CHARS 1148
STARTCHAR NULL.dup1
ENCODING 0
SWIDTH 600 0
DWIDTH 6 0
BBX 1 1 0 0
BITMAP
00
ENDCHAR
STARTCHAR nonmarkingreturn
ENCODING 13
SWIDTH 600 0
DWIDTH 6 0
BBX 1 1 0 0
BITMAP
00
ENDCHAR
STARTCHAR space
ENCODING 32
SWIDTH 217 0
DWIDTH 2 0
BBX 1 1 0 0
BITMAP
00
ENDCHAR
STARTCHAR exclam
ENCODING 33
SWIDTH 257 0
DWIDTH 3 0
BBX 3 8 0 0
BITMAP
08
1C
28
24
30
10
50
60
ENDCHAR
STARTCHAR quotedbl
ENCODING 34
SWIDTH 353 0
DWIDTH 4 0
BBX 3 2 1 5
BITMAP
9C
94
ENDCHAR
STARTCHAR numbersign
ENCODING 35
SWIDTH 659 0
DWIDTH 7 0
BBX 6 7 0 0
BITMAP
0550
0880
2EE0
0880
6ED0
1540
1100
ENDCHAR
STARTCHAR dollar
ENCODING 36
SWIDTH 548 0
DWIDTH 5 0
BBX 5 10 0 -1
BITMAP
0140
0100
0A80
2E40
1E00
0780
AA80
9A80
6E00
1400
ENDCHAR
STARTCHAR percent
ENCODING 37
SWIDTH 796 0
DWIDTH 8 0
BBX 8 7 0 0
BITMAP
2914
6620
5980
255A
0222
0566
0828
ENDCHAR
STARTCHAR ampersand
ENCODING 38
SWIDTH 682 0
DWIDTH 7 0
BBX 7 7 0 0
BITMAP
0A80
18C0
1C00
29A4
B190
B080
7E00
ENDCHAR
STARTCHAR quotesingle
ENCODING 39
SWIDTH 196 0
DWIDTH 2 0
BBX 2 3 1 4
BITMAP
90
80
40
ENDCHAR
STARTCHAR parenleft
ENCODING 40
SWIDTH 437 0
DWIDTH 4 0
BBX 4 10 1 -2
BITMAP
01
05
18
24
70
60
60
60
20
24
ENDCHAR
STARTCHAR parenright
ENCODING 41
SWIDTH 413 0
DWIDTH 4 0
BBX 4 10 -1 -2
BITMAP
04
05
02
03
03
03
06
09
18
60
ENDCHAR
STARTCHAR asterisk
ENCODING 42
SWIDTH 515 0
DWIDTH 5 0
BBX 4 4 1 3
BITMAP
A9
B8
A8
20
ENDCHAR
STARTCHAR plus
ENCODING 43
SWIDTH 442 0
DWIDTH 4 0
BBX 4 4 0 1
BITMAP
08
BE
24
10
ENDCHAR
STARTCHAR comma
ENCODING 44
SWIDTH 216 0
DWIDTH 2 0
BBX 2 3 0 -1
BITMAP
A0
50
40
ENDCHAR
STARTCHAR hyphen
ENCODING 45
SWIDTH 290 0
DWIDTH 3 0
BBX 3 1 0 2
BITMAP
A4
ENDCHAR
STARTCHAR period
ENCODING 46
SWIDTH 263 0
DWIDTH 3 0
BBX 2 2 0 0
BITMAP
50
A0
ENDCHAR
STARTCHAR slash
ENCODING 47
SWIDTH 311 0
DWIDTH 3 0
BBX 3 9 0 -2
BITMAP
08
08
14
20
20
20
50
90
80
ENDCHAR
STARTCHAR zero
ENCODING 48
SWIDTH 546 0
DWIDTH 5 0
BBX 6 7 0 0
BITMAP
0A80
38D0
70E0
B0D0
A1C0
A280
7A00
ENDCHAR
STARTCHAR one
ENCODING 49
SWIDTH 317 0
DWIDTH 3 0
BBX 3 7 0 0
BITMAP
6C
28
38
34
74
70
A0
ENDCHAR
STARTCHAR two
ENCODING 50
SWIDTH 492 0
DWIDTH 5 0
BBX 5 7 0 0
BITMAP
2B40
6380
1340
0900
2400
A540
AF40
ENDCHAR
STARTCHAR three
ENCODING 51
SWIDTH 514 0
DWIDTH 5 0
BBX 5 7 0 0
BITMAP
1A40
35C0
0740
0740
6280
D380
6A00
ENDCHAR
STARTCHAR four
ENCODING 52
SWIDTH 476 0
DWIDTH 5 0
BBX 5 7 0 0
BITMAP
0900
0D00
2640
6740
AF40
0A00
0D00
ENDCHAR
STARTCHAR five
ENCODING 53
SWIDTH 517 0
DWIDTH 5 0
BBX 5 7 0 0
BITMAP
2FC0
2000
3A40
0380
6280
9340
6A00
ENDCHAR
STARTCHAR six
ENCODING 54
SWIDTH 500 0
DWIDTH 5 0
BBX 5 7 0 0
BITMAP
0A80
3440
7A40
B280
A280
A240
7900
ENDCHAR
STARTCHAR seven
ENCODING 55
SWIDTH 464 0
DWIDTH 5 0
BBX 5 7 0 0
BITMAP
7FC0
5640
0600
0C00
2800
7400
3400
ENDCHAR
STARTCHAR eight
ENCODING 56
SWIDTH 499 0
DWIDTH 5 0
BBX 5 7 0 0
BITMAP
1A80
34C0
2E40
2F40
A380
D280
6A00
ENDCHAR
STARTCHAR nine
ENCODING 57
SWIDTH 489 0
DWIDTH 5 0
BBX 5 7 0 0
BITMAP
1B40
6280
A2C0
6A80
0380
8700
A900
ENDCHAR
STARTCHAR colon
ENCODING 58
SWIDTH 267 0
DWIDTH 3 0
BBX 3 4 0 1
BITMAP
34
10
10
60
ENDCHAR
STARTCHAR semicolon
ENCODING 59
SWIDTH 276 0
DWIDTH 3 0
BBX 3 6 0 -2
BITMAP
10
34
00
60
20
40
ENDCHAR
STARTCHAR less
ENCODING 60
SWIDTH 358 0
DWIDTH 4 0
BBX 4 4 0 1
BITMAP
01
19
A0
18
ENDCHAR
STARTCHAR equal
ENCODING 61
SWIDTH 515 0
DWIDTH 5 0
BBX 5 3 0 1
BITMAP
3F80
0000
BF00
ENDCHAR
STARTCHAR greater
ENCODING 62
SWIDTH 362 0
DWIDTH 4 0
BBX 4 3 0 1
BITMAP
68
1D
90
ENDCHAR
STARTCHAR question
ENCODING 63
SWIDTH 441 0
DWIDTH 4 0
BBX 5 7 0 0
BITMAP
2A00
6340
1A00
1400
2000
1000
7000
ENDCHAR
STARTCHAR at
ENCODING 64
SWIDTH 688 0
DWIDTH 7 0
BBX 7 7 0 -1
BITMAP
0A90
2AA4
AD94
DA60
C990
D180
6A40
ENDCHAR
STARTCHAR A
ENCODING 65
SWIDTH 668 0
DWIDTH 7 0
BBX 7 8 0 -1
BITMAP
0028
0238
6A74
9C70
18B0
34A0
30D0
3000
ENDCHAR
STARTCHAR B
ENCODING 66
SWIDTH 641 0
DWIDTH 6 0
BBX 6 7 0 0
BITMAP
1A90
9A60
8ED0
1C70
1C70
28A0
3BC0
ENDCHAR
STARTCHAR C
ENCODING 67
SWIDTH 497 0
DWIDTH 5 0
BBX 6 7 0 0
BITMAP
0A80
2890
7400
B000
B000
B040
7E40
ENDCHAR
STARTCHAR D
ENCODING 68
SWIDTH 663 0
DWIDTH 7 0
BBX 7 7 0 0
BITMAP
1590
9A34
CD34
1C34
1C70
28A0
3B80
ENDCHAR
STARTCHAR E
ENCODING 69
SWIDTH 459 0
DWIDTH 5 0
BBX 5 7 0 0
BITMAP
0A80
2880
1C00
2800
B000
F040
7E00
ENDCHAR
STARTCHAR F
ENCODING 70
SWIDTH 459 0
DWIDTH 5 0
BBX 6 7 0 0
BITMAP
2FF0
9E00
4E40
1C00
2800
2800
3400
ENDCHAR
STARTCHAR G
ENCODING 71
SWIDTH 578 0
DWIDTH 6 0
BBX 6 9 0 -2
BITMAP
1A90
3460
B000
A090
B1C0
2AC0
2A80
6340
2900
ENDCHAR
STARTCHAR H
ENCODING 72
SWIDTH 665 0
DWIDTH 7 0
BBX 7 7 0 0
BITMAP
0B28
8E38
4EB4
1C70
1CB0
28A0
38D0
ENDCHAR
STARTCHAR I
ENCODING 73
SWIDTH 375 0
DWIDTH 4 0
BBX 4 7 0 0
BITMAP
1B
9E
CD
1D
2C
28
34
ENDCHAR
STARTCHAR J
ENCODING 74
SWIDTH 536 0
DWIDTH 5 0
BBX 6 9 0 -2
BITMAP
01A0
09D0
09D0
01C0
0280
0380
6740
9B00
6800
ENDCHAR
STARTCHAR K
ENCODING 75
SWIDTH 601 0
DWIDTH 6 0
BBX 7 7 0 0
BITMAP
1A24
8E80
4E80
1CD0
2CD0
29C0
35C0
ENDCHAR
STARTCHAR L
ENCODING 76
SWIDTH 379 0
DWIDTH 4 0
BBX 7 9 0 -2
BITMAP
1B00
9A00
CD00
1C00
2C00
2800
3800
0794
00B4
ENDCHAR
STARTCHAR M
ENCODING 77
SWIDTH 787 0
DWIDTH 8 0
BBX 8 7 0 0
BITMAP
078B
278E
6B9E
1B6E
179D
23DD
239C
ENDCHAR
STARTCHAR N
ENCODING 78
SWIDTH 668 0
DWIDTH 7 0
BBX 7 7 0 0
BITMAP
1B0C
9B4C
CF58
5AA4
25E0
25F0
30E0
ENDCHAR
STARTCHAR O
ENCODING 79
SWIDTH 665 0
DWIDTH 7 0
BBX 7 7 0 0
BITMAP
1AA0
6A34
9D28
2C34
3870
38E0
1E80
ENDCHAR
STARTCHAR P
ENCODING 80
SWIDTH 573 0
DWIDTH 6 0
BBX 6 7 0 0
BITMAP
1690
9A70
CD60
1D90
1D00
2800
3400
ENDCHAR
STARTCHAR Q
ENCODING 81
SWIDTH 665 0
DWIDTH 7 0
BBX 7 8 0 -1
BITMAP
1AA0
6A34
9D28
2834
3870
3AE0
1FC0
00A0
ENDCHAR
STARTCHAR R
ENCODING 82
SWIDTH 601 0
DWIDTH 6 0
BBX 6 7 0 0
BITMAP
1A90
9A60
4EC0
1CD0
2CD0
29C0
35C0
ENDCHAR
STARTCHAR S
ENCODING 83
SWIDTH 570 0
DWIDTH 6 0
BBX 6 7 0 0
BITMAP
0A90
1C90
1E00
0740
76C0
A1C0
2A40
ENDCHAR
STARTCHAR T
ENCODING 84
SWIDTH 481 0
DWIDTH 5 0
BBX 7 7 0 0
BITMAP
2BFC
9740
C700
0A00
0E00
0D00
1C00
ENDCHAR
STARTCHAR U
ENCODING 85
SWIDTH 716 0
DWIDTH 7 0
BBX 8 7 0 0
BITMAP
1B0E
9B0D
CA1C
0D28
1C38
1C70
0B90
ENDCHAR
STARTCHAR V
ENCODING 86
SWIDTH 615 0
DWIDTH 6 0
BBX 7 7 0 0
BITMAP
1B08
9714
C720
0710
0740
0780
0740
ENDCHAR
STARTCHAR W
ENCODING 87
SWIDTH 962 0
DWIDTH 10 0
BBX 10 7 0 0
BITMAP
1B0D20
971D20
C72D50
071D80
074E40
078F00
074E00
ENDCHAR
STARTCHAR X
ENCODING 88
SWIDTH 620 0
DWIDTH 6 0
BBX 6 7 0 0
BITMAP
1B20
9790
C380
0380
03C0
09D0
15D0
ENDCHAR
STARTCHAR Y
ENCODING 89
SWIDTH 620 0
DWIDTH 6 0
BBX 7 7 0 0
BITMAP
1B08
9754
C3A0
02D0
02C0
0380
0340
ENDCHAR
STARTCHAR Z
ENCODING 90
SWIDTH 542 0
DWIDTH 5 0
BBX 6 7 0 0
BITMAP
2AD0
1380
0700
0E00
2C00
3880
BA80
ENDCHAR
STARTCHAR bracketleft
ENCODING 91
SWIDTH 400 0
DWIDTH 4 0
BBX 4 9 0 -2
BITMAP
0E
18
24
24
30
60
60
90
E0
ENDCHAR
STARTCHAR backslash
ENCODING 92
SWIDTH 362 0
DWIDTH 4 0
BBX 3 9 0 -2
BITMAP
50
50
20
20
24
14
08
08
08
ENDCHAR
STARTCHAR bracketright
ENCODING 93
SWIDTH 400 0
DWIDTH 4 0
BBX 5 9 -1 -2
BITMAP
0680
0240
0300
0600
0600
0900
0C00
0C00
6800
ENDCHAR
STARTCHAR asciicircum
ENCODING 94
SWIDTH 421 0
DWIDTH 4 0
BBX 3 2 1 6
BITMAP
20
94
ENDCHAR
STARTCHAR underscore
ENCODING 95
SWIDTH 444 0
DWIDTH 4 0
BBX 4 1 0 0
BITMAP
6A
ENDCHAR
STARTCHAR grave
ENCODING 96
SWIDTH 201 0
DWIDTH 2 0
BBX 2 2 0 6
BITMAP
90
60
ENDCHAR
STARTCHAR a
ENCODING 97
SWIDTH 526 0
DWIDTH 5 0
BBX 6 5 0 0
BITMAP
2B80
A340
D340
D710
B780
ENDCHAR
STARTCHAR b
ENCODING 98
SWIDTH 444 0
DWIDTH 4 0
BBX 4 7 0 0
BITMAP
24
74
7A
A3
E3
D6
B8
ENDCHAR
STARTCHAR c
ENCODING 99
SWIDTH 384 0
DWIDTH 4 0
BBX 4 5 0 0
BITMAP
29
A1
D0
D1
B8
ENDCHAR
STARTCHAR d
ENCODING 100
SWIDTH 525 0
DWIDTH 5 0
BBX 6 7 0 0
BITMAP
0180
02C0
2B80
A340
D740
D710
B780
ENDCHAR
STARTCHAR e
ENCODING 101
SWIDTH 384 0
DWIDTH 4 0
BBX 4 5 0 0
BITMAP
2A
A5
E4
D1
B8
ENDCHAR
STARTCHAR f
ENCODING 102
SWIDTH 267 0
DWIDTH 3 0
BBX 6 9 -2 -2
BITMAP
02E0
0340
0740
0A00
0E00
0D00
1C00
6C00
B400
ENDCHAR
STARTCHAR g
ENCODING 103
SWIDTH 507 0
DWIDTH 5 0
BBX 6 7 0 -2
BITMAP
2B80
A340
D740
DB10
BF40
1E00
6800
ENDCHAR
STARTCHAR h
ENCODING 104
SWIDTH 505 0
DWIDTH 5 0
BBX 7 7 -1 0
BITMAP
0900
1D00
1EC0
2DD0
39C0
36C4
71E0
ENDCHAR
STARTCHAR i
ENCODING 105
SWIDTH 267 0
DWIDTH 3 0
BBX 3 7 0 0
BITMAP
34
10
70
A0
E0
D4
B4
ENDCHAR
STARTCHAR j
ENCODING 106
SWIDTH 240 0
DWIDTH 2 0
BBX 5 9 -2 -2
BITMAP
0340
0100
0700
0A00
0E00
0D40
1D00
AC00
B400
ENDCHAR
STARTCHAR k
ENCODING 107
SWIDTH 518 0
DWIDTH 5 0
BBX 7 7 -1 0
BITMAP
0900
1D00
1C90
2F80
39C0
35C4
71E0
ENDCHAR
STARTCHAR l
ENCODING 108
SWIDTH 267 0
DWIDTH 3 0
BBX 3 7 0 0
BITMAP
34
74
70
A0
E0
D4
B4
ENDCHAR
STARTCHAR m
ENCODING 109
SWIDTH 752 0
DWIDTH 8 0
BBX 9 5 -1 0
BITMAP
1EDE00
2DDA00
39CE00
36CD40
728B40
ENDCHAR
STARTCHAR n
ENCODING 110
SWIDTH 505 0
DWIDTH 5 0
BBX 7 5 -1 0
BITMAP
1EC0
2DD0
39C0
36C4
71E0
ENDCHAR
STARTCHAR o
ENCODING 111
SWIDTH 439 0
DWIDTH 4 0
BBX 6 5 0 0
BITMAP
2A00
B350
D200
D500
B800
ENDCHAR
STARTCHAR p
ENCODING 112
SWIDTH 468 0
DWIDTH 5 0
BBX 6 9 -1 -3
BITMAP
0800
1ED0
28D0
38D0
35C0
7F40
B000
A000
4000
ENDCHAR
STARTCHAR q
ENCODING 113
SWIDTH 486 0
DWIDTH 5 0
BBX 5 8 0 -3
BITMAP
2B80
A340
D740
DB00
BE00
0E00
0D00
0400
ENDCHAR
STARTCHAR r
ENCODING 114
SWIDTH 376 0
DWIDTH 4 0
BBX 5 5 -1 0
BITMAP
1E80
2840
3800
3400
7000
ENDCHAR
STARTCHAR s
ENCODING 115
SWIDTH 382 0
DWIDTH 4 0
BBX 5 6 -1 0
BITMAP
0500
0B00
1B00
2700
6740
2D00
ENDCHAR
STARTCHAR t
ENCODING 116
SWIDTH 267 0
DWIDTH 3 0
BBX 3 7 0 0
BITMAP
14
74
B4
A0
E0
D4
B4
ENDCHAR
STARTCHAR u
ENCODING 117
SWIDTH 505 0
DWIDTH 5 0
BBX 6 5 0 0
BITMAP
7340
A740
E700
DB10
B780
ENDCHAR
STARTCHAR v
ENCODING 118
SWIDTH 414 0
DWIDTH 4 0
BBX 4 5 0 0
BITMAP
76
A2
E2
D9
B4
ENDCHAR
STARTCHAR w
ENCODING 119
SWIDTH 661 0
DWIDTH 7 0
BBX 7 5 0 0
BITMAP
7364
A754
E720
DB20
BB80
ENDCHAR
STARTCHAR x
ENCODING 120
SWIDTH 522 0
DWIDTH 5 0
BBX 6 6 0 0
BITMAP
0080
2D80
4E40
4A00
1A10
5780
ENDCHAR
STARTCHAR y
ENCODING 121
SWIDTH 486 0
DWIDTH 5 0
BBX 5 7 0 -2
BITMAP
7340
A740
E700
DA40
BE40
6D00
7800
ENDCHAR
STARTCHAR z
ENCODING 122
SWIDTH 428 0
DWIDTH 4 0
BBX 4 5 0 0
BITMAP
6B
1D
28
35
BA
ENDCHAR
STARTCHAR braceleft
ENCODING 123
SWIDTH 352 0
DWIDTH 4 0
BBX 4 9 0 -2
BITMAP
0A
1C
18
18
70
30
70
60
70
ENDCHAR
STARTCHAR bar
ENCODING 124
SWIDTH 532 0
DWIDTH 5 0
BBX 1 9 2 -2
BITMAP
80
80
80
80
80
80
80
80
80
ENDCHAR
STARTCHAR braceright
ENCODING 125
SWIDTH 352 0
DWIDTH 4 0
BBX 4 9 -1 -2
BITMAP
0A
06
0A
09
0A
1C
18
28
60
ENDCHAR
STARTCHAR asciitilde
ENCODING 126
SWIDTH 431 0
DWIDTH 4 0
BBX 4 1 1 6
BITMAP
7D
ENDCHAR
STARTCHAR uni00A0
ENCODING 160
SWIDTH 217 0
DWIDTH 2 0
BBX 1 1 0 0
BITMAP
00
ENDCHAR
STARTCHAR exclamdown
ENCODING 161
SWIDTH 219 0
DWIDTH 2 0
BBX 4 8 -1 -3
BITMAP
0D
04
04
18
24
34
70
50
ENDCHAR
STARTCHAR cent
ENCODING 162
SWIDTH 384 0
DWIDTH 4 0
BBX 4 7 0 0
BITMAP
05
1E
6A
D4
E4
79
20
ENDCHAR
STARTCHAR sterling
ENCODING 163
SWIDTH 455 0
DWIDTH 5 0
BBX 5 7 0 0
BITMAP
0680
0D80
1C00
6E00
3400
3440
BF80
ENDCHAR
STARTCHAR currency
ENCODING 164
SWIDTH 500 0
DWIDTH 5 0
BBX 3 3 1 2
BITMAP
A8
88
A8
ENDCHAR
STARTCHAR yen
ENCODING 165
SWIDTH 558 0
DWIDTH 6 0
BBX 5 7 1 0
BITMAP
A080
B200
7600
3C00
7D00
B900
7400
ENDCHAR
STARTCHAR brokenbar
ENCODING 166
SWIDTH 532 0
DWIDTH 5 0
BBX 1 9 2 -2
BITMAP
80
80
80
80
C0
80
80
80
80
ENDCHAR
STARTCHAR section
ENCODING 167
SWIDTH 542 0
DWIDTH 5 0
BBX 5 8 0 -1
BITMAP
0680
0C40
2A00
3680
2DC0
5B80
C600
6800
ENDCHAR
STARTCHAR dieresis
ENCODING 168
SWIDTH 392 0
DWIDTH 4 0
BBX 4 1 0 6
BITMAP
55
ENDCHAR
STARTCHAR copyright
ENCODING 169
SWIDTH 587 0
DWIDTH 6 0
BBX 6 6 0 0
BITMAP
1500
2580
5050
5410
1A80
1500
ENDCHAR
STARTCHAR ordfeminine
ENCODING 170
SWIDTH 345 0
DWIDTH 3 0
BBX 3 3 0 4
BITMAP
28
98
14
ENDCHAR
STARTCHAR guillemotleft
ENCODING 171
SWIDTH 589 0
DWIDTH 6 0
BBX 5 3 0 1
BITMAP
1980
9500
1580
ENDCHAR
STARTCHAR logicalnot
ENCODING 172
SWIDTH 444 0
DWIDTH 4 0
BBX 4 3 0 0
BITMAP
AA
06
05
ENDCHAR
STARTCHAR uni00AD
ENCODING 173
SWIDTH 290 0
DWIDTH 3 0
BBX 3 1 0 2
BITMAP
A4
ENDCHAR
STARTCHAR registered
ENCODING 174
SWIDTH 553 0
DWIDTH 6 0
BBX 5 6 0 0
BITMAP
1500
6580
5540
5940
5140
1500
ENDCHAR
STARTCHAR macron
ENCODING 175
SWIDTH 446 0
DWIDTH 4 0
BBX 3 1 1 6
BITMAP
A8
ENDCHAR
STARTCHAR degree
ENCODING 176
SWIDTH 314 0
DWIDTH 3 0
BBX 3 4 0 3
BITMAP
14
58
88
50
ENDCHAR
STARTCHAR plusminus
ENCODING 177
SWIDTH 479 0
DWIDTH 5 0
BBX 5 5 0 1
BITMAP
0800
6E40
0800
0400
AA00
ENDCHAR
STARTCHAR uni00B2
ENCODING 178
SWIDTH 328 0
DWIDTH 3 0
BBX 3 4 0 3
BITMAP
28
18
10
68
ENDCHAR
STARTCHAR uni00B3
ENCODING 179
SWIDTH 336 0
DWIDTH 3 0
BBX 3 4 0 3
BITMAP
28
18
5C
14
ENDCHAR
STARTCHAR acute
ENCODING 180
SWIDTH 316 0
DWIDTH 3 0
BBX 2 2 1 6
BITMAP
20
80
ENDCHAR
STARTCHAR uni00B5
ENCODING 181
SWIDTH 505 0
DWIDTH 5 0
BBX 7 7 -1 -2
BITMAP
1CD0
28D0
39C0
36C4
7DE0
7000
5000
ENDCHAR
STARTCHAR paragraph
ENCODING 182
SWIDTH 542 0
DWIDTH 5 0
BBX 5 8 0 -1
BITMAP
1F80
3E80
7EC0
3E80
1E80
0E40
1B00
1B00
ENDCHAR
STARTCHAR periodcentered
ENCODING 183
SWIDTH 434 0
DWIDTH 4 0
BBX 2 2 1 2
BITMAP
60
B0
ENDCHAR
STARTCHAR cedilla
ENCODING 184
SWIDTH 227 0
DWIDTH 2 0
BBX 3 3 0 -2
BITMAP
10
24
60
ENDCHAR
STARTCHAR uni00B9
ENCODING 185
SWIDTH 229 0
DWIDTH 2 0
BBX 2 5 0 3
BITMAP
10
70
20
60
40
ENDCHAR
STARTCHAR ordmasculine
ENCODING 186
SWIDTH 329 0
DWIDTH 3 0
BBX 3 3 0 4
BITMAP
68
94
50
ENDCHAR
STARTCHAR guillemotright
ENCODING 187
SWIDTH 586 0
DWIDTH 6 0
BBX 6 3 0 1
BITMAP
2640
0990
5500
ENDCHAR
STARTCHAR onequarter
ENCODING 188
SWIDTH 749 0
DWIDTH 7 0
BBX 8 8 0 0
BITMAP
1000
7020
2080
6140
4225
0528
086C
2018
ENDCHAR
STARTCHAR onehalf
ENCODING 189
SWIDTH 745 0
DWIDTH 7 0
BBX 8 8 0 0
BITMAP
1000
7020
2080
6140
4229
0518
0814
2068
ENDCHAR
STARTCHAR threequarters
ENCODING 190
SWIDTH 836 0
DWIDTH 8 0
BBX 8 7 0 0
BITMAP
2818
1820
5C50
148A
024B
061B
0806
ENDCHAR
STARTCHAR questiondown
ENCODING 191
SWIDTH 439 0
DWIDTH 4 0
BBX 4 7 0 -2
BITMAP
0A
05
04
18
64
D6
A9
ENDCHAR
STARTCHAR Agrave
ENCODING 192
SWIDTH 668 0
DWIDTH 7 0
BBX 7 11 0 -1
BITMAP
0020
0020
0000
0028
0238
6A74
9C70
18B0
34A0
30D0
3000
ENDCHAR
STARTCHAR Aacute
ENCODING 193
SWIDTH 668 0
DWIDTH 7 0
BBX 8 11 0 -1
BITMAP
0009
0008
0000
0028
0238
6A74
9C70
18B0
34A0
30D0
3000
ENDCHAR
STARTCHAR Acircumflex
ENCODING 194
SWIDTH 668 0
DWIDTH 7 0
BBX 8 11 0 -1
BITMAP
0009
0025
0000
0028
0238
6A74
9C70
18B0
34A0
30D0
3000
ENDCHAR
STARTCHAR Atilde
ENCODING 195
SWIDTH 668 0
DWIDTH 7 0
BBX 8 10 0 -1
BITMAP
002E
0000
0028
0238
6A74
9C70
18B0
34A0
30D0
3000
ENDCHAR
STARTCHAR Adieresis
ENCODING 196
SWIDTH 668 0
DWIDTH 7 0
BBX 8 10 0 -1
BITMAP
0069
0000
0028
0238
6A74
9C70
18B0
34A0
30D0
3000
ENDCHAR
STARTCHAR Aring
ENCODING 197
SWIDTH 668 0
DWIDTH 7 0
BBX 7 11 0 -1
BITMAP
0014
0014
0000
0028
0238
6A74
9C70
18B0
34A0
30D0
3000
ENDCHAR
STARTCHAR AE
ENCODING 198
SWIDTH 764 0
DWIDTH 8 0
BBX 9 8 0 -1
BITMAP
006E80
027800
6A7400
DCBA00
68B000
34A000
30FE00
300000
ENDCHAR
STARTCHAR Ccedilla
ENCODING 199
SWIDTH 497 0
DWIDTH 5 0
BBX 6 9 0 -2
BITMAP
0A80
2890
7400
B000
B000
B040
7E40
0900
1500
ENDCHAR
STARTCHAR Egrave
ENCODING 200
SWIDTH 459 0
DWIDTH 5 0
BBX 5 10 0 0
BITMAP
0600
0200
0000
0A80
2880
1C00
2800
B000
F040
7E00
ENDCHAR
STARTCHAR Eacute
ENCODING 201
SWIDTH 459 0
DWIDTH 5 0
BBX 5 10 0 0
BITMAP
00C0
0140
0000
0A80
2880
1C00
2800
B000
F040
7E00
ENDCHAR
STARTCHAR Ecircumflex
ENCODING 202
SWIDTH 459 0
DWIDTH 5 0
BBX 5 10 0 0
BITMAP
0140
0580
0000
0A80
2880
1C00
2800
B000
F040
7E00
ENDCHAR
STARTCHAR Edieresis
ENCODING 203
SWIDTH 459 0
DWIDTH 5 0
BBX 6 9 0 0
BITMAP
0590
0000
0A80
2880
1C00
2800
B000
F040
7E00
ENDCHAR
STARTCHAR Igrave
ENCODING 204
SWIDTH 375 0
DWIDTH 4 0
BBX 4 10 0 0
BITMAP
09
05
00
1B
9E
CD
1D
2C
28
34
ENDCHAR
STARTCHAR Iacute
ENCODING 205
SWIDTH 375 0
DWIDTH 4 0
BBX 5 10 0 0
BITMAP
0180
0200
0000
1B00
9E00
CD00
1D00
2C00
2800
3400
ENDCHAR
STARTCHAR Icircumflex
ENCODING 206
SWIDTH 375 0
DWIDTH 4 0
BBX 5 10 0 0
BITMAP
0240
0940
0000
1B00
9E00
CD00
1D00
2C00
2800
3400
ENDCHAR
STARTCHAR Idieresis
ENCODING 207
SWIDTH 375 0
DWIDTH 4 0
BBX 5 9 0 0
BITMAP
0D80
0000
1B00
9E00
CD00
1D00
2C00
2800
3400
ENDCHAR
STARTCHAR Eth
ENCODING 208
SWIDTH 663 0
DWIDTH 7 0
BBX 7 7 0 0
BITMAP
1590
9A34
CD34
6E34
1C70
28A0
3B80
ENDCHAR
STARTCHAR Ntilde
ENCODING 209
SWIDTH 686 0
DWIDTH 7 0
BBX 7 9 0 0
BITMAP
01F8
0010
1B0C
9B4C
CF58
5AA4
25E0
25F0
30E0
ENDCHAR
STARTCHAR Ograve
ENCODING 210
SWIDTH 665 0
DWIDTH 7 0
BBX 7 10 0 0
BITMAP
0200
0240
0000
1AA0
6A34
9D28
2C34
3870
38E0
1E80
ENDCHAR
STARTCHAR Oacute
ENCODING 211
SWIDTH 665 0
DWIDTH 7 0
BBX 7 10 0 0
BITMAP
0060
0080
0000
1AA0
6A34
9D28
2C34
3870
38E0
1E80
ENDCHAR
STARTCHAR Ocircumflex
ENCODING 212
SWIDTH 665 0
DWIDTH 7 0
BBX 7 10 0 0
BITMAP
0090
0250
0000
1AA0
6A34
9D28
2C34
3870
38E0
1E80
ENDCHAR
STARTCHAR Otilde
ENCODING 213
SWIDTH 665 0
DWIDTH 7 0
BBX 7 9 0 0
BITMAP
01B4
0000
1AA0
6A34
9D28
2C34
3870
38E0
1E80
ENDCHAR
STARTCHAR Odieresis
ENCODING 214
SWIDTH 665 0
DWIDTH 7 0
BBX 7 9 0 0
BITMAP
0360
0000
1AA0
6A34
9D28
2C34
3870
38E0
1E80
ENDCHAR
STARTCHAR multiply
ENCODING 215
SWIDTH 414 0
DWIDTH 4 0
BBX 4 3 0 2
BITMAP
55
2C
69
ENDCHAR
STARTCHAR Oslash
ENCODING 216
SWIDTH 658 0
DWIDTH 7 0
BBX 7 8 0 -1
BITMAP
15E0
66B0
9D74
6974
3A70
3AD0
1F80
0500
ENDCHAR
STARTCHAR Ugrave
ENCODING 217
SWIDTH 716 0
DWIDTH 7 0
BBX 8 10 0 0
BITMAP
0080
0090
0000
1B0D
9A1D
CD1C
0D28
1C34
1C70
1FD0
ENDCHAR
STARTCHAR Uacute
ENCODING 218
SWIDTH 716 0
DWIDTH 7 0
BBX 8 10 0 0
BITMAP
0020
0060
0000
1B0D
9A1D
CD1C
0D28
1C34
1C70
1FD0
ENDCHAR
STARTCHAR Ucircumflex
ENCODING 219
SWIDTH 716 0
DWIDTH 7 0
BBX 8 10 0 0
BITMAP
0020
0094
0000
1B0D
9A1D
CD1C
0D28
1C34
1C70
1FD0
ENDCHAR
STARTCHAR Udieresis
ENCODING 220
SWIDTH 716 0
DWIDTH 7 0
BBX 8 9 0 0
BITMAP
0098
0000
1B0D
9A1D
CD1C
0D28
1C34
1C70
1FD0
ENDCHAR
STARTCHAR Yacute
ENCODING 221
SWIDTH 620 0
DWIDTH 6 0
BBX 7 10 0 0
BITMAP
0018
0020
0000
1B08
9754
C3A0
02D0
02C0
0380
0340
ENDCHAR
STARTCHAR Thorn
ENCODING 222
SWIDTH 583 0
DWIDTH 6 0
BBX 6 8 0 0
BITMAP
0600
0B80
2E60
9D70
DC60
6CD0
2D40
3800
ENDCHAR
STARTCHAR germandbls
ENCODING 223
SWIDTH 480 0
DWIDTH 5 0
BBX 6 10 -1 -3
BITMAP
0680
0D80
1C80
2D80
28D0
34D0
7680
7000
A000
4000
ENDCHAR
STARTCHAR agrave
ENCODING 224
SWIDTH 526 0
DWIDTH 5 0
BBX 6 7 0 0
BITMAP
0900
0500
2B80
A340
D340
D710
B780
ENDCHAR
STARTCHAR aacute
ENCODING 225
SWIDTH 526 0
DWIDTH 5 0
BBX 6 7 0 0
BITMAP
0200
0500
2B80
A340
D340
D710
B780
ENDCHAR
STARTCHAR acircumflex
ENCODING 226
SWIDTH 526 0
DWIDTH 5 0
BBX 6 7 0 0
BITMAP
0600
0440
2B80
A340
D340
D710
B780
ENDCHAR
STARTCHAR atilde
ENCODING 227
SWIDTH 526 0
DWIDTH 5 0
BBX 6 7 0 0
BITMAP
1F80
0100
2B80
A340
D340
D710
B780
ENDCHAR
STARTCHAR adieresis
ENCODING 228
SWIDTH 526 0
DWIDTH 5 0
BBX 6 7 0 0
BITMAP
0D80
0000
2B80
A340
D340
D710
B780
ENDCHAR
STARTCHAR aring
ENCODING 229
SWIDTH 526 0
DWIDTH 5 0
BBX 6 7 0 0
BITMAP
0500
0500
2B80
A340
D340
D710
B780
ENDCHAR
STARTCHAR ae
ENCODING 230
SWIDTH 650 0
DWIDTH 7 0
BBX 7 5 0 0
BITMAP
2AA4
0760
6B90
DB04
B7D0
ENDCHAR
STARTCHAR ccedilla
ENCODING 231
SWIDTH 384 0
DWIDTH 4 0
BBX 4 7 0 -2
BITMAP
29
A1
D0
D1
B8
14
14
ENDCHAR
STARTCHAR egrave
ENCODING 232
SWIDTH 384 0
DWIDTH 4 0
BBX 4 7 0 0
BITMAP
18
08
2A
A5
E4
D1
B8
ENDCHAR
STARTCHAR eacute
ENCODING 233
SWIDTH 384 0
DWIDTH 4 0
BBX 4 7 0 0
BITMAP
02
04
2A
A5
E4
D1
B8
ENDCHAR
STARTCHAR ecircumflex
ENCODING 234
SWIDTH 384 0
DWIDTH 4 0
BBX 4 7 0 0
BITMAP
0A
11
2A
A5
E4
D1
B8
ENDCHAR
STARTCHAR edieresis
ENCODING 235
SWIDTH 384 0
DWIDTH 4 0
BBX 4 7 0 0
BITMAP
27
00
2A
A5
E4
D1
B8
ENDCHAR
STARTCHAR igrave
ENCODING 236
SWIDTH 267 0
DWIDTH 3 0
BBX 3 7 0 0
BITMAP
60
20
70
A0
E0
D4
B4
ENDCHAR
STARTCHAR iacute
ENCODING 237
SWIDTH 267 0
DWIDTH 3 0
BBX 3 7 0 0
BITMAP
18
10
70
A0
E0
D4
B4
ENDCHAR
STARTCHAR icircumflex
ENCODING 238
SWIDTH 267 0
DWIDTH 3 0
BBX 3 7 0 0
BITMAP
28
44
70
A0
E0
D4
B4
ENDCHAR
STARTCHAR idieresis
ENCODING 239
SWIDTH 267 0
DWIDTH 3 0
BBX 3 7 0 0
BITMAP
9C
00
70
A0
E0
D4
B4
ENDCHAR
STARTCHAR eth
ENCODING 240
SWIDTH 526 0
DWIDTH 5 0
BBX 6 8 0 0
BITMAP
0100
0790
0680
2B80
A380
D340
D710
B780
ENDCHAR
STARTCHAR ntilde
ENCODING 241
SWIDTH 505 0
DWIDTH 5 0
BBX 7 7 -1 0
BITMAP
0B90
0040
1EC0
2DD0
39C0
36C4
71E0
ENDCHAR
STARTCHAR ograve
ENCODING 242
SWIDTH 433 0
DWIDTH 4 0
BBX 7 7 -1 0
BITMAP
0300
0200
0A40
29D4
3480
7640
2E00
ENDCHAR
STARTCHAR oacute
ENCODING 243
SWIDTH 439 0
DWIDTH 4 0
BBX 6 7 0 0
BITMAP
0200
0400
2A00
B350
D200
D500
B800
ENDCHAR
STARTCHAR ocircumflex
ENCODING 244
SWIDTH 433 0
DWIDTH 4 0
BBX 7 7 -1 0
BITMAP
0240
0440
0A40
29D4
3480
7640
2E00
ENDCHAR
STARTCHAR otilde
ENCODING 245
SWIDTH 433 0
DWIDTH 4 0
BBX 7 7 -1 0
BITMAP
1B80
0100
0A40
29D4
3480
7640
2E00
ENDCHAR
STARTCHAR odieresis
ENCODING 246
SWIDTH 433 0
DWIDTH 4 0
BBX 7 7 -1 0
BITMAP
09C0
0000
0A40
29D4
3480
7640
2E00
ENDCHAR
STARTCHAR divide
ENCODING 247
SWIDTH 415 0
DWIDTH 4 0
BBX 4 5 0 1
BITMAP
0D
04
6A
14
28
ENDCHAR
STARTCHAR oslash
ENCODING 248
SWIDTH 428 0
DWIDTH 4 0
BBX 6 6 -1 -1
BITMAP
0A90
29C0
3A80
3A40
3E00
4000
ENDCHAR
STARTCHAR ugrave
ENCODING 249
SWIDTH 505 0
DWIDTH 5 0
BBX 6 7 0 0
BITMAP
0C00
0800
7340
A740
E700
DB10
B780
ENDCHAR
STARTCHAR uacute
ENCODING 250
SWIDTH 505 0
DWIDTH 5 0
BBX 6 7 0 0
BITMAP
0200
0500
7340
A740
E700
DB10
B780
ENDCHAR
STARTCHAR ucircumflex
ENCODING 251
SWIDTH 505 0
DWIDTH 5 0
BBX 6 7 0 0
BITMAP
0600
1500
7340
A740
E700
DB10
B780
ENDCHAR
STARTCHAR udieresis
ENCODING 252
SWIDTH 505 0
DWIDTH 5 0
BBX 6 7 0 0
BITMAP
2640
0000
7340
A740
E700
DB10
B780
ENDCHAR
STARTCHAR yacute
ENCODING 253
SWIDTH 505 0
DWIDTH 5 0
BBX 5 9 0 -2
BITMAP
0200
0500
7340
A740
E700
DA40
BE40
6D00
7800
ENDCHAR
STARTCHAR thorn
ENCODING 254
SWIDTH 473 0
DWIDTH 5 0
BBX 6 11 -1 -3
BITMAP
0500
0D00
1D00
1EC0
28D0
38D0
35C0
7B40
7000
A000
4000
ENDCHAR
STARTCHAR ydieresis
ENCODING 255
SWIDTH 505 0
DWIDTH 5 0
BBX 5 9 0 -2
BITMAP
2600
0000
7340
A740
E700
DA40
BE40
6D00
7800
ENDCHAR
STARTCHAR Amacron
ENCODING 256
SWIDTH 668 0
DWIDTH 7 0
BBX 8 10 0 -1
BITMAP
006A
0000
0028
0238
6A74
9C70
18B0
34A0
30D0
3000
ENDCHAR
STARTCHAR amacron
ENCODING 257
SWIDTH 526 0
DWIDTH 5 0
BBX 6 7 0 0
BITMAP
1A80
0000
2B80
A340
D340
D710
B780
ENDCHAR
STARTCHAR Abreve
ENCODING 258
SWIDTH 668 0
DWIDTH 7 0
BBX 8 11 0 -1
BITMAP
0051
0029
0000
0028
0238
6A74
9C70
18B0
34A0
30D0
3000
ENDCHAR
STARTCHAR abreve
ENCODING 259
SWIDTH 526 0
DWIDTH 5 0
BBX 6 7 0 0
BITMAP
1A40
0000
2B80
A340
D340
D710
B780
ENDCHAR
STARTCHAR Aogonek
ENCODING 260
SWIDTH 668 0
DWIDTH 7 0
BBX 7 9 0 -2
BITMAP
0028
0238
6A74
9C70
18B0
34A0
30D0
3080
0180
ENDCHAR
STARTCHAR aogonek
ENCODING 261
SWIDTH 526 0
DWIDTH 5 0
BBX 6 7 0 -2
BITMAP
2B80
A340
D340
D710
B780
0200
0240
ENDCHAR
STARTCHAR Cacute
ENCODING 262
SWIDTH 497 0
DWIDTH 5 0
BBX 6 10 0 0
BITMAP
00C0
0140
0000
0A80
2890
7400
B000
B000
B040
7E40
ENDCHAR
STARTCHAR cacute
ENCODING 263
SWIDTH 384 0
DWIDTH 4 0
BBX 4 7 0 0
BITMAP
02
05
29
A1
D0
D1
B8
ENDCHAR
STARTCHAR Ccircumflex
ENCODING 264
SWIDTH 497 0
DWIDTH 5 0
BBX 6 10 0 0
BITMAP
0140
0580
0000
0A80
2890
7400
B000
B000
B040
7E40
ENDCHAR
STARTCHAR ccircumflex
ENCODING 265
SWIDTH 384 0
DWIDTH 4 0
BBX 4 7 0 0
BITMAP
06
11
29
A1
D0
D1
B8
ENDCHAR
STARTCHAR Cdotaccent
ENCODING 266
SWIDTH 497 0
DWIDTH 5 0
BBX 6 10 0 0
BITMAP
0040
01C0
0000
0A80
2890
7400
B000
B000
B040
7E40
ENDCHAR
STARTCHAR cdotaccent
ENCODING 267
SWIDTH 384 0
DWIDTH 4 0
BBX 4 7 0 0
BITMAP
0A
05
29
A1
D0
D1
B8
ENDCHAR
STARTCHAR Ccaron
ENCODING 268
SWIDTH 497 0
DWIDTH 5 0
BBX 6 10 0 0
BITMAP
0250
0240
0000
0A80
2890
7400
B000
B000
B040
7E40
ENDCHAR
STARTCHAR ccaron
ENCODING 269
SWIDTH 384 0
DWIDTH 4 0
BBX 5 7 0 0
BITMAP
0A40
0400
2900
A100
D000
D100
B800
ENDCHAR
STARTCHAR Dcaron
ENCODING 270
SWIDTH 663 0
DWIDTH 7 0
BBX 7 10 0 0
BITMAP
0250
0240
0000
1590
9A34
CD34
1C34
1C70
28A0
3B80
ENDCHAR
STARTCHAR dcaron
ENCODING 271
SWIDTH 525 0
DWIDTH 5 0
BBX 7 7 0 0
BITMAP
0058
01C4
2B80
A380
D740
D710
B780
ENDCHAR
STARTCHAR Dcroat
ENCODING 272
SWIDTH 663 0
DWIDTH 7 0
BBX 7 7 0 0
BITMAP
1590
9A34
CD34
6E34
1C70
28A0
3B80
ENDCHAR
STARTCHAR dcroat
ENCODING 273
SWIDTH 525 0
DWIDTH 5 0
BBX 6 7 0 0
BITMAP
0080
02D0
2B80
A380
D740
D710
B780
ENDCHAR
STARTCHAR Emacron
ENCODING 274
SWIDTH 459 0
DWIDTH 5 0
BBX 6 9 0 0
BITMAP
0690
0000
0A80
2880
1C00
2800
B000
F040
7E00
ENDCHAR
STARTCHAR emacron
ENCODING 275
SWIDTH 384 0
DWIDTH 4 0
BBX 4 7 0 0
BITMAP
2A
00
2A
A5
E4
D1
B8
ENDCHAR
STARTCHAR Ebreve
ENCODING 276
SWIDTH 459 0
DWIDTH 5 0
BBX 6 10 0 0
BITMAP
0410
0680
0000
0A80
2880
1C00
2800
B000
F040
7E00
ENDCHAR
STARTCHAR ebreve
ENCODING 277
SWIDTH 384 0
DWIDTH 4 0
BBX 4 7 0 0
BITMAP
2A
00
2A
A5
E4
D1
B8
ENDCHAR
STARTCHAR Edotaccent
ENCODING 278
SWIDTH 459 0
DWIDTH 5 0
BBX 5 10 0 0
BITMAP
0280
0140
0000
0A80
2880
1C00
2800
B000
F040
7E00
ENDCHAR
STARTCHAR edotaccent
ENCODING 279
SWIDTH 384 0
DWIDTH 4 0
BBX 4 7 0 0
BITMAP
0A
05
2A
A5
E4
D1
B8
ENDCHAR
STARTCHAR Eogonek
ENCODING 280
SWIDTH 459 0
DWIDTH 5 0
BBX 5 9 0 -2
BITMAP
1980
34C0
2800
2800
B000
B040
7E00
0800
0500
ENDCHAR
STARTCHAR eogonek
ENCODING 281
SWIDTH 384 0
DWIDTH 4 0
BBX 4 7 0 -2
BITMAP
2A
A5
E4
D1
B8
20
14
ENDCHAR
STARTCHAR Ecaron
ENCODING 282
SWIDTH 459 0
DWIDTH 5 0
BBX 6 10 0 0
BITMAP
0250
0240
0000
0A80
2880
1C00
2800
B000
F040
7E00
ENDCHAR
STARTCHAR ecaron
ENCODING 283
SWIDTH 384 0
DWIDTH 4 0
BBX 5 7 0 0
BITMAP
0A40
0400
2A00
A500
E400
D100
B800
ENDCHAR
STARTCHAR Gcircumflex
ENCODING 284
SWIDTH 578 0
DWIDTH 6 0
BBX 6 12 0 -2
BITMAP
0080
0290
0000
1A90
3450
B040
A0D0
B1C0
2AC0
2A80
6340
2900
ENDCHAR
STARTCHAR gcircumflex
ENCODING 285
SWIDTH 507 0
DWIDTH 5 0
BBX 6 9 0 -2
BITMAP
0600
0440
2B80
A340
D740
DB10
BF40
1E00
6800
ENDCHAR
STARTCHAR Gbreve
ENCODING 286
SWIDTH 578 0
DWIDTH 6 0
BBX 6 12 0 -2
BITMAP
0110
0290
0000
1A90
3460
B000
A090
B1C0
2AC0
2A80
6340
2900
ENDCHAR
STARTCHAR gbreve
ENCODING 287
SWIDTH 507 0
DWIDTH 5 0
BBX 6 9 0 -2
BITMAP
1A40
0000
2B80
A340
D740
DB10
BF40
1E00
6800
ENDCHAR
STARTCHAR Gdotaccent
ENCODING 288
SWIDTH 578 0
DWIDTH 6 0
BBX 6 12 0 -2
BITMAP
0140
0180
0000
1A90
3460
B000
A090
B1C0
2AC0
2A80
6340
2900
ENDCHAR
STARTCHAR gdotaccent
ENCODING 289
SWIDTH 507 0
DWIDTH 5 0
BBX 6 9 0 -2
BITMAP
0700
0100
2B80
A340
D740
DB10
BF40
1E00
6800
ENDCHAR
STARTCHAR Gcommaaccent
ENCODING 290
SWIDTH 578 0
DWIDTH 6 0
BBX 6 9 0 -2
BITMAP
0A80
3880
7000
B090
E0C0
B2C0
7A80
0400
0800
ENDCHAR
STARTCHAR gcommaaccent
ENCODING 291
SWIDTH 507 0
DWIDTH 5 0
BBX 6 10 0 -2
BITMAP
0100
0600
0000
2B80
A340
D740
DB10
BF40
1E00
6800
ENDCHAR
STARTCHAR Hcircumflex
ENCODING 292
SWIDTH 665 0
DWIDTH 7 0
BBX 7 10 0 0
BITMAP
0020
0190
0000
0B28
8E38
4EB4
1C70
1CB0
28A0
38D0
ENDCHAR
STARTCHAR hcircumflex
ENCODING 293
SWIDTH 505 0
DWIDTH 5 0
BBX 7 9 -1 0
BITMAP
0200
0940
0900
1D00
1EC0
2DD0
29C0
36C4
71E0
ENDCHAR
STARTCHAR Hbar
ENCODING 294
SWIDTH 665 0
DWIDTH 7 0
BBX 8 7 0 0
BITMAP
1B28
9EB9
4EB4
1C70
1CB0
28A0
38D0
ENDCHAR
STARTCHAR hbar
ENCODING 295
SWIDTH 505 0
DWIDTH 5 0
BBX 7 7 -1 0
BITMAP
0500
1E00
1EC0
2DD0
29C0
36C4
71E0
ENDCHAR
STARTCHAR Itilde
ENCODING 296
SWIDTH 375 0
DWIDTH 4 0
BBX 5 9 0 0
BITMAP
0B80
0000
1B00
9E00
CD00
1D00
2C00
2800
3400
ENDCHAR
STARTCHAR itilde
ENCODING 297
SWIDTH 267 0
DWIDTH 3 0
BBX 3 7 0 0
BITMAP
78
00
70
A0
E0
D4
B4
ENDCHAR
STARTCHAR Imacron
ENCODING 298
SWIDTH 375 0
DWIDTH 4 0
BBX 5 9 0 0
BITMAP
1A80
0000
1B00
9E00
CD00
1D00
2C00
2800
3400
ENDCHAR
STARTCHAR imacron
ENCODING 299
SWIDTH 267 0
DWIDTH 3 0
BBX 3 7 0 0
BITMAP
A8
00
70
A0
E0
D4
B4
ENDCHAR
STARTCHAR Ibreve
ENCODING 300
SWIDTH 375 0
DWIDTH 4 0
BBX 5 10 0 0
BITMAP
0440
0A40
0000
1B00
9E00
CD00
1D00
2C00
2800
3400
ENDCHAR
STARTCHAR ibreve
ENCODING 301
SWIDTH 267 0
DWIDTH 3 0
BBX 3 7 0 0
BITMAP
68
00
70
A0
E0
D4
B4
ENDCHAR
STARTCHAR Iogonek
ENCODING 302
SWIDTH 375 0
DWIDTH 4 0
BBX 4 12 0 -2
BITMAP
08
08
00
1B
9A
CD
1D
1C
28
34
50
64
ENDCHAR
STARTCHAR iogonek
ENCODING 303
SWIDTH 267 0
DWIDTH 3 0
BBX 4 9 -1 -2
BITMAP
0D
04
1C
28
38
35
3D
50
64
ENDCHAR
STARTCHAR Idotaccent
ENCODING 304
SWIDTH 375 0
DWIDTH 4 0
BBX 5 10 0 0
BITMAP
0100
0340
0000
1B00
9E00
CD00
1D00
2C00
2800
3400
ENDCHAR
STARTCHAR dotlessi
ENCODING 305
SWIDTH 267 0
DWIDTH 3 0
BBX 3 5 0 0
BITMAP
70
A0
E0
D4
B4
ENDCHAR
STARTCHAR IJ
ENCODING 306
SWIDTH 663 0
DWIDTH 7 0
BBX 7 9 0 -2
BITMAP
1B28
9A34
CD70
1DB0
1CA0
28D0
39D0
2280
1A00
ENDCHAR
STARTCHAR ij
ENCODING 307
SWIDTH 507 0
DWIDTH 5 0
BBX 6 9 0 -2
BITMAP
35C0
1040
7280
A340
E740
D710
AB40
2E00
6800
ENDCHAR
STARTCHAR Jcircumflex
ENCODING 308
SWIDTH 536 0
DWIDTH 5 0
BBX 7 12 0 -2
BITMAP
0020
0094
0000
01A0
09D0
09D0
01C0
0280
0380
6740
9B00
6800
ENDCHAR
STARTCHAR jcircumflex
ENCODING 309
SWIDTH 240 0
DWIDTH 2 0
BBX 5 9 -2 -2
BITMAP
0240
0440
0700
0A00
0E00
0D40
1D00
AC00
B400
ENDCHAR
STARTCHAR Kcommaaccent
ENCODING 310
SWIDTH 601 0
DWIDTH 6 0
BBX 7 9 0 -2
BITMAP
1A24
8E80
4E80
1CD0
2CD0
29C0
35C0
0500
0500
ENDCHAR
STARTCHAR kcommaaccent
ENCODING 311
SWIDTH 518 0
DWIDTH 5 0
BBX 7 9 -1 -2
BITMAP
0900
1D00
1C90
2F80
39C0
35C4
71E0
0400
0500
ENDCHAR
STARTCHAR kgreenlandic
ENCODING 312
SWIDTH 518 0
DWIDTH 5 0
BBX 7 5 -1 0
BITMAP
1C90
2F80
39C0
35C4
71E0
ENDCHAR
STARTCHAR Lacute
ENCODING 313
SWIDTH 379 0
DWIDTH 4 0
BBX 7 13 0 -2
BITMAP
0040
0240
0100
0000
1B00
9A00
CD00
1C00
2C00
2800
3800
0794
00B4
ENDCHAR
STARTCHAR lacute
ENCODING 314
SWIDTH 267 0
DWIDTH 3 0
BBX 4 10 0 0
BITMAP
05
08
04
24
74
70
A0
E0
D4
B4
ENDCHAR
STARTCHAR Lcommaaccent
ENCODING 315
SWIDTH 379 0
DWIDTH 4 0
BBX 7 9 0 -2
BITMAP
1B00
9A00
CD00
1C00
2C00
2800
3800
2794
10B4
ENDCHAR
STARTCHAR lcommaaccent
ENCODING 316
SWIDTH 267 0
DWIDTH 3 0
BBX 3 9 0 -2
BITMAP
34
74
70
A0
E0
D4
B4
40
80
ENDCHAR
STARTCHAR Lcaron
ENCODING 317
SWIDTH 379 0
DWIDTH 4 0
BBX 7 13 0 -2
BITMAP
0010
0280
0100
0000
1B00
9A00
CD00
1C00
2C00
2800
3800
0794
00B4
ENDCHAR
STARTCHAR lcaron
ENCODING 318
SWIDTH 267 0
DWIDTH 3 0
BBX 4 7 0 0
BITMAP
17
35
70
B0
A0
D4
F4
ENDCHAR
STARTCHAR Ldot
ENCODING 319
SWIDTH 605 0
DWIDTH 6 0
BBX 7 9 0 -2
BITMAP
1B00
9A00
8D00
1C50
2C90
2800
3800
0794
00B4
ENDCHAR
STARTCHAR ldot
ENCODING 320
SWIDTH 353 0
DWIDTH 4 0
BBX 4 7 0 0
BITMAP
34
74
70
A9
E0
D0
A0
ENDCHAR
STARTCHAR Lslash
ENCODING 321
SWIDTH 392 0
DWIDTH 4 0
BBX 7 9 0 -2
BITMAP
1B00
9A00
CE40
1D00
2C00
2800
3800
0794
00B4
ENDCHAR
STARTCHAR lslash
ENCODING 322
SWIDTH 286 0
DWIDTH 3 0
BBX 3 7 0 0
BITMAP
34
74
78
A0
E0
D4
B4
ENDCHAR
STARTCHAR Nacute
ENCODING 323
SWIDTH 702 0
DWIDTH 7 0
BBX 7 10 0 0
BITMAP
0018
0020
0000
1B0C
9B4C
CF58
5AA4
25E0
25F0
30E0
ENDCHAR
STARTCHAR nacute
ENCODING 324
SWIDTH 505 0
DWIDTH 5 0
BBX 7 7 -1 0
BITMAP
0090
0040
1EC0
2DD0
39C0
36C4
71E0
ENDCHAR
STARTCHAR Ncommaaccent
ENCODING 325
SWIDTH 668 0
DWIDTH 7 0
BBX 7 9 0 -2
BITMAP
1B0C
9B4C
CF58
5AA4
25E0
25F0
30E0
0500
0500
ENDCHAR
STARTCHAR ncommaaccent
ENCODING 326
SWIDTH 505 0
DWIDTH 5 0
BBX 7 7 -1 -2
BITMAP
1EC0
2DD0
39C0
36C4
71E0
0400
0800
ENDCHAR
STARTCHAR Ncaron
ENCODING 327
SWIDTH 668 0
DWIDTH 7 0
BBX 7 10 0 0
BITMAP
0058
0020
0000
1B0C
9B4C
CF58
5AA4
25E0
25F0
30E0
ENDCHAR
STARTCHAR ncaron
ENCODING 328
SWIDTH 505 0
DWIDTH 5 0
BBX 7 7 -1 0
BITMAP
0280
0100
1EC0
2DD0
39C0
36C4
71E0
ENDCHAR
STARTCHAR napostrophe
ENCODING 329
SWIDTH 505 0
DWIDTH 5 0
BBX 7 7 -1 0
BITMAP
1400
1000
1EC0
2DD0
39C0
36C4
71E0
ENDCHAR
STARTCHAR Eng
ENCODING 330
SWIDTH 723 0
DWIDTH 7 0
BBX 8 10 0 -3
BITMAP
1B46
6789
6BCC
19DC
0CE8
18B4
2474
0570
09A0
0280
ENDCHAR
STARTCHAR eng
ENCODING 331
SWIDTH 505 0
DWIDTH 5 0
BBX 5 7 -1 -2
BITMAP
1EC0
2DC0
39C0
3680
7780
1B40
1A00
ENDCHAR
STARTCHAR Omacron
ENCODING 332
SWIDTH 665 0
DWIDTH 7 0
BBX 7 9 0 0
BITMAP
02A0
0000
1AA0
6A34
9D28
2C34
3870
38E0
1E80
ENDCHAR
STARTCHAR omacron
ENCODING 333
SWIDTH 433 0
DWIDTH 4 0
BBX 7 7 -1 0
BITMAP
0A90
0000
0A40
29D4
3480
7640
2E00
ENDCHAR
STARTCHAR Obreve
ENCODING 334
SWIDTH 665 0
DWIDTH 7 0
BBX 7 10 0 0
BITMAP
0214
01A0
0000
1AA0
6A34
9D28
2C34
3870
38E0
1E80
ENDCHAR
STARTCHAR obreve
ENCODING 335
SWIDTH 433 0
DWIDTH 4 0
BBX 7 7 -1 0
BITMAP
0A90
0000
0A40
29D4
3480
7640
2E00
ENDCHAR
STARTCHAR Ohungarumlaut
ENCODING 336
SWIDTH 665 0
DWIDTH 7 0
BBX 7 10 0 0
BITMAP
0098
0094
0000
1AA0
6A34
9D28
2C34
3870
38E0
1E80
ENDCHAR
STARTCHAR ohungarumlaut
ENCODING 337
SWIDTH 433 0
DWIDTH 4 0
BBX 7 7 -1 0
BITMAP
0260
0580
0A40
29D4
3480
7640
2E00
ENDCHAR
STARTCHAR OE
ENCODING 338
SWIDTH 846 0
DWIDTH 8 0
BBX 9 7 0 0
BITMAP
16BFC0
6A3400
9D2800
2C3E00
387000
38A000
1FFE00
ENDCHAR
STARTCHAR oe
ENCODING 339
SWIDTH 663 0
DWIDTH 7 0
BBX 7 5 0 0
BITMAP
2AA4
A794
D390
D744
BAE0
ENDCHAR
STARTCHAR Racute
ENCODING 340
SWIDTH 601 0
DWIDTH 6 0
BBX 6 10 0 0
BITMAP
0090
0080
0000
1A90
9A60
4EC0
1CD0
2CD0
29C0
35C0
ENDCHAR
STARTCHAR racute
ENCODING 341
SWIDTH 376 0
DWIDTH 4 0
BBX 5 7 -1 0
BITMAP
0180
0100
1E80
2840
3800
3400
7000
ENDCHAR
STARTCHAR Rcommaaccent
ENCODING 342
SWIDTH 601 0
DWIDTH 6 0
BBX 6 9 0 -2
BITMAP
1A90
9A60
4EC0
1CD0
2CD0
29C0
35C0
0400
0500
ENDCHAR
STARTCHAR rcommaaccent
ENCODING 343
SWIDTH 376 0
DWIDTH 4 0
BBX 5 7 -1 -2
BITMAP
1E80
2840
3800
3400
7000
1400
1400
ENDCHAR
STARTCHAR Rcaron
ENCODING 344
SWIDTH 601 0
DWIDTH 6 0
BBX 6 10 0 0
BITMAP
0160
0080
0000
1A90
9A60
4EC0
1CD0
2CD0
29C0
35C0
ENDCHAR
STARTCHAR rcaron
ENCODING 345
SWIDTH 376 0
DWIDTH 4 0
BBX 5 7 -1 0
BITMAP
0540
0100
1E80
2840
3800
3400
7000
ENDCHAR
STARTCHAR Sacute
ENCODING 346
SWIDTH 570 0
DWIDTH 6 0
BBX 6 10 0 0
BITMAP
0090
0180
0000
0A90
1C90
1E00
0740
76C0
A1C0
2A40
ENDCHAR
STARTCHAR sacute
ENCODING 347
SWIDTH 382 0
DWIDTH 4 0
BBX 5 7 -1 0
BITMAP
0180
0100
0B00
0B00
1700
6740
2E00
ENDCHAR
STARTCHAR Scircumflex
ENCODING 348
SWIDTH 570 0
DWIDTH 6 0
BBX 6 10 0 0
BITMAP
0080
0250
0000
0A90
1C90
1E00
0740
76C0
A1C0
2A40
ENDCHAR
STARTCHAR scircumflex
ENCODING 349
SWIDTH 382 0
DWIDTH 4 0
BBX 5 7 -1 0
BITMAP
0240
0540
0B00
0B00
1700
6740
2E00
ENDCHAR
STARTCHAR Scedilla
ENCODING 350
SWIDTH 570 0
DWIDTH 6 0
BBX 6 9 0 -2
BITMAP
0A90
1C90
1E00
0740
76C0
A1C0
6A40
0900
1900
ENDCHAR
STARTCHAR scedilla
ENCODING 351
SWIDTH 382 0
DWIDTH 4 0
BBX 5 8 -1 -2
BITMAP
0500
0B00
1B00
2700
6780
3E00
1800
1800
ENDCHAR
STARTCHAR Scaron
ENCODING 352
SWIDTH 570 0
DWIDTH 6 0
BBX 6 10 0 0
BITMAP
0160
0080
0000
0A90
1C90
1E00
0740
76C0
A1C0
2A40
ENDCHAR
STARTCHAR scaron
ENCODING 353
SWIDTH 369 0
DWIDTH 4 0
BBX 5 7 -1 0
BITMAP
0540
0100
0B00
0B00
1700
6740
2E00
ENDCHAR
STARTCHAR uni0162
ENCODING 354
SWIDTH 481 0
DWIDTH 5 0
BBX 7 9 0 -2
BITMAP
2BFC
9740
C700
0A00
0E00
0D00
1C00
0900
1900
ENDCHAR
STARTCHAR uni0163
ENCODING 355
SWIDTH 267 0
DWIDTH 3 0
BBX 3 9 0 -2
BITMAP
14
74
B4
A0
E0
D4
B4
90
60
ENDCHAR
STARTCHAR Tcaron
ENCODING 356
SWIDTH 481 0
DWIDTH 5 0
BBX 7 10 0 0
BITMAP
0150
0180
0000
2BFC
9740
C700
0A00
0E00
0D00
1C00
ENDCHAR
STARTCHAR tcaron
ENCODING 357
SWIDTH 267 0
DWIDTH 3 0
BBX 4 7 0 0
BITMAP
03
75
B4
A0
E0
D4
B4
ENDCHAR
STARTCHAR Tbar
ENCODING 358
SWIDTH 481 0
DWIDTH 5 0
BBX 7 7 0 0
BITMAP
2BFC
9340
C700
4B00
2E80
0D00
1C00
ENDCHAR
STARTCHAR tbar
ENCODING 359
SWIDTH 267 0
DWIDTH 3 0
BBX 3 7 0 0
BITMAP
14
74
B4
B4
A0
D4
F4
ENDCHAR
STARTCHAR Utilde
ENCODING 360
SWIDTH 716 0
DWIDTH 7 0
BBX 8 9 0 0
BITMAP
0078
0000
1B0D
9A1D
CD1C
0D28
1C34
1C70
1FD0
ENDCHAR
STARTCHAR utilde
ENCODING 361
SWIDTH 505 0
DWIDTH 5 0
BBX 6 7 0 0
BITMAP
2E40
0100
7340
A740
E700
DB10
B780
ENDCHAR
STARTCHAR Umacron
ENCODING 362
SWIDTH 716 0
DWIDTH 7 0
BBX 8 9 0 0
BITMAP
01A8
0000
1B0D
9A1D
CD1C
0D28
1C34
1C70
1FD0
ENDCHAR
STARTCHAR umacron
ENCODING 363
SWIDTH 505 0
DWIDTH 5 0
BBX 6 7 0 0
BITMAP
2A40
0000
7340
A740
E700
DB10
B780
ENDCHAR
STARTCHAR Ubreve
ENCODING 364
SWIDTH 716 0
DWIDTH 7 0
BBX 8 10 0 0
BITMAP
0044
00A4
0000
1B0D
9A1D
CD1C
0D28
1C34
1C70
1FD0
ENDCHAR
STARTCHAR ubreve
ENCODING 365
SWIDTH 505 0
DWIDTH 5 0
BBX 6 7 0 0
BITMAP
1A40
0000
7340
A740
E700
DB10
B780
ENDCHAR
STARTCHAR Uring
ENCODING 366
SWIDTH 716 0
DWIDTH 7 0
BBX 8 10 0 0
BITMAP
0010
0050
0000
1B0D
9A1D
CD1C
0D28
1C34
1C70
1FD0
ENDCHAR
STARTCHAR uring
ENCODING 367
SWIDTH 505 0
DWIDTH 5 0
BBX 6 7 0 0
BITMAP
0500
0500
7340
A740
E700
DB10
B780
ENDCHAR
STARTCHAR Uhungarumlaut
ENCODING 368
SWIDTH 716 0
DWIDTH 7 0
BBX 8 10 0 0
BITMAP
0025
0098
0000
1B0D
9A1D
CD1C
0D28
1C34
1C70
1FD0
ENDCHAR
STARTCHAR uhungarumlaut
ENCODING 369
SWIDTH 505 0
DWIDTH 5 0
BBX 6 7 0 0
BITMAP
0980
1600
7340
A740
E700
DB10
B780
ENDCHAR
STARTCHAR Uogonek
ENCODING 370
SWIDTH 716 0
DWIDTH 7 0
BBX 8 12 0 -2
BITMAP
0080
0090
0000
1B0D
9A1D
CD1C
0D28
1C34
1C70
1FD0
0500
0640
ENDCHAR
STARTCHAR uogonek
ENCODING 371
SWIDTH 505 0
DWIDTH 5 0
BBX 6 7 0 -2
BITMAP
7340
A740
E700
DB10
B740
0500
0640
ENDCHAR
STARTCHAR Wcircumflex
ENCODING 372
SWIDTH 962 0
DWIDTH 10 0
BBX 10 10 0 0
BITMAP
000600
001900
000000
1B0D20
971D20
C72D50
071D80
074E40
078F00
074E00
ENDCHAR
STARTCHAR wcircumflex
ENCODING 373
SWIDTH 661 0
DWIDTH 7 0
BBX 7 7 0 0
BITMAP
0180
0540
7364
A754
E720
DB20
BB80
ENDCHAR
STARTCHAR Ycircumflex
ENCODING 374
SWIDTH 620 0
DWIDTH 6 0
BBX 7 10 0 0
BITMAP
0020
0094
0000
1B08
9754
C3A0
02D0
02C0
0380
0340
ENDCHAR
STARTCHAR ycircumflex
ENCODING 375
SWIDTH 505 0
DWIDTH 5 0
BBX 5 9 0 -2
BITMAP
0600
1500
7340
A740
E700
DA40
BE40
6D00
7800
ENDCHAR
STARTCHAR Ydieresis
ENCODING 376
SWIDTH 620 0
DWIDTH 6 0
BBX 7 9 0 0
BITMAP
00D8
0000
1B08
9754
C3A0
02D0
02C0
0380
0340
ENDCHAR
STARTCHAR Zacute
ENCODING 377
SWIDTH 542 0
DWIDTH 5 0
BBX 6 10 0 0
BITMAP
0090
0080
0000
2AD0
1380
0700
0E00
2C00
3880
BA80
ENDCHAR
STARTCHAR zacute
ENCODING 378
SWIDTH 428 0
DWIDTH 4 0
BBX 4 7 0 0
BITMAP
02
04
6B
1D
28
35
BA
ENDCHAR
STARTCHAR Zdotaccent
ENCODING 379
SWIDTH 530 0
DWIDTH 5 0
BBX 6 9 0 0
BITMAP
0300
0000
2AD0
1380
0700
0E00
2C00
3880
BA80
ENDCHAR
STARTCHAR zdotaccent
ENCODING 380
SWIDTH 428 0
DWIDTH 4 0
BBX 4 7 0 0
BITMAP
09
00
6B
1D
28
35
BA
ENDCHAR
STARTCHAR Zcaron
ENCODING 381
SWIDTH 542 0
DWIDTH 5 0
BBX 6 10 0 0
BITMAP
0250
0140
0000
2AD0
1380
0700
0E00
2C00
3880
BA80
ENDCHAR
STARTCHAR zcaron
ENCODING 382
SWIDTH 428 0
DWIDTH 4 0
BBX 5 7 0 0
BITMAP
0A40
0400
6B00
1D00
2800
3500
BA00
ENDCHAR
STARTCHAR longs
ENCODING 383
SWIDTH 267 0
DWIDTH 3 0
BBX 6 9 -2 -2
BITMAP
02E0
0740
0B00
0B00
0E00
0D00
1C00
6C00
B400
ENDCHAR
STARTCHAR uni018F
ENCODING 399
SWIDTH 544 0
DWIDTH 5 0
BBX 6 7 0 0
BITMAP
2F80
26D0
01D0
0AD0
72C0
9740
7900
ENDCHAR
STARTCHAR florin
ENCODING 402
SWIDTH 267 0
DWIDTH 3 0
BBX 8 9 -3 -2
BITMAP
0029
00A4
02D4
02C0
0380
0340
0700
5A00
6800
ENDCHAR
STARTCHAR Ohorn
ENCODING 416
SWIDTH 665 0
DWIDTH 7 0
BBX 7 9 0 0
BITMAP
0004
0008
1AA8
6A34
9D28
2C34
3870
38E0
1E80
ENDCHAR
STARTCHAR ohorn
ENCODING 417
SWIDTH 439 0
DWIDTH 4 0
BBX 5 7 0 0
BITMAP
0040
0080
2A40
A200
D200
D900
B800
ENDCHAR
STARTCHAR Uhorn
ENCODING 431
SWIDTH 716 0
DWIDTH 7 0
BBX 9 9 0 0
BITMAP
000180
000140
1B0D00
9A1D00
CD1C00
0D2800
1C3400
1C7000
1F9000
ENDCHAR
STARTCHAR uhorn
ENCODING 432
SWIDTH 505 0
DWIDTH 5 0
BBX 6 7 0 0
BITMAP
0010
0090
7380
A740
E700
DB10
B780
ENDCHAR
STARTCHAR uni01B7
ENCODING 439
SWIDTH 555 0
DWIDTH 6 0
BBX 6 7 0 0
BITMAP
2AD0
1380
0A00
0780
02C0
9280
6A00
ENDCHAR
STARTCHAR uni01CD
ENCODING 461
SWIDTH 668 0
DWIDTH 7 0
BBX 8 11 0 -1
BITMAP
0016
0008
0000
0028
0238
6A74
9C70
18B0
34A0
30D0
3000
ENDCHAR
STARTCHAR uni01CE
ENCODING 462
SWIDTH 526 0
DWIDTH 5 0
BBX 6 7 0 0
BITMAP
0540
0100
2B80
A340
D340
D710
B780
ENDCHAR
STARTCHAR uni01CF
ENCODING 463
SWIDTH 375 0
DWIDTH 4 0
BBX 5 10 0 0
BITMAP
0580
0200
0000
1B00
9E00
CD00
1D00
2C00
2800
3400
ENDCHAR
STARTCHAR uni01D0
ENCODING 464
SWIDTH 267 0
DWIDTH 3 0
BBX 3 7 0 0
BITMAP
28
10
70
A0
E0
D4
B4
ENDCHAR
STARTCHAR uni01D1
ENCODING 465
SWIDTH 665 0
DWIDTH 7 0
BBX 7 10 0 0
BITMAP
0094
0050
0000
1AA0
6A34
9D28
2C34
3870
38E0
1E80
ENDCHAR
STARTCHAR uni01D2
ENCODING 466
SWIDTH 433 0
DWIDTH 4 0
BBX 7 7 -1 0
BITMAP
0290
0100
0A40
29D4
3480
7640
2E00
ENDCHAR
STARTCHAR uni01D3
ENCODING 467
SWIDTH 716 0
DWIDTH 7 0
BBX 8 10 0 0
BITMAP
0058
0020
0000
1B0D
9A1D
CD1C
0D28
1C34
1C70
1FD0
ENDCHAR
STARTCHAR uni01D4
ENCODING 468
SWIDTH 505 0
DWIDTH 5 0
BBX 6 7 0 0
BITMAP
0A40
0400
7340
A740
E700
DB10
B780
ENDCHAR
STARTCHAR uni01D5
ENCODING 469
SWIDTH 716 0
DWIDTH 7 0
BBX 8 10 0 0
BITMAP
00A8
008C
0000
1B0D
9A1D
CD1C
0D28
1C34
1C70
1FD0
ENDCHAR
STARTCHAR uni01D6
ENCODING 470
SWIDTH 505 0
DWIDTH 5 0
BBX 6 9 0 0
BITMAP
1A80
0000
2640
0000
7340
A740
E700
DB10
B780
ENDCHAR
STARTCHAR uni01D7
ENCODING 471
SWIDTH 716 0
DWIDTH 7 0
BBX 8 10 0 0
BITMAP
0024
0269
0000
1B0D
9A1D
CD1C
0D28
1C34
1C70
1FD0
ENDCHAR
STARTCHAR uni01D8
ENCODING 472
SWIDTH 505 0
DWIDTH 5 0
BBX 6 10 0 0
BITMAP
0140
0200
0100
2640
0000
7340
A740
E700
DB10
B780
ENDCHAR
STARTCHAR uni01D9
ENCODING 473
SWIDTH 716 0
DWIDTH 7 0
BBX 8 10 0 0
BITMAP
0044
02A9
0000
1B0D
9A1D
CD1C
0D28
1C34
1C70
1FD0
ENDCHAR
STARTCHAR uni01DA
ENCODING 474
SWIDTH 505 0
DWIDTH 5 0
BBX 6 9 0 0
BITMAP
0540
0600
2640
0000
7340
A740
E700
DB10
B780
ENDCHAR
STARTCHAR uni01DB
ENCODING 475
SWIDTH 716 0
DWIDTH 7 0
BBX 8 10 0 0
BITMAP
0010
0279
0010
1B0D
9A1D
CD1C
0D28
1C34
1C70
1FD0
ENDCHAR
STARTCHAR uni01DC
ENCODING 476
SWIDTH 505 0
DWIDTH 5 0
BBX 6 9 0 0
BITMAP
0C00
0800
2640
0000
7340
A740
E700
DB10
B780
ENDCHAR
STARTCHAR uni01E4
ENCODING 484
SWIDTH 601 0
DWIDTH 6 0
BBX 6 9 0 -2
BITMAP
1A90
3450
B040
A2E0
B1C0
2A80
2A80
6300
2900
ENDCHAR
STARTCHAR uni01E5
ENCODING 485
SWIDTH 507 0
DWIDTH 5 0
BBX 6 7 0 -2
BITMAP
2B80
A340
D740
DB10
BE00
6E00
6800
ENDCHAR
STARTCHAR Gcaron
ENCODING 486
SWIDTH 578 0
DWIDTH 6 0
BBX 6 12 0 -2
BITMAP
0160
0080
0000
1A90
3460
B000
A090
B1C0
2AC0
2A80
6340
2900
ENDCHAR
STARTCHAR gcaron
ENCODING 487
SWIDTH 507 0
DWIDTH 5 0
BBX 6 9 0 -2
BITMAP
0540
0100
2B80
A340
D740
DB10
BF40
1E00
6800
ENDCHAR
STARTCHAR uni01E8
ENCODING 488
SWIDTH 601 0
DWIDTH 6 0
BBX 7 11 0 0
BITMAP
0054
0060
0000
0000
1A24
8E80
4E80
1CD0
2CD0
29C0
35C0
ENDCHAR
STARTCHAR uni01E9
ENCODING 489
SWIDTH 518 0
DWIDTH 5 0
BBX 7 10 -1 0
BITMAP
0160
0080
0000
0900
1D00
1C90
2F80
39C0
35C4
71E0
ENDCHAR
STARTCHAR uni01EA
ENCODING 490
SWIDTH 665 0
DWIDTH 7 0
BBX 7 12 0 -2
BITMAP
0200
0240
0000
1AA0
6A34
9D28
2C34
3870
38E0
1E80
0800
0900
ENDCHAR
STARTCHAR uni01EB
ENCODING 491
SWIDTH 433 0
DWIDTH 4 0
BBX 7 7 -1 -2
BITMAP
0A40
29D4
3480
7640
2E00
2000
2800
ENDCHAR
STARTCHAR uni01EE
ENCODING 494
SWIDTH 525 0
DWIDTH 5 0
BBX 6 10 0 0
BITMAP
0290
0240
0000
2AD0
1380
0A00
0780
02C0
9280
6A00
ENDCHAR
STARTCHAR uni01EF
ENCODING 495
SWIDTH 600 0
DWIDTH 6 0
BBX 5 10 0 -2
BITMAP
0940
0900
0000
6E00
5C00
3400
2840
2D00
AC00
B400
ENDCHAR
STARTCHAR uni01F4
ENCODING 500
SWIDTH 578 0
DWIDTH 6 0
BBX 6 12 0 -2
BITMAP
0090
0080
0040
1A90
3450
B040
A0D0
B1C0
2AC0
2A80
6340
2900
ENDCHAR
STARTCHAR uni01F5
ENCODING 501
SWIDTH 507 0
DWIDTH 5 0
BBX 6 9 0 -2
BITMAP
0200
0500
2B80
A340
D740
DB10
BF40
1E00
6800
ENDCHAR
STARTCHAR Aringacute
ENCODING 506
SWIDTH 668 0
DWIDTH 7 0
BBX 8 11 0 -1
BITMAP
0006
0018
0028
0068
0238
6A74
9C70
18B0
34A0
30D0
3000
ENDCHAR
STARTCHAR aringacute
ENCODING 507
SWIDTH 526 0
DWIDTH 5 0
BBX 6 8 0 0
BITMAP
0240
0600
0500
2B80
A340
D340
D710
B780
ENDCHAR
STARTCHAR AEacute
ENCODING 508
SWIDTH 764 0
DWIDTH 8 0
BBX 9 11 0 -1
BITMAP
000200
000500
000000
006E80
027800
6A7400
DCBA00
68B000
34A000
30FE00
300000
ENDCHAR
STARTCHAR aeacute
ENCODING 509
SWIDTH 650 0
DWIDTH 7 0
BBX 7 7 0 0
BITMAP
0090
0040
2AA4
0760
6B90
DB04
B7D0
ENDCHAR
STARTCHAR Oslashacute
ENCODING 510
SWIDTH 658 0
DWIDTH 7 0
BBX 7 11 0 -1
BITMAP
0030
0050
0000
15E0
66B0
9D74
6974
3A70
3AD0
1F80
0500
ENDCHAR
STARTCHAR oslashacute
ENCODING 511
SWIDTH 428 0
DWIDTH 4 0
BBX 6 8 -1 -1
BITMAP
0080
0140
0A90
29C0
3A80
3A40
3E00
4000
ENDCHAR
STARTCHAR uni0200
ENCODING 512
SWIDTH 668 0
DWIDTH 7 0
BBX 7 11 0 -1
BITMAP
0094
0058
0000
0028
0238
6A74
9C70
18B0
34A0
30D0
3000
ENDCHAR
STARTCHAR uni0201
ENCODING 513
SWIDTH 526 0
DWIDTH 5 0
BBX 6 7 0 0
BITMAP
2600
1500
2B80
A340
D340
D710
B780
ENDCHAR
STARTCHAR uni0202
ENCODING 514
SWIDTH 668 0
DWIDTH 7 0
BBX 8 11 0 -1
BITMAP
0019
0052
0000
0028
0238
6A74
9C70
18B0
34A0
30D0
3000
ENDCHAR
STARTCHAR uni0203
ENCODING 515
SWIDTH 526 0
DWIDTH 5 0
BBX 6 7 0 0
BITMAP
1A40
1040
2B80
A340
D340
D710
B780
ENDCHAR
STARTCHAR uni0204
ENCODING 516
SWIDTH 459 0
DWIDTH 5 0
BBX 5 10 0 0
BITMAP
2600
0940
0000
0A80
2880
1C00
2800
B000
F040
7E00
ENDCHAR
STARTCHAR uni0205
ENCODING 517
SWIDTH 384 0
DWIDTH 4 0
BBX 4 7 0 0
BITMAP
98
25
2A
A5
E4
D1
B8
ENDCHAR
STARTCHAR uni0206
ENCODING 518
SWIDTH 459 0
DWIDTH 5 0
BBX 6 10 0 0
BITMAP
0690
0450
0000
0A80
2880
1C00
2800
B000
F040
7E00
ENDCHAR
STARTCHAR uni0207
ENCODING 519
SWIDTH 384 0
DWIDTH 4 0
BBX 4 7 0 0
BITMAP
2A
01
2A
A5
E4
D1
B8
ENDCHAR
STARTCHAR uni0208
ENCODING 520
SWIDTH 375 0
DWIDTH 4 0
BBX 4 10 0 0
BITMAP
26
16
00
1B
8E
8D
1D
2C
28
34
ENDCHAR
STARTCHAR uni0209
ENCODING 521
SWIDTH 267 0
DWIDTH 3 0
BBX 4 7 -1 0
BITMAP
98
25
1C
28
38
35
2D
ENDCHAR
STARTCHAR uni020A
ENCODING 522
SWIDTH 375 0
DWIDTH 4 0
BBX 5 10 0 0
BITMAP
0A40
1480
0000
1B00
9E00
CD00
1D00
2C00
2800
3400
ENDCHAR
STARTCHAR uni020B
ENCODING 523
SWIDTH 267 0
DWIDTH 3 0
BBX 3 7 0 0
BITMAP
68
44
70
A0
E0
D4
B4
ENDCHAR
STARTCHAR uni020C
ENCODING 524
SWIDTH 665 0
DWIDTH 7 0
BBX 7 10 0 0
BITMAP
0980
0250
0000
1AA0
6A34
9D28
2C34
3870
38E0
1E80
ENDCHAR
STARTCHAR uni020D
ENCODING 525
SWIDTH 433 0
DWIDTH 4 0
BBX 7 7 -1 0
BITMAP
2600
0940
0A40
29D4
3480
7640
2E00
ENDCHAR
STARTCHAR uni020E
ENCODING 526
SWIDTH 665 0
DWIDTH 7 0
BBX 7 10 0 0
BITMAP
01A0
0114
0000
1AA0
6A34
9D28
2C34
3870
38E0
1E80
ENDCHAR
STARTCHAR uni020F
ENCODING 527
SWIDTH 433 0
DWIDTH 4 0
BBX 7 7 -1 0
BITMAP
0A80
0440
0A40
29D4
3480
7640
2E00
ENDCHAR
STARTCHAR uni0210
ENCODING 528
SWIDTH 601 0
DWIDTH 6 0
BBX 6 10 0 0
BITMAP
1600
0840
0000
1A90
9A60
4EC0
1CD0
2CD0
29C0
35C0
ENDCHAR
STARTCHAR uni0211
ENCODING 529
SWIDTH 376 0
DWIDTH 4 0
BBX 5 7 -1 0
BITMAP
2600
1600
1E80
2840
3800
3400
7000
ENDCHAR
STARTCHAR uni0212
ENCODING 530
SWIDTH 601 0
DWIDTH 6 0
BBX 6 10 0 0
BITMAP
0690
0450
0000
1A90
9A60
4EC0
1CD0
2CD0
29C0
35C0
ENDCHAR
STARTCHAR uni0213
ENCODING 531
SWIDTH 376 0
DWIDTH 4 0
BBX 5 7 -1 0
BITMAP
0A80
0040
1E80
2840
3800
3400
7000
ENDCHAR
STARTCHAR uni0214
ENCODING 532
SWIDTH 716 0
DWIDTH 7 0
BBX 8 10 0 0
BITMAP
0260
0160
0000
1B0D
9A1D
CD1C
0D28
1C34
1C70
1FD0
ENDCHAR
STARTCHAR uni0215
ENCODING 533
SWIDTH 505 0
DWIDTH 5 0
BBX 6 7 0 0
BITMAP
6800
2100
7340
A740
E700
DB10
B780
ENDCHAR
STARTCHAR uni0216
ENCODING 534
SWIDTH 716 0
DWIDTH 7 0
BBX 8 10 0 0
BITMAP
0064
0148
0000
1B0D
9A1D
CD1C
0D28
1C34
1C70
1FD0
ENDCHAR
STARTCHAR uni0217
ENCODING 535
SWIDTH 505 0
DWIDTH 5 0
BBX 6 7 0 0
BITMAP
1A40
1000
7340
A740
E700
DB10
B780
ENDCHAR
STARTCHAR Scommaaccent
ENCODING 536
SWIDTH 570 0
DWIDTH 6 0
BBX 6 9 0 -2
BITMAP
0A90
1C90
1E00
0740
76C0
A1C0
2A40
0400
0800
ENDCHAR
STARTCHAR scommaaccent
ENCODING 537
SWIDTH 382 0
DWIDTH 4 0
BBX 5 8 -1 -2
BITMAP
0500
0B00
1B00
2700
6740
2D00
1400
1400
ENDCHAR
STARTCHAR uni021A
ENCODING 538
SWIDTH 481 0
DWIDTH 5 0
BBX 7 9 0 -2
BITMAP
2BFC
9740
C700
0A00
0E00
0D00
1C00
0400
0800
ENDCHAR
STARTCHAR uni021B
ENCODING 539
SWIDTH 267 0
DWIDTH 3 0
BBX 3 9 0 -2
BITMAP
14
74
B4
A0
E0
D4
B4
40
80
ENDCHAR
STARTCHAR uni021E
ENCODING 542
SWIDTH 665 0
DWIDTH 7 0
BBX 7 11 0 0
BITMAP
0054
0060
0000
0000
0B28
8E38
4EB4
1C70
1CB0
28A0
38D0
ENDCHAR
STARTCHAR uni021F
ENCODING 543
SWIDTH 600 0
DWIDTH 6 0
BBX 7 10 -1 0
BITMAP
00A4
0090
0000
0900
1D00
1EC0
2DD0
39C0
36C4
71E0
ENDCHAR
STARTCHAR uni0237
ENCODING 567
SWIDTH 240 0
DWIDTH 2 0
BBX 5 7 -2 -2
BITMAP
0700
0A00
0E00
0D40
1D00
AC00
B400
ENDCHAR
STARTCHAR uni0259
ENCODING 601
SWIDTH 404 0
DWIDTH 4 0
BBX 4 5 0 0
BITMAP
6D
0A
2E
9D
A4
ENDCHAR
STARTCHAR uni0292
ENCODING 658
SWIDTH 442 0
DWIDTH 4 0
BBX 5 7 0 -2
BITMAP
6E00
5C00
3400
2840
2D00
AC00
B400
ENDCHAR
STARTCHAR uni02BB
ENCODING 699
SWIDTH 241 0
DWIDTH 2 0
BBX 2 2 1 5
BITMAP
50
90
ENDCHAR
STARTCHAR uni02BC
ENCODING 700
SWIDTH 228 0
DWIDTH 2 0
BBX 2 2 1 6
BITMAP
60
50
ENDCHAR
STARTCHAR circumflex
ENCODING 710
SWIDTH 293 0
DWIDTH 3 0
BBX 3 2 0 6
BITMAP
14
58
ENDCHAR
STARTCHAR caron
ENCODING 711
SWIDTH 294 0
DWIDTH 3 0
BBX 3 2 1 6
BITMAP
94
90
ENDCHAR
STARTCHAR uni02C9
ENCODING 713
SWIDTH 421 0
DWIDTH 4 0
BBX 4 1 1 6
BITMAP
A9
ENDCHAR
STARTCHAR uni02CA
ENCODING 714
SWIDTH 256 0
DWIDTH 3 0
BBX 2 2 1 6
BITMAP
20
80
ENDCHAR
STARTCHAR uni02CB
ENCODING 715
SWIDTH 274 0
DWIDTH 3 0
BBX 2 2 1 6
BITMAP
60
20
ENDCHAR
STARTCHAR breve
ENCODING 728
SWIDTH 431 0
DWIDTH 4 0
BBX 3 2 1 5
BITMAP
44
A4
ENDCHAR
STARTCHAR dotaccent
ENCODING 729
SWIDTH 250 0
DWIDTH 3 0
BBX 2 2 0 6
BITMAP
60
70
ENDCHAR
STARTCHAR ring
ENCODING 730
SWIDTH 156 0
DWIDTH 2 0
BBX 2 2 0 5
BITMAP
50
50
ENDCHAR
STARTCHAR ogonek
ENCODING 731
SWIDTH 291 0
DWIDTH 3 0
BBX 3 3 0 -2
BITMAP
10
50
64
ENDCHAR
STARTCHAR tilde
ENCODING 732
SWIDTH 403 0
DWIDTH 4 0
BBX 3 1 1 6
BITMAP
78
ENDCHAR
STARTCHAR hungarumlaut
ENCODING 733
SWIDTH 436 0
DWIDTH 4 0
BBX 3 2 1 6
BITMAP
58
94
ENDCHAR
STARTCHAR gravecomb
ENCODING 768
SWIDTH 0 0
DWIDTH 0 0
BBX 2 2 -2 6
BITMAP
90
50
ENDCHAR
STARTCHAR acutecomb
ENCODING 769
SWIDTH 0 0
DWIDTH 0 0
BBX 2 2 -2 6
BITMAP
60
80
ENDCHAR
STARTCHAR uni0302
ENCODING 770
SWIDTH 0 0
DWIDTH 0 0
BBX 3 2 -3 6
BITMAP
18
68
ENDCHAR
STARTCHAR tildecomb
ENCODING 771
SWIDTH 0 0
DWIDTH 0 0
BBX 3 1 -3 6
BITMAP
B8
ENDCHAR
STARTCHAR uni0304
ENCODING 772
SWIDTH 0 0
DWIDTH 0 0
BBX 4 1 -3 6
BITMAP
A9
ENDCHAR
STARTCHAR uni0306
ENCODING 774
SWIDTH 0 0
DWIDTH 0 0
BBX 4 2 -3 5
BITMAP
45
A4
ENDCHAR
STARTCHAR uni0307
ENCODING 775
SWIDTH 0 0
DWIDTH 0 0
BBX 2 2 -1 6
BITMAP
80
D0
ENDCHAR
STARTCHAR uni0308
ENCODING 776
SWIDTH 0 0
DWIDTH 0 0
BBX 3 1 -3 6
BITMAP
58
ENDCHAR
STARTCHAR hookabovecomb
ENCODING 777
SWIDTH 0 0
DWIDTH 0 0
BBX 2 2 -2 5
BITMAP
50
90
ENDCHAR
STARTCHAR uni030A
ENCODING 778
SWIDTH 0 0
DWIDTH 0 0
BBX 1 2 -1 5
BITMAP
80
80
ENDCHAR
STARTCHAR uni030B
ENCODING 779
SWIDTH 0 0
DWIDTH 0 0
BBX 4 2 -3 6
BITMAP
69
98
ENDCHAR
STARTCHAR uni030C
ENCODING 780
SWIDTH 0 0
DWIDTH 0 0
BBX 3 2 -3 6
BITMAP
58
20
ENDCHAR
STARTCHAR uni030F
ENCODING 783
SWIDTH 0 0
DWIDTH 0 0
BBX 3 2 -3 6
BITMAP
94
58
ENDCHAR
STARTCHAR uni0311
ENCODING 785
SWIDTH 0 0
DWIDTH 0 0
BBX 4 2 -4 5
BITMAP
1A
51
ENDCHAR
STARTCHAR uni031B
ENCODING 795
SWIDTH 0 0
DWIDTH 0 0
BBX 2 2 -1 5
BITMAP
90
80
ENDCHAR
STARTCHAR dotbelowcomb
ENCODING 803
SWIDTH 0 0
DWIDTH 0 0
BBX 2 2 -2 -2
BITMAP
90
A0
ENDCHAR
STARTCHAR uni0324
ENCODING 804
SWIDTH 0 0
DWIDTH 0 0
BBX 4 1 -5 -2
BITMAP
55
ENDCHAR
STARTCHAR uni0326
ENCODING 806
SWIDTH 0 0
DWIDTH 0 0
BBX 2 2 -3 -3
BITMAP
60
10
ENDCHAR
STARTCHAR uni0327
ENCODING 807
SWIDTH 0 0
DWIDTH 0 0
BBX 3 3 -4 -2
BITMAP
20
18
64
ENDCHAR
STARTCHAR uni0328
ENCODING 808
SWIDTH 0 0
DWIDTH 0 0
BBX 3 3 -4 -2
BITMAP
10
50
64
ENDCHAR
STARTCHAR uni032E
ENCODING 814
SWIDTH 0 0
DWIDTH 0 0
BBX 3 2 -4 -2
BITMAP
44
94
ENDCHAR
STARTCHAR uni0331
ENCODING 817
SWIDTH 0 0
DWIDTH 0 0
BBX 4 1 -5 -2
BITMAP
6A
ENDCHAR
STARTCHAR uni0335
ENCODING 821
SWIDTH 0 0
DWIDTH 0 0
BBX 4 1 -4 2
BITMAP
55
ENDCHAR
STARTCHAR uni0394
ENCODING 916
SWIDTH 619 0
DWIDTH 6 0
BBX 6 8 0 0
BITMAP
0080
02D0
0690
0860
1860
2070
9030
AAB0
ENDCHAR
STARTCHAR uni03A9
ENCODING 937
SWIDTH 745 0
DWIDTH 7 0
BBX 7 8 0 0
BITMAP
02E4
0918
240C
300C
2018
2024
1450
A8E4
ENDCHAR
STARTCHAR uni03BC
ENCODING 956
SWIDTH 505 0
DWIDTH 5 0
BBX 7 7 -1 -2
BITMAP
1CD0
29D0
39C0
36D4
79E0
B000
5000
ENDCHAR
STARTCHAR pi
ENCODING 960
SWIDTH 530 0
DWIDTH 5 0
BBX 6 5 0 0
BITMAP
BB90
6200
9200
8600
8500
ENDCHAR
STARTCHAR uni0400
ENCODING 1024
SWIDTH 459 0
DWIDTH 5 0
BBX 5 10 0 0
BITMAP
0200
0200
0000
0A80
2880
1C00
2800
B000
F040
7E00
ENDCHAR
STARTCHAR uni0401
ENCODING 1025
SWIDTH 459 0
DWIDTH 5 0
BBX 5 9 0 0
BITMAP
0580
0000
0A80
2880
1C00
2800
B000
F040
7E00
ENDCHAR
STARTCHAR uni0402
ENCODING 1026
SWIDTH 725 0
DWIDTH 7 0
BBX 7 9 0 -2
BITMAP
2BFC
9340
47A4
0A38
0A34
0D34
1C70
00D0
0780
ENDCHAR
STARTCHAR uni0403
ENCODING 1027
SWIDTH 400 0
DWIDTH 4 0
BBX 7 10 0 0
BITMAP
0020
0080
0000
2BF4
9A00
9D00
1D00
1C00
2800
3800
ENDCHAR
STARTCHAR uni0404
ENCODING 1028
SWIDTH 497 0
DWIDTH 5 0
BBX 5 7 0 0
BITMAP
0A80
2840
7A00
B000
B000
B040
7E00
ENDCHAR
STARTCHAR uni0405
ENCODING 1029
SWIDTH 570 0
DWIDTH 6 0
BBX 6 7 0 0
BITMAP
0A90
1C90
1E00
0740
76C0
A1C0
2A40
ENDCHAR
STARTCHAR uni0406
ENCODING 1030
SWIDTH 374 0
DWIDTH 4 0
BBX 4 7 0 0
BITMAP
1B
5A
8D
1D
1C
28
38
ENDCHAR
STARTCHAR uni0407
ENCODING 1031
SWIDTH 375 0
DWIDTH 4 0
BBX 5 9 0 0
BITMAP
0880
0000
1B00
9E00
CD00
1D00
2C00
2800
3400
ENDCHAR
STARTCHAR uni0408
ENCODING 1032
SWIDTH 536 0
DWIDTH 5 0
BBX 6 9 0 -2
BITMAP
01A0
09D0
09D0
01C0
0280
0380
6740
9B00
6800
ENDCHAR
STARTCHAR uni0409
ENCODING 1033
SWIDTH 817 0
DWIDTH 8 0
BBX 9 8 -1 -1
BITMAP
007800
017400
067A40
0C7280
28A280
34E340
70EE00
300000
ENDCHAR
STARTCHAR uni040A
ENCODING 1034
SWIDTH 931 0
DWIDTH 9 0
BBX 9 7 0 0
BITMAP
1B2800
9A3400
4EBA40
1C72C0
1CA2C0
28A280
38EE00
ENDCHAR
STARTCHAR uni040B
ENCODING 1035
SWIDTH 745 0
DWIDTH 7 0
BBX 7 7 0 0
BITMAP
2BFC
9340
47A4
0A38
0A34
0D74
1C74
ENDCHAR
STARTCHAR uni040C
ENCODING 1036
SWIDTH 635 0
DWIDTH 6 0
BBX 7 10 0 0
BITMAP
0020
0050
0000
1B78
9A84
4E80
1CD0
1CD0
29C0
39C0
ENDCHAR
STARTCHAR uni040D
ENCODING 1037
SWIDTH 705 0
DWIDTH 7 0
BBX 8 10 0 0
BITMAP
0080
0050
0000
1B1D
5A3C
8DB8
1DB8
1E74
2D70
38B0
ENDCHAR
STARTCHAR uni040E
ENCODING 1038
SWIDTH 644 0
DWIDTH 6 0
BBX 7 10 0 0
BITMAP
0184
00A0
0000
1B08
9754
83A0
02E0
01C0
0580
0A00
ENDCHAR
STARTCHAR uni040F
ENCODING 1039
SWIDTH 665 0
DWIDTH 7 0
BBX 7 10 0 -3
BITMAP
1B28
9A38
8D34
1D70
1CB0
28A0
3ED0
0800
0A00
0600
ENDCHAR
STARTCHAR uni0410
ENCODING 1040
SWIDTH 668 0
DWIDTH 7 0
BBX 7 8 0 -1
BITMAP
0028
0238
6A74
9C70
18B0
34A0
30D0
3000
ENDCHAR
STARTCHAR uni0411
ENCODING 1041
SWIDTH 638 0
DWIDTH 6 0
BBX 7 7 0 0
BITMAP
6FF4
CE00
4E90
1CA0
28B0
28A0
3B80
ENDCHAR
STARTCHAR uni0412
ENCODING 1042
SWIDTH 641 0
DWIDTH 6 0
BBX 6 7 0 0
BITMAP
1A90
9A60
8ED0
1C70
1C70
28A0
3BC0
ENDCHAR
STARTCHAR uni0413
ENCODING 1043
SWIDTH 400 0
DWIDTH 4 0
BBX 7 7 0 0
BITMAP
2BF4
9A00
9D00
1D00
1C00
2800
3800
ENDCHAR
STARTCHAR uni0414
ENCODING 1044
SWIDTH 669 0
DWIDTH 7 0
BBX 8 7 -1 0
BITMAP
06A4
268D
234D
074D
1B1D
5A28
2DE0
ENDCHAR
STARTCHAR uni0415
ENCODING 1045
SWIDTH 459 0
DWIDTH 5 0
BBX 5 7 0 0
BITMAP
0A80
2880
1C00
2800
B000
F040
7E00
ENDCHAR
STARTCHAR uni0416
ENCODING 1046
SWIDTH 777 0
DWIDTH 8 0
BBX 8 7 0 0
BITMAP
389B
19E5
06E0
2BA8
735C
A768
D728
ENDCHAR
STARTCHAR uni0417
ENCODING 1047
SWIDTH 525 0
DWIDTH 5 0
BBX 5 7 0 0
BITMAP
1B80
0280
1F00
0380
4380
C740
A900
ENDCHAR
STARTCHAR uni0418
ENCODING 1048
SWIDTH 705 0
DWIDTH 7 0
BBX 8 7 0 0
BITMAP
1B1D
5A3C
8DB8
1DB8
1E74
2D70
38B0
ENDCHAR
STARTCHAR uni0419
ENCODING 1049
SWIDTH 705 0
DWIDTH 7 0
BBX 8 10 0 0
BITMAP
0184
01A0
0000
1B1D
5A3C
8DB8
1DB8
1E74
2D70
38B0
ENDCHAR
STARTCHAR uni041A
ENCODING 1050
SWIDTH 635 0
DWIDTH 6 0
BBX 7 7 0 0
BITMAP
1B78
9A84
4E80
1CD0
1CD0
29C0
39C0
ENDCHAR
STARTCHAR uni041B
ENCODING 1051
SWIDTH 549 0
DWIDTH 5 0
BBX 7 8 -1 -1
BITMAP
0078
0174
0674
0D70
28A0
34E0
70D0
3000
ENDCHAR
STARTCHAR uni041C
ENCODING 1052
SWIDTH 787 0
DWIDTH 8 0
BBX 8 7 0 0
BITMAP
078B
278E
6B9E
1B6E
179D
23DD
239C
ENDCHAR
STARTCHAR uni041D
ENCODING 1053
SWIDTH 665 0
DWIDTH 7 0
BBX 7 7 0 0
BITMAP
0B28
8E38
4EB4
1C70
1CB0
28A0
38D0
ENDCHAR
STARTCHAR uni041E
ENCODING 1054
SWIDTH 665 0
DWIDTH 7 0
BBX 7 7 0 0
BITMAP
1AA0
6A34
9D28
2C34
3870
38E0
1E80
ENDCHAR
STARTCHAR uni041F
ENCODING 1055
SWIDTH 688 0
DWIDTH 7 0
BBX 8 7 0 0
BITMAP
2BFE
9A38
8D34
1D70
1CB0
28A0
38D0
ENDCHAR
STARTCHAR uni0420
ENCODING 1056
SWIDTH 573 0
DWIDTH 6 0
BBX 6 7 0 0
BITMAP
1690
9A70
CD60
1D90
1D00
2800
3400
ENDCHAR
STARTCHAR uni0421
ENCODING 1057
SWIDTH 497 0
DWIDTH 5 0
BBX 6 7 0 0
BITMAP
0A80
2890
7400
B000
B000
B040
7E40
ENDCHAR
STARTCHAR uni0422
ENCODING 1058
SWIDTH 481 0
DWIDTH 5 0
BBX 7 7 0 0
BITMAP
2BFC
9740
C700
0A00
0E00
0D00
1C00
ENDCHAR
STARTCHAR uni0423
ENCODING 1059
SWIDTH 644 0
DWIDTH 6 0
BBX 7 7 0 0
BITMAP
1B08
9754
83A0
02E0
01C0
0580
0A00
ENDCHAR
STARTCHAR uni0424
ENCODING 1060
SWIDTH 786 0
DWIDTH 8 0
BBX 8 8 0 0
BITMAP
0990
25D0
16E8
628D
A38D
A35C
2BA0
0B00
ENDCHAR
STARTCHAR uni0425
ENCODING 1061
SWIDTH 620 0
DWIDTH 6 0
BBX 6 7 0 0
BITMAP
1B20
9790
C380
0380
03C0
09D0
15D0
ENDCHAR
STARTCHAR uni0426
ENCODING 1062
SWIDTH 692 0
DWIDTH 7 0
BBX 7 8 0 -1
BITMAP
1B28
9A38
8D34
1D70
1CB0
28A0
3ED0
01BC
ENDCHAR
STARTCHAR uni0427
ENCODING 1063
SWIDTH 695 0
DWIDTH 7 0
BBX 7 7 0 0
BITMAP
1B1C
9A2C
8D28
0FB4
0574
0070
00A0
ENDCHAR
STARTCHAR uni0428
ENCODING 1064
SWIDTH 906 0
DWIDTH 9 0
BBX 10 7 0 0
BITMAP
1B39D0
9A35C0
8D7280
1DB380
1CA340
28D700
3EEF00
ENDCHAR
STARTCHAR uni0429
ENCODING 1065
SWIDTH 934 0
DWIDTH 9 0
BBX 10 9 0 -2
BITMAP
1B39D0
5A35C0
8D7280
1DB380
1CE340
28D700
3EDA00
016FD0
000040
ENDCHAR
STARTCHAR uni042A
ENCODING 1066
SWIDTH 714 0
DWIDTH 7 0
BBX 7 7 0 0
BITMAP
2B80
9340
97A0
0728
0A28
0E34
0DE0
ENDCHAR
STARTCHAR uni042B
ENCODING 1067
SWIDTH 909 0
DWIDTH 9 0
BBX 10 7 0 0
BITMAP
1B01D0
9A01C0
4E9280
1C7380
1C7340
28A700
3BCB00
ENDCHAR
STARTCHAR uni042C
ENCODING 1068
SWIDTH 640 0
DWIDTH 6 0
BBX 6 7 0 0
BITMAP
1B00
9A00
4E90
1C70
1C70
28A0
3BC0
ENDCHAR
STARTCHAR uni042D
ENCODING 1069
SWIDTH 544 0
DWIDTH 5 0
BBX 6 7 0 0
BITMAP
1B80
01D0
1AD0
02D0
43C0
C740
A900
ENDCHAR
STARTCHAR uni042E
ENCODING 1070
SWIDTH 946 0
DWIDTH 9 0
BBX 10 7 0 0
BITMAP
1B1A80
9A34D0
4EF0D0
1CE0D0
1CD1C0
28D340
38B900
ENDCHAR
STARTCHAR uni042F
ENCODING 1071
SWIDTH 630 0
DWIDTH 6 0
BBX 7 7 0 0
BITMAP
0AA4
25DC
26C0
2B80
7340
A740
D700
ENDCHAR
STARTCHAR uni0430
ENCODING 1072
SWIDTH 526 0
DWIDTH 5 0
BBX 6 5 0 0
BITMAP
2B80
A340
D340
D710
B780
ENDCHAR
STARTCHAR uni0431
ENCODING 1073
SWIDTH 430 0
DWIDTH 4 0
BBX 6 7 0 0
BITMAP
1FD0
0900
2A00
B200
D200
D500
B800
ENDCHAR
STARTCHAR uni0432
ENCODING 1074
SWIDTH 449 0
DWIDTH 4 0
BBX 5 7 0 0
BITMAP
1A00
3600
7200
AA40
D300
D600
B800
ENDCHAR
STARTCHAR uni0433
ENCODING 1075
SWIDTH 375 0
DWIDTH 4 0
BBX 4 5 0 0
BITMAP
7D
5D
78
D1
F8
ENDCHAR
STARTCHAR uni0434
ENCODING 1076
SWIDTH 507 0
DWIDTH 5 0
BBX 6 7 0 -2
BITMAP
2B80
A340
D740
DB10
BF40
1E00
6800
ENDCHAR
STARTCHAR uni0435
ENCODING 1077
SWIDTH 384 0
DWIDTH 4 0
BBX 4 5 0 0
BITMAP
2A
A5
E4
D1
B8
ENDCHAR
STARTCHAR uni0436
ENCODING 1078
SWIDTH 882 0
DWIDTH 9 0
BBX 10 5 -1 0
BITMAP
1A3590
137710
07BA00
16AA10
68E790
ENDCHAR
STARTCHAR uni0437
ENCODING 1079
SWIDTH 498 0
DWIDTH 5 0
BBX 6 7 0 -2
BITMAP
2E00
5740
4B00
2C50
0E40
6D00
6800
ENDCHAR
STARTCHAR uni0438
ENCODING 1080
SWIDTH 505 0
DWIDTH 5 0
BBX 6 5 0 0
BITMAP
7340
A740
E700
DB10
B780
ENDCHAR
STARTCHAR uni0439
ENCODING 1081
SWIDTH 505 0
DWIDTH 5 0
BBX 6 7 0 0
BITMAP
1440
1900
7340
A740
E700
DB10
B780
ENDCHAR
STARTCHAR uni043A
ENCODING 1082
SWIDTH 501 0
DWIDTH 5 0
BBX 7 5 -1 0
BITMAP
1CA0
2E00
3A80
3684
71E0
ENDCHAR
STARTCHAR uni043B
ENCODING 1083
SWIDTH 558 0
DWIDTH 6 0
BBX 7 5 -1 0
BITMAP
01B0
02A0
05A0
64D4
28B4
ENDCHAR
STARTCHAR uni043C
ENCODING 1084
SWIDTH 827 0
DWIDTH 8 0
BBX 10 5 -1 0
BITMAP
01C380
02DB40
05DB40
64E710
28E380
ENDCHAR
STARTCHAR uni043D
ENCODING 1085
SWIDTH 507 0
DWIDTH 5 0
BBX 7 5 -1 0
BITMAP
1CD0
28D0
3EC0
35C4
75E0
ENDCHAR
STARTCHAR uni043E
ENCODING 1086
SWIDTH 439 0
DWIDTH 4 0
BBX 6 5 0 0
BITMAP
2A00
B350
D200
D500
B800
ENDCHAR
STARTCHAR uni043F
ENCODING 1087
SWIDTH 505 0
DWIDTH 5 0
BBX 7 5 -1 0
BITMAP
1EC0
2DD0
39C0
36C4
71E0
ENDCHAR
STARTCHAR uni0440
ENCODING 1088
SWIDTH 468 0
DWIDTH 5 0
BBX 6 9 -1 -3
BITMAP
0800
1ED0
28D0
38D0
35C0
7F40
B000
A000
4000
ENDCHAR
STARTCHAR uni0441
ENCODING 1089
SWIDTH 384 0
DWIDTH 4 0
BBX 4 5 0 0
BITMAP
29
A1
D0
D1
B8
ENDCHAR
STARTCHAR uni0442
ENCODING 1090
SWIDTH 752 0
DWIDTH 8 0
BBX 9 5 -1 0
BITMAP
1EDE00
2DDA00
39CE00
36CD40
728B40
ENDCHAR
STARTCHAR uni0443
ENCODING 1091
SWIDTH 486 0
DWIDTH 5 0
BBX 5 7 0 -2
BITMAP
7340
A740
E700
DA40
BE40
6D00
7800
ENDCHAR
STARTCHAR uni0444
ENCODING 1092
SWIDTH 738 0
DWIDTH 7 0
BBX 7 10 0 -3
BITMAP
0180
0280
2BA8
A35C
D72C
DB38
BFE0
0D00
0D00
0400
ENDCHAR
STARTCHAR uni0445
ENCODING 1093
SWIDTH 522 0
DWIDTH 5 0
BBX 6 6 0 0
BITMAP
0080
2D80
4E40
4A00
1A10
5780
ENDCHAR
STARTCHAR uni0446
ENCODING 1094
SWIDTH 535 0
DWIDTH 5 0
BBX 5 7 0 -2
BITMAP
7340
A740
E700
DB00
BB80
2F40
1400
ENDCHAR
STARTCHAR uni0447
ENCODING 1095
SWIDTH 505 0
DWIDTH 5 0
BBX 6 5 0 0
BITMAP
7340
A740
BB00
1B50
0780
ENDCHAR
STARTCHAR uni0448
ENCODING 1096
SWIDTH 752 0
DWIDTH 8 0
BBX 8 5 0 0
BITMAP
735C
A768
E738
DB75
B7AD
ENDCHAR
STARTCHAR uni0449
ENCODING 1097
SWIDTH 782 0
DWIDTH 8 0
BBX 7 7 0 -2
BITMAP
735C
A768
E738
DB74
B7BC
01F8
0250
ENDCHAR
STARTCHAR uni044A
ENCODING 1098
SWIDTH 448 0
DWIDTH 4 0
BBX 4 5 0 0
BITMAP
A8
7A
A7
DB
B8
ENDCHAR
STARTCHAR uni044B
ENCODING 1099
SWIDTH 655 0
DWIDTH 7 0
BBX 7 5 0 0
BITMAP
70B0
AAA0
E6E0
D9D4
B8B4
ENDCHAR
STARTCHAR uni044C
ENCODING 1100
SWIDTH 448 0
DWIDTH 4 0
BBX 4 5 0 0
BITMAP
70
B9
E7
D7
B9
ENDCHAR
STARTCHAR uni044D
ENCODING 1101
SWIDTH 413 0
DWIDTH 4 0
BBX 5 5 -1 0
BITMAP
1B40
1280
0B80
5740
6900
ENDCHAR
STARTCHAR uni044E
ENCODING 1102
SWIDTH 675 0
DWIDTH 7 0
BBX 9 5 -1 0
BITMAP
1C6800
2DD940
3EC800
368800
75E400
ENDCHAR
STARTCHAR uni044F
ENCODING 1103
SWIDTH 527 0
DWIDTH 5 0
BBX 7 5 -1 0
BITMAP
0AE0
1CD0
0AD0
69C4
68E0
ENDCHAR
STARTCHAR uni0450
ENCODING 1104
SWIDTH 384 0
DWIDTH 4 0
BBX 4 8 0 0
BITMAP
18
08
00
2A
A5
E4
D1
B8
ENDCHAR
STARTCHAR uni0451
ENCODING 1105
SWIDTH 384 0
DWIDTH 4 0
BBX 4 7 0 0
BITMAP
16
00
2A
A5
E4
D1
B8
ENDCHAR
STARTCHAR uni0452
ENCODING 1106
SWIDTH 491 0
DWIDTH 5 0
BBX 6 9 -1 -2
BITMAP
0D00
2E40
1E80
29C0
39C0
3690
7780
1B40
1A00
ENDCHAR
STARTCHAR uni0453
ENCODING 1107
SWIDTH 375 0
DWIDTH 4 0
BBX 4 8 0 0
BITMAP
06
08
00
7D
5D
78
D1
F8
ENDCHAR
STARTCHAR uni0454
ENCODING 1108
SWIDTH 384 0
DWIDTH 4 0
BBX 4 5 0 0
BITMAP
29
B1
E4
D1
B9
ENDCHAR
STARTCHAR uni0455
ENCODING 1109
SWIDTH 382 0
DWIDTH 4 0
BBX 5 6 -1 0
BITMAP
0500
0B00
1B00
2700
6740
2D00
ENDCHAR
STARTCHAR uni0456
ENCODING 1110
SWIDTH 267 0
DWIDTH 3 0
BBX 3 7 0 0
BITMAP
34
10
70
A0
E0
D4
B4
ENDCHAR
STARTCHAR uni0457
ENCODING 1111
SWIDTH 267 0
DWIDTH 3 0
BBX 3 7 0 0
BITMAP
9C
00
70
A0
E0
D4
B4
ENDCHAR
STARTCHAR uni0458
ENCODING 1112
SWIDTH 240 0
DWIDTH 2 0
BBX 5 9 -2 -2
BITMAP
0340
0100
0700
0A00
0E00
0D40
1D00
AC00
B400
ENDCHAR
STARTCHAR uni0459
ENCODING 1113
SWIDTH 745 0
DWIDTH 7 0
BBX 8 5 -1 0
BITMAP
01B0
02B9
05A7
68DB
68B9
ENDCHAR
STARTCHAR uni045A
ENCODING 1114
SWIDTH 694 0
DWIDTH 7 0
BBX 8 5 -1 0
BITMAP
1CD0
28E4
3EDD
35CD
75F8
ENDCHAR
STARTCHAR uni045B
ENCODING 1115
SWIDTH 505 0
DWIDTH 5 0
BBX 7 7 -1 0
BITMAP
0D00
2E40
1C00
2E80
39C0
35C4
75E0
ENDCHAR
STARTCHAR uni045C
ENCODING 1116
SWIDTH 501 0
DWIDTH 5 0
BBX 7 8 -1 0
BITMAP
0090
0140
0000
1CA0
2E00
3A80
3684
71E0
ENDCHAR
STARTCHAR uni045D
ENCODING 1117
SWIDTH 505 0
DWIDTH 5 0
BBX 6 8 0 0
BITMAP
0800
0800
0000
7340
A740
E700
DB10
B780
ENDCHAR
STARTCHAR uni045E
ENCODING 1118
SWIDTH 486 0
DWIDTH 5 0
BBX 5 9 0 -2
BITMAP
1440
1900
7340
A740
E700
DA40
BE40
6D00
7800
ENDCHAR
STARTCHAR uni045F
ENCODING 1119
SWIDTH 505 0
DWIDTH 5 0
BBX 6 7 0 -2
BITMAP
7340
A740
E700
DB10
B780
1400
1800
ENDCHAR
STARTCHAR uni0462
ENCODING 1122
SWIDTH 659 0
DWIDTH 7 0
BBX 6 7 0 0
BITMAP
0A00
6FF0
9E90
1CA0
28B0
28A0
3B80
ENDCHAR
STARTCHAR uni0463
ENCODING 1123
SWIDTH 692 0
DWIDTH 7 0
BBX 8 5 -1 0
BITMAP
1EC0
2DE8
39CD
36CD
71F4
ENDCHAR
STARTCHAR uni046A
ENCODING 1130
SWIDTH 834 0
DWIDTH 8 0
BBX 8 7 0 0
BITMAP
1BE9
62D4
1AF9
1CDA
29CA
35CD
728D
ENDCHAR
STARTCHAR uni046B
ENCODING 1131
SWIDTH 750 0
DWIDTH 8 0
BBX 7 5 0 0
BITMAP
1B60
6390
1BE4
3774
7774
ENDCHAR
STARTCHAR uni0472
ENCODING 1138
SWIDTH 665 0
DWIDTH 7 0
BBX 7 7 0 0
BITMAP
1AA0
6A24
9D28
2EB4
3870
38E0
1E80
ENDCHAR
STARTCHAR uni0473
ENCODING 1139
SWIDTH 439 0
DWIDTH 4 0
BBX 6 5 0 0
BITMAP
2A00
A350
EA00
D900
B800
ENDCHAR
STARTCHAR uni0474
ENCODING 1140
SWIDTH 668 0
DWIDTH 7 0
BBX 7 7 0 0
BITMAP
1B18
9724
C760
0750
0780
0780
0740
ENDCHAR
STARTCHAR uni0475
ENCODING 1141
SWIDTH 414 0
DWIDTH 4 0
BBX 4 5 0 0
BITMAP
76
A2
E2
D9
B4
ENDCHAR
STARTCHAR uni0490
ENCODING 1168
SWIDTH 431 0
DWIDTH 4 0
BBX 7 8 0 0
BITMAP
0014
2FF4
9A00
CD00
5C00
2C00
2800
3400
ENDCHAR
STARTCHAR uni0491
ENCODING 1169
SWIDTH 342 0
DWIDTH 3 0
BBX 5 6 -1 0
BITMAP
0080
1E40
2800
3800
3400
7000
ENDCHAR
STARTCHAR uni0492
ENCODING 1170
SWIDTH 400 0
DWIDTH 4 0
BBX 7 7 0 0
BITMAP
2FF4
9A00
9D00
2E00
1C00
2800
3800
ENDCHAR
STARTCHAR uni0493
ENCODING 1171
SWIDTH 375 0
DWIDTH 4 0
BBX 4 5 0 0
BITMAP
7D
5D
B9
D1
B8
ENDCHAR
STARTCHAR uni0494
ENCODING 1172
SWIDTH 665 0
DWIDTH 7 0
BBX 7 7 0 0
BITMAP
2FF4
9A00
8E90
1C70
1C70
28A0
3B80
ENDCHAR
STARTCHAR uni0495
ENCODING 1173
SWIDTH 486 0
DWIDTH 5 0
BBX 6 7 -1 -2
BITMAP
1FD0
2E80
3AC0
3690
7780
1B40
1E00
ENDCHAR
STARTCHAR uni0496
ENCODING 1174
SWIDTH 777 0
DWIDTH 8 0
BBX 8 10 0 -3
BITMAP
389B
19E5
06E0
2BA8
735C
A768
D728
0030
0028
0014
ENDCHAR
STARTCHAR uni0497
ENCODING 1175
SWIDTH 882 0
DWIDTH 9 0
BBX 10 7 -1 -2
BITMAP
1A3590
137710
07BA00
16AA10
68E790
000240
000240
ENDCHAR
STARTCHAR uni0498
ENCODING 1176
SWIDTH 525 0
DWIDTH 5 0
BBX 5 10 0 -3
BITMAP
1B80
0280
1F00
0380
4380
C740
A900
2400
1C00
0800
ENDCHAR
STARTCHAR uni0499
ENCODING 1177
SWIDTH 498 0
DWIDTH 5 0
BBX 6 9 0 -4
BITMAP
2E00
5740
4B00
2C50
0E40
6D00
6800
2000
3000
ENDCHAR
STARTCHAR uni049A
ENCODING 1178
SWIDTH 635 0
DWIDTH 6 0
BBX 7 10 0 -3
BITMAP
1B28
5A94
8F40
5E90
1CD0
28D0
39C0
0180
00D0
0080
ENDCHAR
STARTCHAR uni049B
ENCODING 1179
SWIDTH 501 0
DWIDTH 5 0
BBX 7 7 -1 -2
BITMAP
1CA0
2E00
3A80
3694
71E0
0080
00C0
ENDCHAR
STARTCHAR uni049C
ENCODING 1180
SWIDTH 721 0
DWIDTH 7 0
BBX 8 7 0 0
BITMAP
1B1E
9A64
8FD0
1D70
1CB0
28A0
38A0
ENDCHAR
STARTCHAR uni049D
ENCODING 1181
SWIDTH 551 0
DWIDTH 6 0
BBX 7 5 -1 0
BITMAP
1C74
2A40
3ED0
38D4
74F4
ENDCHAR
STARTCHAR uni04A0
ENCODING 1184
SWIDTH 691 0
DWIDTH 7 0
BBX 8 7 0 0
BITMAP
2B6D
9794
87A0
0A70
0D70
0DA0
1CA0
ENDCHAR
STARTCHAR uni04A1
ENCODING 1185
SWIDTH 676 0
DWIDTH 7 0
BBX 7 5 0 0
BITMAP
6E64
CE90
4EE0
1CA4
2CB4
ENDCHAR
STARTCHAR uni04A2
ENCODING 1186
SWIDTH 665 0
DWIDTH 7 0
BBX 7 8 0 -1
BITMAP
1B28
9A38
4EB4
1C70
1CB0
28A0
38E0
003C
ENDCHAR
STARTCHAR uni04A3
ENCODING 1187
SWIDTH 507 0
DWIDTH 5 0
BBX 7 7 -1 -2
BITMAP
1CD0
28D0
3EC0
35C4
75E0
0080
00C0
ENDCHAR
STARTCHAR uni04A4
ENCODING 1188
SWIDTH 689 0
DWIDTH 7 0
BBX 9 7 0 0
BITMAP
1B2FC0
9A3800
4EB400
1C7000
1CB000
28A000
38D000
ENDCHAR
STARTCHAR uni04A5
ENCODING 1189
SWIDTH 681 0
DWIDTH 7 0
BBX 8 5 -1 0
BITMAP
1CBF
28D0
3EC0
35C4
75E0
ENDCHAR
STARTCHAR uni04AA
ENCODING 1194
SWIDTH 497 0
DWIDTH 5 0
BBX 6 10 0 -3
BITMAP
0A80
2890
7400
B000
B000
B000
7A80
1900
1D00
0900
ENDCHAR
STARTCHAR uni04AB
ENCODING 1195
SWIDTH 384 0
DWIDTH 4 0
BBX 4 7 0 -2
BITMAP
29
A1
D0
D1
B8
20
30
ENDCHAR
STARTCHAR uni04AE
ENCODING 1198
SWIDTH 620 0
DWIDTH 6 0
BBX 7 7 0 0
BITMAP
1B08
9754
C3A0
02D0
02C0
0380
0340
ENDCHAR
STARTCHAR uni04AF
ENCODING 1199
SWIDTH 480 0
DWIDTH 5 0
BBX 5 8 0 -3
BITMAP
7240
7040
7500
3500
3800
3400
7000
5000
ENDCHAR
STARTCHAR uni04B0
ENCODING 1200
SWIDTH 620 0
DWIDTH 6 0
BBX 7 7 0 0
BITMAP
1B08
9754
C3A0
02D0
07D0
0380
0340
ENDCHAR
STARTCHAR uni04B1
ENCODING 1201
SWIDTH 480 0
DWIDTH 5 0
BBX 5 8 0 -3
BITMAP
7240
7040
7500
3500
3800
BD00
7000
5000
ENDCHAR
STARTCHAR uni04B6
ENCODING 1206
SWIDTH 695 0
DWIDTH 7 0
BBX 8 9 0 -2
BITMAP
1B1C
9A2C
8D28
0FB4
0570
0070
00B4
002D
0004
ENDCHAR
STARTCHAR uni04B7
ENCODING 1207
SWIDTH 505 0
DWIDTH 5 0
BBX 6 7 0 -2
BITMAP
7340
A740
BB00
1B10
0780
0200
0300
ENDCHAR
STARTCHAR uni04B8
ENCODING 1208
SWIDTH 715 0
DWIDTH 7 0
BBX 8 7 0 0
BITMAP
1B0D
9A1C
8D6C
0EB8
0274
0074
0070
ENDCHAR
STARTCHAR uni04B9
ENCODING 1209
SWIDTH 545 0
DWIDTH 5 0
BBX 6 5 0 0
BITMAP
72C0
A680
BF40
2B50
0380
ENDCHAR
STARTCHAR uni04BA
ENCODING 1210
SWIDTH 679 0
DWIDTH 7 0
BBX 6 7 0 0
BITMAP
1B00
5A00
8E50
5EF0
1C70
2870
38A0
ENDCHAR
STARTCHAR uni04BB
ENCODING 1211
SWIDTH 505 0
DWIDTH 5 0
BBX 7 7 -1 0
BITMAP
0900
1D00
1EC0
2DD0
39C0
36C4
71E0
ENDCHAR
STARTCHAR uni04C0
ENCODING 1216
SWIDTH 375 0
DWIDTH 4 0
BBX 4 7 0 0
BITMAP
1B
9E
CD
1D
2C
28
34
ENDCHAR
STARTCHAR uni04C1
ENCODING 1217
SWIDTH 777 0
DWIDTH 8 0
BBX 8 10 0 0
BITMAP
0144
01A0
0000
389B
19E5
06E0
2BA8
735C
A768
D728
ENDCHAR
STARTCHAR uni04C2
ENCODING 1218
SWIDTH 882 0
DWIDTH 9 0
BBX 10 7 -1 0
BITMAP
005100
006800
1A3590
137710
07BA00
16AA10
68E790
ENDCHAR
STARTCHAR uni04CB
ENCODING 1227
SWIDTH 695 0
DWIDTH 7 0
BBX 7 8 0 -1
BITMAP
1B1C
5A2C
8E28
4E74
0574
0070
01A0
0F40
ENDCHAR
STARTCHAR uni04CC
ENCODING 1228
SWIDTH 516 0
DWIDTH 5 0
BBX 6 7 0 -2
BITMAP
7380
B340
BB00
1B50
0740
7D00
5000
ENDCHAR
STARTCHAR uni04CF
ENCODING 1231
SWIDTH 267 0
DWIDTH 3 0
BBX 3 7 0 0
BITMAP
34
74
70
A0
E0
D4
B4
ENDCHAR
STARTCHAR uni04D0
ENCODING 1232
SWIDTH 668 0
DWIDTH 7 0
BBX 8 11 0 -1
BITMAP
0021
0029
0000
0028
0238
6A74
9C70
18B0
34A0
30D0
3000
ENDCHAR
STARTCHAR uni04D1
ENCODING 1233
SWIDTH 526 0
DWIDTH 5 0
BBX 6 7 0 0
BITMAP
0840
0A40
2B80
A340
D340
D710
B780
ENDCHAR
STARTCHAR uni04D2
ENCODING 1234
SWIDTH 668 0
DWIDTH 7 0
BBX 8 11 0 -1
BITMAP
0022
0000
0000
0028
0238
6A74
9C70
18B0
34A0
30D0
3000
ENDCHAR
STARTCHAR uni04D3
ENCODING 1235
SWIDTH 526 0
DWIDTH 5 0
BBX 6 7 0 0
BITMAP
0880
0000
2B80
A340
D340
D710
B780
ENDCHAR
STARTCHAR uni04D4
ENCODING 1236
SWIDTH 764 0
DWIDTH 8 0
BBX 9 8 0 -1
BITMAP
006E80
027800
6A7400
DCBA00
68B000
34A000
30FE00
300000
ENDCHAR
STARTCHAR uni04D5
ENCODING 1237
SWIDTH 650 0
DWIDTH 7 0
BBX 7 5 0 0
BITMAP
2AA4
0760
6B90
DB04
B7D0
ENDCHAR
STARTCHAR uni04D6
ENCODING 1238
SWIDTH 459 0
DWIDTH 5 0
BBX 6 10 0 0
BITMAP
0910
0640
0000
0A80
2880
1C00
2800
B000
F040
7E00
ENDCHAR
STARTCHAR uni04D7
ENCODING 1239
SWIDTH 384 0
DWIDTH 4 0
BBX 5 7 0 0
BITMAP
2140
2900
2A00
A500
E400
D100
B800
ENDCHAR
STARTCHAR uni04D8
ENCODING 1240
SWIDTH 544 0
DWIDTH 5 0
BBX 6 7 0 0
BITMAP
2F80
26D0
01D0
0AD0
72C0
9740
7900
ENDCHAR
STARTCHAR uni04D9
ENCODING 1241
SWIDTH 404 0
DWIDTH 4 0
BBX 4 5 0 0
BITMAP
6D
0A
2E
9D
A4
ENDCHAR
STARTCHAR uni04DC
ENCODING 1244
SWIDTH 777 0
DWIDTH 8 0
BBX 8 9 0 0
BITMAP
0154
0000
389B
19E5
06E0
2BA8
735C
A768
D728
ENDCHAR
STARTCHAR uni04DD
ENCODING 1245
SWIDTH 882 0
DWIDTH 9 0
BBX 10 7 -1 0
BITMAP
005500
000000
1A3590
137710
07BA00
16AA10
68E790
ENDCHAR
STARTCHAR uni04DE
ENCODING 1246
SWIDTH 525 0
DWIDTH 5 0
BBX 5 9 0 0
BITMAP
0480
0000
1B80
0280
1F00
0380
4380
C740
A900
ENDCHAR
STARTCHAR uni04DF
ENCODING 1247
SWIDTH 498 0
DWIDTH 5 0
BBX 6 9 0 -2
BITMAP
1540
0000
2E00
5740
4B00
2C50
0E40
6D00
6800
ENDCHAR
STARTCHAR uni04E2
ENCODING 1250
SWIDTH 705 0
DWIDTH 7 0
BBX 8 9 0 0
BITMAP
01A8
0000
1B1D
5A3C
8DB8
1DB8
1E74
2D70
38B0
ENDCHAR
STARTCHAR uni04E3
ENCODING 1251
SWIDTH 505 0
DWIDTH 5 0
BBX 6 7 0 0
BITMAP
2A40
0000
7340
A740
E700
DB10
B780
ENDCHAR
STARTCHAR uni04E4
ENCODING 1252
SWIDTH 705 0
DWIDTH 7 0
BBX 8 9 0 0
BITMAP
0094
0000
1B1D
5A3C
8DB8
1DB8
1E74
2D70
38B0
ENDCHAR
STARTCHAR uni04E5
ENCODING 1253
SWIDTH 505 0
DWIDTH 5 0
BBX 6 7 0 0
BITMAP
1540
0000
7340
A740
E700
DB10
B780
ENDCHAR
STARTCHAR uni04E6
ENCODING 1254
SWIDTH 665 0
DWIDTH 7 0
BBX 7 9 0 0
BITMAP
0154
0000
1AA0
6A34
9D28
2C34
3870
38E0
1E80
ENDCHAR
STARTCHAR uni04E7
ENCODING 1255
SWIDTH 439 0
DWIDTH 4 0
BBX 6 7 0 0
BITMAP
1540
0000
2A00
B350
D200
D500
B800
ENDCHAR
STARTCHAR uni04E8
ENCODING 1256
SWIDTH 665 0
DWIDTH 7 0
BBX 7 7 0 0
BITMAP
1AA0
6A34
9D28
2EB4
3870
38A0
1E80
ENDCHAR
STARTCHAR uni04E9
ENCODING 1257
SWIDTH 439 0
DWIDTH 4 0
BBX 6 5 0 0
BITMAP
2A00
B350
FB00
D500
B800
ENDCHAR
STARTCHAR uni04EE
ENCODING 1262
SWIDTH 644 0
DWIDTH 6 0
BBX 7 9 0 0
BITMAP
01A8
0000
1B08
9754
83A0
02E0
01C0
0580
0A00
ENDCHAR
STARTCHAR uni04EF
ENCODING 1263
SWIDTH 486 0
DWIDTH 5 0
BBX 5 9 0 -2
BITMAP
2A40
0000
7340
A740
E700
DA40
BE40
6D00
7800
ENDCHAR
STARTCHAR uni04F0
ENCODING 1264
SWIDTH 644 0
DWIDTH 6 0
BBX 7 9 0 0
BITMAP
0094
0000
1B08
9754
83A0
02E0
01C0
0580
0A00
ENDCHAR
STARTCHAR uni04F1
ENCODING 1265
SWIDTH 486 0
DWIDTH 5 0
BBX 5 9 0 -2
BITMAP
1540
0000
7340
A740
E700
DA40
BE40
6D00
7800
ENDCHAR
STARTCHAR uni04F2
ENCODING 1266
SWIDTH 644 0
DWIDTH 6 0
BBX 7 10 0 0
BITMAP
0058
0094
0000
1B08
9754
83A0
02E0
01C0
0580
0A00
ENDCHAR
STARTCHAR uni04F3
ENCODING 1267
SWIDTH 486 0
DWIDTH 5 0
BBX 5 10 0 -2
BITMAP
0980
1600
0000
7340
A740
E700
DA40
BE40
6D00
7800
ENDCHAR
STARTCHAR uni04F4
ENCODING 1268
SWIDTH 695 0
DWIDTH 7 0
BBX 7 9 0 0
BITMAP
0094
0000
1B1C
9A2C
8D28
0FB4
0574
0070
00A0
ENDCHAR
STARTCHAR uni04F5
ENCODING 1269
SWIDTH 505 0
DWIDTH 5 0
BBX 6 7 0 0
BITMAP
1540
0000
7340
A740
BB00
1B50
0780
ENDCHAR
STARTCHAR uni04F6
ENCODING 1270
SWIDTH 442 0
DWIDTH 4 0
BBX 7 8 0 -1
BITMAP
2BF4
9A00
9D00
1D00
1C00
2800
3800
0B00
ENDCHAR
STARTCHAR uni04F7
ENCODING 1271
SWIDTH 375 0
DWIDTH 4 0
BBX 4 7 0 -2
BITMAP
7D
5D
78
D1
F8
60
70
ENDCHAR
STARTCHAR uni04F8
ENCODING 1272
SWIDTH 909 0
DWIDTH 9 0
BBX 10 9 0 0
BITMAP
002500
000000
1B01D0
9A01C0
4E9280
1C7380
1C7340
28A700
3BCB00
ENDCHAR
STARTCHAR uni04F9
ENCODING 1273
SWIDTH 642 0
DWIDTH 6 0
BBX 7 7 0 0
BITMAP
0480
0000
70A0
AAA0
A5D0
D9D4
B8A0
ENDCHAR
STARTCHAR uni051A
ENCODING 1306
SWIDTH 665 0
DWIDTH 7 0
BBX 7 8 0 -1
BITMAP
1AA0
6A34
9D28
2834
3870
3AE0
1FC0
00A0
ENDCHAR
STARTCHAR uni051B
ENCODING 1307
SWIDTH 486 0
DWIDTH 5 0
BBX 5 8 0 -3
BITMAP
2B80
A340
D740
DB00
BE00
0E00
0D00
0400
ENDCHAR
STARTCHAR uni051C
ENCODING 1308
SWIDTH 962 0
DWIDTH 10 0
BBX 10 7 0 0
BITMAP
1B0D20
971D20
C72D50
071D80
074E40
078F00
074E00
ENDCHAR
STARTCHAR uni051D
ENCODING 1309
SWIDTH 661 0
DWIDTH 7 0
BBX 7 5 0 0
BITMAP
7364
A754
E720
DB20
BB80
ENDCHAR
STARTCHAR uni0524
ENCODING 1316
SWIDTH 742 0
DWIDTH 7 0
BBX 8 8 0 -1
BITMAP
2BFE
9A38
8D34
1D70
1CB0
28A0
38E0
003C
ENDCHAR
STARTCHAR uni0525
ENCODING 1317
SWIDTH 505 0
DWIDTH 5 0
BBX 7 7 -1 -2
BITMAP
1EC0
2DD0
39C0
36C4
71E0
0080
00C0
ENDCHAR
STARTCHAR uni1E0C
ENCODING 7692
SWIDTH 663 0
DWIDTH 7 0
BBX 7 9 0 -2
BITMAP
1590
9A34
CD34
1C34
1C70
28A0
3B80
0400
0D00
ENDCHAR
STARTCHAR uni1E0D
ENCODING 7693
SWIDTH 525 0
DWIDTH 5 0
BBX 6 9 0 -2
BITMAP
0180
02C0
2B80
A340
D740
D710
B780
1000
3400
ENDCHAR
STARTCHAR uni1E20
ENCODING 7712
SWIDTH 578 0
DWIDTH 6 0
BBX 6 11 0 -2
BITMAP
0690
0000
1A90
3460
B000
A090
B1C0
2AC0
2A80
6340
2900
ENDCHAR
STARTCHAR uni1E21
ENCODING 7713
SWIDTH 507 0
DWIDTH 5 0
BBX 6 9 0 -2
BITMAP
1A80
0000
2B80
A340
D740
DB10
BF40
1E00
6800
ENDCHAR
STARTCHAR uni1E24
ENCODING 7716
SWIDTH 665 0
DWIDTH 7 0
BBX 7 9 0 -2
BITMAP
0B28
8E38
4EB4
1C70
1CB0
28A0
38D0
0500
0A00
ENDCHAR
STARTCHAR uni1E25
ENCODING 7717
SWIDTH 505 0
DWIDTH 5 0
BBX 7 9 -1 -2
BITMAP
0900
1D00
1EC0
2DD0
39C0
36C4
71E0
0400
0D00
ENDCHAR
STARTCHAR uni1E2A
ENCODING 7722
SWIDTH 665 0
DWIDTH 7 0
BBX 7 9 0 -2
BITMAP
0B28
8E38
4EB4
1C70
1CB0
28A0
38D0
1040
1A00
ENDCHAR
STARTCHAR uni1E2B
ENCODING 7723
SWIDTH 505 0
DWIDTH 5 0
BBX 7 9 -1 -2
BITMAP
0900
1D00
1EC0
2DD0
39C0
36C4
71E0
1100
1900
ENDCHAR
STARTCHAR uni1E36
ENCODING 7734
SWIDTH 379 0
DWIDTH 4 0
BBX 7 9 0 -2
BITMAP
1B00
9A00
CD00
1C00
2C00
2800
3800
2794
70B4
ENDCHAR
STARTCHAR uni1E37
ENCODING 7735
SWIDTH 293 0
DWIDTH 3 0
BBX 3 9 0 -2
BITMAP
28
34
74
70
A0
A4
B4
40
D0
ENDCHAR
STARTCHAR uni1E42
ENCODING 7746
SWIDTH 787 0
DWIDTH 8 0
BBX 8 9 0 -2
BITMAP
078B
278E
6B9E
1B6E
179D
23DD
239C
0100
0700
ENDCHAR
STARTCHAR uni1E43
ENCODING 7747
SWIDTH 752 0
DWIDTH 8 0
BBX 9 7 -1 -2
BITMAP
1EDE00
2DDA00
39CE00
36CD40
728B40
010000
034000
ENDCHAR
STARTCHAR uni1E44
ENCODING 7748
SWIDTH 668 0
DWIDTH 7 0
BBX 7 10 0 0
BITMAP
0010
0070
0000
1B0C
9B4C
CF58
5AA4
25E0
25F0
30E0
ENDCHAR
STARTCHAR uni1E45
ENCODING 7749
SWIDTH 505 0
DWIDTH 5 0
BBX 7 7 -1 0
BITMAP
0280
0140
1EC0
2DD0
39C0
36C4
71E0
ENDCHAR
STARTCHAR uni1E46
ENCODING 7750
SWIDTH 668 0
DWIDTH 7 0
BBX 7 9 0 -2
BITMAP
1B0C
9B4C
CF58
5AA4
25E0
25F0
30E0
0500
0A00
ENDCHAR
STARTCHAR uni1E47
ENCODING 7751
SWIDTH 505 0
DWIDTH 5 0
BBX 7 7 -1 -2
BITMAP
1EC0
2DD0
39C0
36C4
71E0
0400
0D00
ENDCHAR
STARTCHAR uni1E5A
ENCODING 7770
SWIDTH 601 0
DWIDTH 6 0
BBX 6 9 0 -2
BITMAP
1A90
9A60
4EC0
1CD0
2CD0
29C0
35C0
0500
0900
ENDCHAR
STARTCHAR uni1E5B
ENCODING 7771
SWIDTH 376 0
DWIDTH 4 0
BBX 5 7 -1 -2
BITMAP
1E80
2840
3800
3400
7000
1000
7000
ENDCHAR
STARTCHAR uni1E60
ENCODING 7776
SWIDTH 570 0
DWIDTH 6 0
BBX 6 10 0 0
BITMAP
0180
0140
0000
0A90
1C90
1E00
0740
76C0
A1C0
2A40
ENDCHAR
STARTCHAR uni1E61
ENCODING 7777
SWIDTH 382 0
DWIDTH 4 0
BBX 5 7 -1 0
BITMAP
0300
0100
0600
0B00
1700
6740
2E00
ENDCHAR
STARTCHAR uni1E62
ENCODING 7778
SWIDTH 570 0
DWIDTH 6 0
BBX 6 9 0 -2
BITMAP
0A90
1C90
1E00
0740
76C0
A1C0
2A40
1400
2800
ENDCHAR
STARTCHAR uni1E63
ENCODING 7779
SWIDTH 382 0
DWIDTH 4 0
BBX 5 8 -1 -2
BITMAP
0500
0B00
1B00
2700
6740
2D00
1000
3400
ENDCHAR
STARTCHAR uni1E6C
ENCODING 7788
SWIDTH 481 0
DWIDTH 5 0
BBX 7 9 0 -2
BITMAP
2BFC
9740
C700
0A00
0E00
0D00
1C00
1400
2800
ENDCHAR
STARTCHAR uni1E6D
ENCODING 7789
SWIDTH 267 0
DWIDTH 3 0
BBX 4 9 -1 -2
BITMAP
05
1D
2D
28
38
35
2D
10
70
ENDCHAR
STARTCHAR Wgrave
ENCODING 7808
SWIDTH 962 0
DWIDTH 10 0
BBX 10 10 0 0
BITMAP
000800
000800
000000
1B0D20
971D20
C72D50
071D80
074E40
078F00
074E00
ENDCHAR
STARTCHAR wgrave
ENCODING 7809
SWIDTH 661 0
DWIDTH 7 0
BBX 7 7 0 0
BITMAP
0600
0200
7364
A754
E720
DB20
BB80
ENDCHAR
STARTCHAR Wacute
ENCODING 7810
SWIDTH 962 0
DWIDTH 10 0
BBX 10 10 0 0
BITMAP
000240
000600
000000
1B0D20
971D20
C72D50
071D80
074E40
078F00
074E00
ENDCHAR
STARTCHAR wacute
ENCODING 7811
SWIDTH 661 0
DWIDTH 7 0
BBX 7 7 0 0
BITMAP
0080
0140
7364
A754
E720
DB20
BB80
ENDCHAR
STARTCHAR Wdieresis
ENCODING 7812
SWIDTH 962 0
DWIDTH 10 0
BBX 10 9 0 0
BITMAP
002640
000000
1B0D20
971D20
C72D50
071D80
074E40
078F00
074E00
ENDCHAR
STARTCHAR wdieresis
ENCODING 7813
SWIDTH 661 0
DWIDTH 7 0
BBX 7 7 0 0
BITMAP
0980
0000
7364
A754
E720
DB20
BB80
ENDCHAR
STARTCHAR uni1E8E
ENCODING 7822
SWIDTH 620 0
DWIDTH 6 0
BBX 7 10 0 0
BITMAP
0010
0070
0000
1B08
9754
C3A0
02D0
02C0
0380
0340
ENDCHAR
STARTCHAR uni1E8F
ENCODING 7823
SWIDTH 505 0
DWIDTH 5 0
BBX 5 9 0 -2
BITMAP
0A00
0500
7340
A740
E700
DA40
BE40
6D00
7800
ENDCHAR
STARTCHAR uni1E92
ENCODING 7826
SWIDTH 542 0
DWIDTH 5 0
BBX 6 12 0 -2
BITMAP
0090
0080
0000
2AD0
1380
0700
0E00
2C00
3880
BA80
1400
2800
ENDCHAR
STARTCHAR uni1E93
ENCODING 7827
SWIDTH 428 0
DWIDTH 4 0
BBX 4 7 0 -2
BITMAP
6B
1D
28
35
BA
50
60
ENDCHAR
STARTCHAR uni1E97
ENCODING 7831
SWIDTH 267 0
DWIDTH 3 0
BBX 4 8 0 0
BITMAP
69
14
74
B4
A0
E0
D4
B4
ENDCHAR
STARTCHAR uni1E9E
ENCODING 7838
SWIDTH 559 0
DWIDTH 6 0
BBX 7 9 -1 -2
BITMAP
02B8
0A74
0DE0
1DD0
2CB0
28B0
3AD0
7400
7000
ENDCHAR
STARTCHAR uni1EA0
ENCODING 7840
SWIDTH 668 0
DWIDTH 7 0
BBX 7 9 0 -2
BITMAP
0028
0238
6A74
9C70
28B0
34A0
30D0
2100
0340
ENDCHAR
STARTCHAR uni1EA1
ENCODING 7841
SWIDTH 526 0
DWIDTH 5 0
BBX 6 7 0 -2
BITMAP
2B80
A340
D340
D710
B780
1000
3400
ENDCHAR
STARTCHAR uni1EA2
ENCODING 7842
SWIDTH 668 0
DWIDTH 7 0
BBX 8 11 0 -1
BITMAP
0019
0008
0000
0028
0238
6A74
9C70
18B0
34A0
30D0
3000
ENDCHAR
STARTCHAR uni1EA3
ENCODING 7843
SWIDTH 526 0
DWIDTH 5 0
BBX 6 7 0 0
BITMAP
0240
0200
2B80
A340
D340
D710
B780
ENDCHAR
STARTCHAR uni1EA4
ENCODING 7844
SWIDTH 668 0
DWIDTH 7 0
BBX 9 11 0 -1
BITMAP
000540
001900
000000
002800
023800
6A7400
9C7000
18B000
34A000
30D000
300000
ENDCHAR
STARTCHAR uni1EA5
ENCODING 7845
SWIDTH 526 0
DWIDTH 5 0
BBX 6 9 0 0
BITMAP
0010
0050
0640
0400
2B80
A340
D340
D710
B780
ENDCHAR
STARTCHAR uni1EA6
ENCODING 7846
SWIDTH 668 0
DWIDTH 7 0
BBX 8 11 0 -1
BITMAP
0006
0015
0000
0028
0238
6A74
9C70
18B0
34A0
30D0
3000
ENDCHAR
STARTCHAR uni1EA7
ENCODING 7847
SWIDTH 526 0
DWIDTH 5 0
BBX 6 9 0 0
BITMAP
0040
0050
0500
0000
2B80
A340
D340
D710
B780
ENDCHAR
STARTCHAR uni1EA8
ENCODING 7848
SWIDTH 668 0
DWIDTH 7 0
BBX 9 11 0 -1
BITMAP
000140
001940
001000
002800
023800
6A7400
9C7000
18B000
34A000
30D000
300000
ENDCHAR
STARTCHAR uni1EA9
ENCODING 7849
SWIDTH 526 0
DWIDTH 5 0
BBX 6 8 0 0
BITMAP
0050
0250
0400
2B80
A340
D340
D710
B780
ENDCHAR
STARTCHAR uni1EAA
ENCODING 7850
SWIDTH 668 0
DWIDTH 7 0
BBX 8 11 0 -1
BITMAP
0009
0018
0000
0028
0238
6A74
9C70
18B0
34A0
30D0
3000
ENDCHAR
STARTCHAR uni1EAB
ENCODING 7851
SWIDTH 526 0
DWIDTH 5 0
BBX 6 9 0 0
BITMAP
0240
0000
0600
0400
2B80
A340
D340
D710
B780
ENDCHAR
STARTCHAR uni1EAC
ENCODING 7852
SWIDTH 668 0
DWIDTH 7 0
BBX 8 12 0 -2
BITMAP
0009
0025
0000
0028
0238
6A74
9C70
28B0
34A0
30D0
2100
0340
ENDCHAR
STARTCHAR uni1EAD
ENCODING 7853
SWIDTH 526 0
DWIDTH 5 0
BBX 6 9 0 -2
BITMAP
0600
0440
2B80
A340
D340
D710
B780
1000
3400
ENDCHAR
STARTCHAR uni1EAE
ENCODING 7854
SWIDTH 668 0
DWIDTH 7 0
BBX 8 11 0 -1
BITMAP
0005
0015
0019
0028
0238
6A74
9C70
18B0
34A0
30D0
3000
ENDCHAR
STARTCHAR uni1EAF
ENCODING 7855
SWIDTH 526 0
DWIDTH 5 0
BBX 6 9 0 0
BITMAP
0100
0200
0A40
0000
2B80
A340
D340
D710
B780
ENDCHAR
STARTCHAR uni1EB0
ENCODING 7856
SWIDTH 668 0
DWIDTH 7 0
BBX 8 11 0 -1
BITMAP
0008
0022
0015
0028
0238
6A74
9C70
18B0
34A0
30D0
3000
ENDCHAR
STARTCHAR uni1EB1
ENCODING 7857
SWIDTH 526 0
DWIDTH 5 0
BBX 6 9 0 0
BITMAP
0500
0200
0940
0000
2B80
A340
D340
D710
B780
ENDCHAR
STARTCHAR uni1EB2
ENCODING 7858
SWIDTH 668 0
DWIDTH 7 0
BBX 8 11 0 -1
BITMAP
0004
0015
0019
0028
0238
6A74
9C70
18B0
34A0
30D0
3000
ENDCHAR
STARTCHAR uni1EB3
ENCODING 7859
SWIDTH 526 0
DWIDTH 5 0
BBX 6 9 0 0
BITMAP
0100
0100
0A40
0000
2B80
A340
D340
D710
B780
ENDCHAR
STARTCHAR uni1EB4
ENCODING 7860
SWIDTH 668 0
DWIDTH 7 0
BBX 8 11 0 -1
BITMAP
0019
0011
0019
0028
0238
6A74
9C70
18B0
34A0
30D0
3000
ENDCHAR
STARTCHAR uni1EB5
ENCODING 7861
SWIDTH 526 0
DWIDTH 5 0
BBX 6 9 0 0
BITMAP
0640
0000
0940
0000
2B80
A340
D340
D710
B780
ENDCHAR
STARTCHAR uni1EB6
ENCODING 7862
SWIDTH 668 0
DWIDTH 7 0
BBX 8 12 0 -2
BITMAP
0051
0029
0000
0028
0238
6A74
9C70
28B0
34A0
30D0
2100
0340
ENDCHAR
STARTCHAR uni1EB7
ENCODING 7863
SWIDTH 526 0
DWIDTH 5 0
BBX 6 9 0 -2
BITMAP
1A40
0000
2B80
A340
D340
D710
B780
1000
3400
ENDCHAR
STARTCHAR uni1EB8
ENCODING 7864
SWIDTH 459 0
DWIDTH 5 0
BBX 5 9 0 -2
BITMAP
0A80
2880
1C00
2800
B000
F040
7E00
1000
3400
ENDCHAR
STARTCHAR uni1EB9
ENCODING 7865
SWIDTH 384 0
DWIDTH 4 0
BBX 4 7 0 -2
BITMAP
2A
A5
E4
D1
B8
50
A0
ENDCHAR
STARTCHAR uni1EBA
ENCODING 7866
SWIDTH 459 0
DWIDTH 5 0
BBX 5 10 0 0
BITMAP
0180
0140
0000
0A80
2880
1C00
2800
B000
F040
7E00
ENDCHAR
STARTCHAR uni1EBB
ENCODING 7867
SWIDTH 384 0
DWIDTH 4 0
BBX 4 7 0 0
BITMAP
06
09
2A
A5
E4
D1
B8
ENDCHAR
STARTCHAR uni1EBC
ENCODING 7868
SWIDTH 459 0
DWIDTH 5 0
BBX 6 10 0 0
BITMAP
0140
06D0
0000
0A80
2880
1C00
2800
B000
F040
7E00
ENDCHAR
STARTCHAR uni1EBD
ENCODING 7869
SWIDTH 384 0
DWIDTH 4 0
BBX 4 7 0 0
BITMAP
2E
04
2A
A5
E4
D1
B8
ENDCHAR
STARTCHAR uni1EBE
ENCODING 7870
SWIDTH 459 0
DWIDTH 5 0
BBX 6 10 0 0
BITMAP
0060
0290
0000
0A80
2880
1C00
2800
B000
F040
7E00
ENDCHAR
STARTCHAR uni1EBF
ENCODING 7871
SWIDTH 384 0
DWIDTH 4 0
BBX 6 9 0 0
BITMAP
0050
0080
0600
0100
2A00
A500
E400
D100
B800
ENDCHAR
STARTCHAR uni1EC0
ENCODING 7872
SWIDTH 459 0
DWIDTH 5 0
BBX 6 10 0 0
BITMAP
0050
0140
0000
0A80
2880
1C00
2800
B000
F040
7E00
ENDCHAR
STARTCHAR uni1EC1
ENCODING 7873
SWIDTH 384 0
DWIDTH 4 0
BBX 5 9 0 0
BITMAP
0040
0080
0500
0000
2A00
A500
E400
D100
B800
ENDCHAR
STARTCHAR uni1EC2
ENCODING 7874
SWIDTH 459 0
DWIDTH 5 0
BBX 6 10 0 0
BITMAP
0010
0150
0040
0A80
2880
1C00
2800
B000
F040
7E00
ENDCHAR
STARTCHAR uni1EC3
ENCODING 7875
SWIDTH 384 0
DWIDTH 4 0
BBX 5 8 0 0
BITMAP
0040
0640
0100
2A00
A500
E400
D100
B800
ENDCHAR
STARTCHAR uni1EC4
ENCODING 7876
SWIDTH 459 0
DWIDTH 5 0
BBX 6 10 0 0
BITMAP
01D0
0280
0000
0A80
2880
1C00
2800
B000
F040
7E00
ENDCHAR
STARTCHAR uni1EC5
ENCODING 7877
SWIDTH 384 0
DWIDTH 4 0
BBX 5 9 0 0
BITMAP
0640
0000
0500
0100
2A00
A500
E400
D100
B800
ENDCHAR
STARTCHAR uni1EC6
ENCODING 7878
SWIDTH 459 0
DWIDTH 5 0
BBX 5 12 0 -2
BITMAP
0140
0580
0000
0A80
2880
1C00
2800
B000
F040
7E00
1000
3400
ENDCHAR
STARTCHAR uni1EC7
ENCODING 7879
SWIDTH 384 0
DWIDTH 4 0
BBX 4 9 0 -2
BITMAP
0A
11
2A
A5
E4
D1
B8
50
A0
ENDCHAR
STARTCHAR uni1EC8
ENCODING 7880
SWIDTH 375 0
DWIDTH 4 0
BBX 5 10 0 0
BITMAP
0240
0240
0000
1B00
9E00
CD00
1D00
2C00
2800
3400
ENDCHAR
STARTCHAR uni1EC9
ENCODING 7881
SWIDTH 267 0
DWIDTH 3 0
BBX 3 7 0 0
BITMAP
18
24
70
A0
E0
D4
B4
ENDCHAR
STARTCHAR uni1ECA
ENCODING 7882
SWIDTH 375 0
DWIDTH 4 0
BBX 4 9 0 -2
BITMAP
1B
9E
CD
1D
2C
28
34
10
70
ENDCHAR
STARTCHAR uni1ECB
ENCODING 7883
SWIDTH 267 0
DWIDTH 3 0
BBX 4 9 -1 -2
BITMAP
0D
04
1C
28
38
35
2D
10
70
ENDCHAR
STARTCHAR uni1ECC
ENCODING 7884
SWIDTH 665 0
DWIDTH 7 0
BBX 7 9 0 -2
BITMAP
1AA0
6A34
9D28
2C34
3870
38E0
1E80
0400
0D00
ENDCHAR
STARTCHAR uni1ECD
ENCODING 7885
SWIDTH 433 0
DWIDTH 4 0
BBX 7 7 -1 -2
BITMAP
0A40
29D4
3480
7640
2E00
1400
2800
ENDCHAR
STARTCHAR uni1ECE
ENCODING 7886
SWIDTH 665 0
DWIDTH 7 0
BBX 7 10 0 0
BITMAP
0050
0090
0000
1AA0
6A34
9D28
2C34
3870
38E0
1E80
ENDCHAR
STARTCHAR uni1ECF
ENCODING 7887
SWIDTH 433 0
DWIDTH 4 0
BBX 7 7 -1 0
BITMAP
0180
0140
0A40
29D4
3480
7640
2E00
ENDCHAR
STARTCHAR uni1ED0
ENCODING 7888
SWIDTH 665 0
DWIDTH 7 0
BBX 7 10 0 0
BITMAP
0018
0160
0000
1AA0
6A34
9D28
2C34
3870
38E0
1E80
ENDCHAR
STARTCHAR uni1ED1
ENCODING 7889
SWIDTH 433 0
DWIDTH 4 0
BBX 7 9 -1 0
BITMAP
0014
0020
0180
0040
0A40
29D4
3480
7640
2E00
ENDCHAR
STARTCHAR uni1ED2
ENCODING 7890
SWIDTH 665 0
DWIDTH 7 0
BBX 7 10 0 0
BITMAP
0054
0150
0000
1AA0
6A34
9D28
2C34
3870
38E0
1E80
ENDCHAR
STARTCHAR uni1ED3
ENCODING 7891
SWIDTH 433 0
DWIDTH 4 0
BBX 7 9 -1 0
BITMAP
0010
0020
0140
0000
0A40
29D4
3480
7640
2E00
ENDCHAR
STARTCHAR uni1ED4
ENCODING 7892
SWIDTH 665 0
DWIDTH 7 0
BBX 7 10 0 0
BITMAP
0004
0094
0110
1AA0
6A34
9D28
2C34
3870
38E0
1E80
ENDCHAR
STARTCHAR uni1ED5
ENCODING 7893
SWIDTH 433 0
DWIDTH 4 0
BBX 7 8 -1 0
BITMAP
0010
0190
0040
0A40
29D4
3480
7640
2E00
ENDCHAR
STARTCHAR uni1ED6
ENCODING 7894
SWIDTH 665 0
DWIDTH 7 0
BBX 7 10 0 0
BITMAP
00A0
0190
0000
1AA0
6A34
9D28
2C34
3870
38E0
1E80
ENDCHAR
STARTCHAR uni1ED7
ENCODING 7895
SWIDTH 433 0
DWIDTH 4 0
BBX 7 9 -1 0
BITMAP
0150
0040
0140
0040
0A40
29D4
3480
7640
2E00
ENDCHAR
STARTCHAR uni1ED8
ENCODING 7896
SWIDTH 665 0
DWIDTH 7 0
BBX 7 12 0 -2
BITMAP
0090
0250
0000
1AA0
6A34
9D28
2C34
3870
38E0
1E80
0400
0D00
ENDCHAR
STARTCHAR uni1ED9
ENCODING 7897
SWIDTH 433 0
DWIDTH 4 0
BBX 7 9 -1 -2
BITMAP
0240
0440
0A40
29D4
3480
7640
2E00
1400
2800
ENDCHAR
STARTCHAR uni1EDA
ENCODING 7898
SWIDTH 665 0
DWIDTH 7 0
BBX 7 10 0 0
BITMAP
0060
0084
0008
1AA8
6A34
9D28
2C34
3870
38E0
1E80
ENDCHAR
STARTCHAR uni1EDB
ENCODING 7899
SWIDTH 439 0
DWIDTH 4 0
BBX 5 7 0 0
BITMAP
0600
0480
2A40
A200
D200
D900
B800
ENDCHAR
STARTCHAR uni1EDC
ENCODING 7900
SWIDTH 665 0
DWIDTH 7 0
BBX 7 10 0 0
BITMAP
0200
0244
0008
1AA8
6A34
9D28
2C34
3870
38E0
1E80
ENDCHAR
STARTCHAR uni1EDD
ENCODING 7901
SWIDTH 439 0
DWIDTH 4 0
BBX 5 7 0 0
BITMAP
0C00
0880
2A40
A200
D200
D900
B800
ENDCHAR
STARTCHAR uni1EDE
ENCODING 7902
SWIDTH 665 0
DWIDTH 7 0
BBX 7 10 0 0
BITMAP
0050
0098
0008
1AA8
6A34
9D28
2C34
3870
38E0
1E80
ENDCHAR
STARTCHAR uni1EDF
ENCODING 7903
SWIDTH 439 0
DWIDTH 4 0
BBX 5 7 0 0
BITMAP
0600
0580
2A40
A200
D200
D900
B800
ENDCHAR
STARTCHAR uni1EE0
ENCODING 7904
SWIDTH 665 0
DWIDTH 7 0
BBX 7 9 0 0
BITMAP
02E4
0008
1AA8
6A34
9D28
2C34
3870
38E0
1E80
ENDCHAR
STARTCHAR uni1EE1
ENCODING 7905
SWIDTH 439 0
DWIDTH 4 0
BBX 5 7 0 0
BITMAP
2D40
0480
2A40
A200
D200
D900
B800
ENDCHAR
STARTCHAR uni1EE2
ENCODING 7906
SWIDTH 665 0
DWIDTH 7 0
BBX 8 11 0 -2
BITMAP
0009
0008
1AA8
6A34
9D28
2C34
3870
38E0
1E80
0400
0D00
ENDCHAR
STARTCHAR uni1EE3
ENCODING 7907
SWIDTH 439 0
DWIDTH 4 0
BBX 5 9 0 -2
BITMAP
0040
0080
2A40
A200
D200
D900
B800
5000
A000
ENDCHAR
STARTCHAR uni1EE4
ENCODING 7908
SWIDTH 716 0
DWIDTH 7 0
BBX 8 9 0 -2
BITMAP
1B0D
9A1D
CD1C
0D28
1C34
1C70
1FD0
0500
0A00
ENDCHAR
STARTCHAR uni1EE5
ENCODING 7909
SWIDTH 505 0
DWIDTH 5 0
BBX 6 7 0 -2
BITMAP
7340
A740
E700
DB10
B780
1000
3400
ENDCHAR
STARTCHAR uni1EE6
ENCODING 7910
SWIDTH 716 0
DWIDTH 7 0
BBX 8 10 0 0
BITMAP
0024
0024
0000
1B0D
9A1D
CD1C
0D28
1C34
1C70
1FD0
ENDCHAR
STARTCHAR uni1EE7
ENCODING 7911
SWIDTH 505 0
DWIDTH 5 0
BBX 6 7 0 0
BITMAP
0600
0900
7340
A740
E700
DB10
B780
ENDCHAR
STARTCHAR uni1EE8
ENCODING 7912
SWIDTH 716 0
DWIDTH 7 0
BBX 9 10 0 0
BITMAP
001800
002180
000140
1B0D00
9A1D00
CD1C00
0D2800
1C3400
1C7000
1F9000
ENDCHAR
STARTCHAR uni1EE9
ENCODING 7913
SWIDTH 505 0
DWIDTH 5 0
BBX 6 7 0 0
BITMAP
0240
0550
7380
A740
E700
DB10
B780
ENDCHAR
STARTCHAR uni1EEA
ENCODING 7914
SWIDTH 716 0
DWIDTH 7 0
BBX 9 10 0 0
BITMAP
008000
009180
000140
1B0D00
9A1C00
CD1C00
0D2800
1C3400
1C7000
1F9000
ENDCHAR
STARTCHAR uni1EEB
ENCODING 7915
SWIDTH 505 0
DWIDTH 5 0
BBX 6 7 0 0
BITMAP
0C00
0850
7380
A740
E700
DB10
B780
ENDCHAR
STARTCHAR uni1EEC
ENCODING 7916
SWIDTH 716 0
DWIDTH 7 0
BBX 9 10 0 0
BITMAP
002400
002580
000140
1B0D00
9A1C00
CD1C00
0D2800
1C3400
1C7000
1F9000
ENDCHAR
STARTCHAR uni1EED
ENCODING 7917
SWIDTH 505 0
DWIDTH 5 0
BBX 6 7 0 0
BITMAP
0600
0950
7380
A740
E700
DB10
B780
ENDCHAR
STARTCHAR uni1EEE
ENCODING 7918
SWIDTH 716 0
DWIDTH 7 0
BBX 9 9 0 0
BITMAP
007980
000140
1B0D00
9A1D00
CD1C00
0D2800
1C3400
1C7000
1F9000
ENDCHAR
STARTCHAR uni1EEF
ENCODING 7919
SWIDTH 505 0
DWIDTH 5 0
BBX 6 7 0 0
BITMAP
1E50
0090
7340
A740
E700
DB10
B780
ENDCHAR
STARTCHAR uni1EF0
ENCODING 7920
SWIDTH 716 0
DWIDTH 7 0
BBX 9 12 0 -2
BITMAP
000040
000180
000100
1B0D00
9A1C00
CD1C00
0D2800
1C3400
1C7000
1F9000
050000
0A0000
ENDCHAR
STARTCHAR uni1EF1
ENCODING 7921
SWIDTH 505 0
DWIDTH 5 0
BBX 6 9 0 -2
BITMAP
0050
0040
7340
A740
E700
DB10
B780
1000
3400
ENDCHAR
STARTCHAR Ygrave
ENCODING 7922
SWIDTH 620 0
DWIDTH 6 0
BBX 7 10 0 0
BITMAP
0090
0050
0000
1B08
9754
C3A0
02D0
02C0
0380
0340
ENDCHAR
STARTCHAR ygrave
ENCODING 7923
SWIDTH 505 0
DWIDTH 5 0
BBX 5 9 0 -2
BITMAP
0C00
0800
7340
A740
E700
DA40
BE40
6D00
7800
ENDCHAR
STARTCHAR uni1EF4
ENCODING 7924
SWIDTH 620 0
DWIDTH 6 0
BBX 7 9 0 -2
BITMAP
1B08
9754
C3A0
02D0
02C0
0380
0340
0100
0700
ENDCHAR
STARTCHAR uni1EF5
ENCODING 7925
SWIDTH 505 0
DWIDTH 5 0
BBX 5 7 0 -2
BITMAP
7340
A740
E700
DA40
BE40
5D00
7980
ENDCHAR
STARTCHAR uni1EF6
ENCODING 7926
SWIDTH 620 0
DWIDTH 6 0
BBX 7 10 0 0
BITMAP
0024
0024
0000
1B08
9754
C3A0
02D0
02C0
0380
0340
ENDCHAR
STARTCHAR uni1EF7
ENCODING 7927
SWIDTH 505 0
DWIDTH 5 0
BBX 5 9 0 -2
BITMAP
0E00
0000
7340
A740
E700
DA40
BE40
6D00
7800
ENDCHAR
STARTCHAR uni1EF8
ENCODING 7928
SWIDTH 620 0
DWIDTH 6 0
BBX 7 9 0 0
BITMAP
00B8
0000
1B08
9754
C3A0
02D0
02C0
0380
0340
ENDCHAR
STARTCHAR uni1EF9
ENCODING 7929
SWIDTH 505 0
DWIDTH 5 0
BBX 5 9 0 -2
BITMAP
2E40
0100
7340
A740
E700
DA40
BE40
6D00
7800
ENDCHAR
STARTCHAR uni2010
ENCODING 8208
SWIDTH 290 0
DWIDTH 3 0
BBX 3 1 0 2
BITMAP
A4
ENDCHAR
STARTCHAR endash
ENCODING 8211
SWIDTH 352 0
DWIDTH 4 0
BBX 3 1 0 2
BITMAP
A8
ENDCHAR
STARTCHAR emdash
ENCODING 8212
SWIDTH 444 0
DWIDTH 4 0
BBX 4 1 0 2
BITMAP
AA
ENDCHAR
STARTCHAR quoteleft
ENCODING 8216
SWIDTH 209 0
DWIDTH 2 0
BBX 2 2 1 5
BITMAP
80
D0
ENDCHAR
STARTCHAR quoteright
ENCODING 8217
SWIDTH 238 0
DWIDTH 2 0
BBX 2 2 1 5
BITMAP
D0
80
ENDCHAR
STARTCHAR quotesinglbase
ENCODING 8218
SWIDTH 220 0
DWIDTH 2 0
BBX 1 2 0 -1
BITMAP
C0
80
ENDCHAR
STARTCHAR quotedblleft
ENCODING 8220
SWIDTH 429 0
DWIDTH 4 0
BBX 3 2 1 5
BITMAP
88
DC
ENDCHAR
STARTCHAR quotedblright
ENCODING 8221
SWIDTH 426 0
DWIDTH 4 0
BBX 4 2 1 5
BITMAP
99
88
ENDCHAR
STARTCHAR quotedblbase
ENCODING 8222
SWIDTH 440 0
DWIDTH 4 0
BBX 3 2 0 -1
BITMAP
DC
88
ENDCHAR
STARTCHAR dagger
ENCODING 8224
SWIDTH 495 0
DWIDTH 5 0
BBX 5 9 0 -2
BITMAP
0200
0500
7F40
0800
0800
1400
2400
2000
2000
ENDCHAR
STARTCHAR daggerdbl
ENCODING 8225
SWIDTH 495 0
DWIDTH 5 0
BBX 5 9 0 -2
BITMAP
0200
0500
7F40
0800
BF00
1400
2000
2000
2000
ENDCHAR
STARTCHAR bullet
ENCODING 8226
SWIDTH 434 0
DWIDTH 4 0
BBX 2 2 1 2
BITMAP
60
B0
ENDCHAR
STARTCHAR ellipsis
ENCODING 8230
SWIDTH 702 0
DWIDTH 7 0
BBX 7 2 0 0
BITMAP
5114
A728
ENDCHAR
STARTCHAR perthousand
ENCODING 8240
SWIDTH 1175 0
DWIDTH 12 0
BBX 12 7 0 0
BITMAP
291400
662000
598000
255A29
022266
056695
082868
ENDCHAR
STARTCHAR minute
ENCODING 8242
SWIDTH 196 0
DWIDTH 2 0
BBX 2 3 1 4
BITMAP
90
80
40
ENDCHAR
STARTCHAR second
ENCODING 8243
SWIDTH 341 0
DWIDTH 3 0
BBX 3 3 1 4
BITMAP
98
A4
50
ENDCHAR
STARTCHAR guilsinglleft
ENCODING 8249
SWIDTH 359 0
DWIDTH 4 0
BBX 3 3 0 1
BITMAP
14
90
14
ENDCHAR
STARTCHAR guilsinglright
ENCODING 8250
SWIDTH 344 0
DWIDTH 3 0
BBX 4 3 0 1
BITMAP
24
09
50
ENDCHAR
STARTCHAR fraction
ENCODING 8260
SWIDTH 248 0
DWIDTH 2 0
BBX 5 7 -1 0
BITMAP
0080
0200
0500
0800
2400
2000
8000
ENDCHAR
STARTCHAR uni2052
ENCODING 8274
SWIDTH 796 0
DWIDTH 8 0
BBX 6 7 1 0
BITMAP
6050
1080
0200
0500
0800
1440
20D0
ENDCHAR
STARTCHAR uni2070
ENCODING 8304
SWIDTH 379 0
DWIDTH 4 0
BBX 4 4 0 3
BITMAP
29
66
59
24
ENDCHAR
STARTCHAR uni2074
ENCODING 8308
SWIDTH 352 0
DWIDTH 4 0
BBX 4 4 0 3
BITMAP
25
28
6C
18
ENDCHAR
STARTCHAR uni2075
ENCODING 8309
SWIDTH 335 0
DWIDTH 3 0
BBX 3 4 0 3
BITMAP
28
28
5C
14
ENDCHAR
STARTCHAR uni2076
ENCODING 8310
SWIDTH 351 0
DWIDTH 4 0
BBX 4 4 0 3
BITMAP
25
68
58
24
ENDCHAR
STARTCHAR uni2077
ENCODING 8311
SWIDTH 329 0
DWIDTH 3 0
BBX 3 5 0 2
BITMAP
7C
14
20
60
10
ENDCHAR
STARTCHAR uni2078
ENCODING 8312
SWIDTH 354 0
DWIDTH 4 0
BBX 4 4 0 3
BITMAP
25
28
59
14
ENDCHAR
STARTCHAR uni2079
ENCODING 8313
SWIDTH 345 0
DWIDTH 3 0
BBX 4 5 0 2
BITMAP
28
59
19
08
50
ENDCHAR
STARTCHAR uni2080
ENCODING 8320
SWIDTH 379 0
DWIDTH 4 0
BBX 4 4 0 0
BITMAP
29
66
55
68
ENDCHAR
STARTCHAR uni2081
ENCODING 8321
SWIDTH 229 0
DWIDTH 2 0
BBX 2 4 0 0
BITMAP
70
20
60
50
ENDCHAR
STARTCHAR uni2082
ENCODING 8322
SWIDTH 328 0
DWIDTH 3 0
BBX 3 4 0 0
BITMAP
28
18
20
68
ENDCHAR
STARTCHAR uni2083
ENCODING 8323
SWIDTH 336 0
DWIDTH 3 0
BBX 3 4 0 0
BITMAP
28
18
58
68
ENDCHAR
STARTCHAR uni2084
ENCODING 8324
SWIDTH 352 0
DWIDTH 4 0
BBX 4 4 0 0
BITMAP
25
28
6C
18
ENDCHAR
STARTCHAR uni2085
ENCODING 8325
SWIDTH 335 0
DWIDTH 3 0
BBX 3 4 0 0
BITMAP
28
28
5C
58
ENDCHAR
STARTCHAR uni2086
ENCODING 8326
SWIDTH 351 0
DWIDTH 4 0
BBX 4 4 0 0
BITMAP
25
68
69
68
ENDCHAR
STARTCHAR uni2087
ENCODING 8327
SWIDTH 329 0
DWIDTH 3 0
BBX 3 4 0 0
BITMAP
7C
14
20
60
ENDCHAR
STARTCHAR uni2088
ENCODING 8328
SWIDTH 354 0
DWIDTH 4 0
BBX 4 4 0 0
BITMAP
25
28
69
68
ENDCHAR
STARTCHAR uni2089
ENCODING 8329
SWIDTH 345 0
DWIDTH 3 0
BBX 4 4 0 0
BITMAP
28
59
28
54
ENDCHAR
STARTCHAR colonmonetary
ENCODING 8353
SWIDTH 384 0
DWIDTH 4 0
BBX 4 7 0 0
BITMAP
09
1A
62
90
90
7D
54
ENDCHAR
STARTCHAR franc
ENCODING 8355
SWIDTH 529 0
DWIDTH 5 0
BBX 6 7 0 0
BITMAP
0BA0
0A00
0F40
1C00
1C00
7D00
3400
ENDCHAR
STARTCHAR lira
ENCODING 8356
SWIDTH 455 0
DWIDTH 5 0
BBX 5 7 0 0
BITMAP
0A80
1C40
6D00
7900
3400
7040
BF80
ENDCHAR
STARTCHAR uni20A6
ENCODING 8358
SWIDTH 723 0
DWIDTH 7 0
BBX 8 7 0 0
BITMAP
0B0C
0B0C
0F58
6FA9
6AF9
25F0
30E0
ENDCHAR
STARTCHAR uni20A9
ENCODING 8361
SWIDTH 841 0
DWIDTH 8 0
BBX 9 7 0 0
BITMAP
283480
28B480
2CB540
6EBA80
6EBA40
2D3800
1C3800
ENDCHAR
STARTCHAR Euro
ENCODING 8364
SWIDTH 507 0
DWIDTH 5 0
BBX 6 7 0 0
BITMAP
06E0
1D60
7D40
7A40
3800
2C40
1F40
ENDCHAR
STARTCHAR uni20AE
ENCODING 8366
SWIDTH 481 0
DWIDTH 5 0
BBX 7 7 0 0
BITMAP
2BFC
9740
C700
5B50
5E40
5D00
1C00
ENDCHAR
STARTCHAR uni20B3
ENCODING 8371
SWIDTH 573 0
DWIDTH 6 0
BBX 6 7 0 0
BITMAP
1A90
9E70
8DA0
2E40
2C00
6E00
3800
ENDCHAR
STARTCHAR uni20B4
ENCODING 8372
SWIDTH 570 0
DWIDTH 6 0
BBX 6 7 0 0
BITMAP
16C0
21C0
6A90
6A40
7180
B1C0
6A40
ENDCHAR
STARTCHAR uni20B8
ENCODING 8376
SWIDTH 522 0
DWIDTH 5 0
BBX 8 7 0 0
BITMAP
2AA9
1BFD
A340
D740
0700
0A00
0D00
ENDCHAR
STARTCHAR uni20B9
ENCODING 8377
SWIDTH 544 0
DWIDTH 5 0
BBX 6 8 0 -1
BITMAP
1A90
2B90
0340
6D00
0B00
0A00
0E00
0900
ENDCHAR
STARTCHAR uni20BA
ENCODING 8378
SWIDTH 455 0
DWIDTH 5 0
BBX 6 7 0 0
BITMAP
0E00
0E00
6D40
6D40
7890
35C0
7A00
ENDCHAR
STARTCHAR uni20BD
ENCODING 8381
SWIDTH 573 0
DWIDTH 6 0
BBX 6 7 0 0
BITMAP
1A90
9E70
8DA0
6E40
2C00
6D00
3800
ENDCHAR
STARTCHAR uni2116
ENCODING 8470
SWIDTH 996 0
DWIDTH 10 0
BBX 10 7 0 0
BITMAP
1B0C50
9B4D60
CF5A60
5AA580
25E690
25F000
30E000
ENDCHAR
STARTCHAR uni2120
ENCODING 8480
SWIDTH 585 0
DWIDTH 6 0
BBX 5 4 1 4
BITMAP
1140
5640
6A40
5500
ENDCHAR
STARTCHAR trademark
ENCODING 8482
SWIDTH 379 0
DWIDTH 4 0
BBX 4 3 0 4
BITMAP
55
49
59
ENDCHAR
STARTCHAR uni2126
ENCODING 8486
SWIDTH 745 0
DWIDTH 7 0
BBX 7 8 0 0
BITMAP
02E4
0918
240C
300C
2018
2024
1450
A8E4
ENDCHAR
STARTCHAR uni212A
ENCODING 8490
SWIDTH 601 0
DWIDTH 6 0
BBX 7 7 0 0
BITMAP
1A24
8E80
4E80
1CD0
2CD0
29C0
35C0
ENDCHAR
STARTCHAR uni212B
ENCODING 8491
SWIDTH 668 0
DWIDTH 7 0
BBX 7 11 0 -1
BITMAP
0004
0018
0068
01A8
0234
6A74
9C70
28A0
34E0
3090
2000
ENDCHAR
STARTCHAR estimated
ENCODING 8494
SWIDTH 786 0
DWIDTH 8 0
BBX 8 8 0 0
BITMAP
0690
2428
741D
BAA9
B400
7400
2414
0690
ENDCHAR
STARTCHAR uni2153
ENCODING 8531
SWIDTH 733 0
DWIDTH 7 0
BBX 7 8 0 0
BITMAP
1000
7020
2080
6140
4228
0518
085C
2068
ENDCHAR
STARTCHAR uni2154
ENCODING 8532
SWIDTH 852 0
DWIDTH 9 0
BBX 9 7 0 0
BITMAP
280800
181400
102000
688A40
014600
020640
051A00
ENDCHAR
STARTCHAR oneeighth
ENCODING 8539
SWIDTH 741 0
DWIDTH 7 0
BBX 8 8 0 0
BITMAP
1000
7020
2080
6140
4225
0528
085C
2068
ENDCHAR
STARTCHAR threeeighths
ENCODING 8540
SWIDTH 828 0
DWIDTH 8 0
BBX 8 7 0 0
BITMAP
2818
1820
5C50
148A
024E
0627
0826
ENDCHAR
STARTCHAR fiveeighths
ENCODING 8541
SWIDTH 827 0
DWIDTH 8 0
BBX 8 7 0 0
BITMAP
2818
2820
5C50
148A
024E
0627
0826
ENDCHAR
STARTCHAR seveneighths
ENCODING 8542
SWIDTH 761 0
DWIDTH 8 0
BBX 8 7 0 0
BITMAP
7C20
1450
2080
6225
1528
0869
1468
ENDCHAR
STARTCHAR partialdiff
ENCODING 8706
SWIDTH 597 0
DWIDTH 6 0
BBX 6 8 0 0
BITMAP
0690
0020
0020
1AA0
2060
9090
9180
2900
ENDCHAR
STARTCHAR uni2206
ENCODING 8710
SWIDTH 619 0
DWIDTH 6 0
BBX 6 8 0 0
BITMAP
0080
02D0
0690
0860
1860
2070
9030
AAB0
ENDCHAR
STARTCHAR product
ENCODING 8719
SWIDTH 661 0
DWIDTH 7 0
BBX 7 8 0 0
BITMAP
6AE4
2480
2080
2180
6240
5200
8200
4100
ENDCHAR
STARTCHAR summation
ENCODING 8721
SWIDTH 605 0
DWIDTH 6 0
BBX 6 8 0 0
BITMAP
1EA0
0C00
0900
0300
0600
1800
2000
BA80
ENDCHAR
STARTCHAR minus
ENCODING 8722
SWIDTH 471 0
DWIDTH 5 0
BBX 4 1 0 3
BITMAP
6A
ENDCHAR
STARTCHAR uni2215
ENCODING 8725
SWIDTH 488 0
DWIDTH 5 0
BBX 5 8 0 0
BITMAP
0040
0140
0200
0900
0800
2000
6000
8000
ENDCHAR
STARTCHAR uni2219
ENCODING 8729
SWIDTH 434 0
DWIDTH 4 0
BBX 2 2 1 2
BITMAP
A0
B0
ENDCHAR
STARTCHAR radical
ENCODING 8730
SWIDTH 660 0
DWIDTH 7 0
BBX 7 8 0 0
BITMAP
00A4
0140
0200
0200
0500
A800
2800
2400
ENDCHAR
STARTCHAR infinity
ENCODING 8734
SWIDTH 833 0
DWIDTH 8 0
BBX 8 4 0 1
BITMAP
2928
5289
9288
68A4
ENDCHAR
STARTCHAR integral
ENCODING 8747
SWIDTH 305 0
DWIDTH 3 0
BBX 5 10 -1 -2
BITMAP
0240
0600
0900
0800
0C00
0800
1400
2400
2000
9000
ENDCHAR
STARTCHAR approxequal
ENCODING 8776
SWIDTH 441 0
DWIDTH 4 0
BBX 5 3 0 1
BITMAP
2A40
0000
6A00
ENDCHAR
STARTCHAR notequal
ENCODING 8800
SWIDTH 500 0
DWIDTH 5 0
BBX 5 5 0 0
BITMAP
0400
3F80
0800
BF00
1400
ENDCHAR
STARTCHAR lessequal
ENCODING 8804
SWIDTH 405 0
DWIDTH 4 0
BBX 4 5 0 1
BITMAP
06
64
28
05
A9
ENDCHAR
STARTCHAR greaterequal
ENCODING 8805
SWIDTH 405 0
DWIDTH 4 0
BBX 4 5 0 1
BITMAP
24
0A
28
40
AA
ENDCHAR
STARTCHAR lozenge
ENCODING 9674
SWIDTH 619 0
DWIDTH 6 0
BBX 6 8 0 0
BITMAP
0140
0680
1880
2050
5060
2080
2600
1D00
ENDCHAR
STARTCHAR uni27E8
ENCODING 10216
SWIDTH 456 0
DWIDTH 5 0
BBX 5 10 0 -1
BITMAP
0040
0200
0500
1400
2000
5000
2000
1400
0800
0200
ENDCHAR
STARTCHAR uni27E9
ENCODING 10217
SWIDTH 456 0
DWIDTH 5 0
BBX 4 10 0 -2
BITMAP
10
14
08
05
02
05
08
20
50
40
ENDCHAR
STARTCHAR ff
ENCODING 64256
SWIDTH 508 0
DWIDTH 5 0
BBX 8 9 -2 -2
BITMAP
02EF
0368
0779
0A74
0E70
0DA0
1DE0
ADD0
BB80
ENDCHAR
STARTCHAR fi
ENCODING 64257
SWIDTH 534 0
DWIDTH 5 0
BBX 8 9 -2 -2
BITMAP
01A8
0354
0768
0A34
0E74
0D71
1C78
AC00
B400
ENDCHAR
STARTCHAR fl
ENCODING 64258
SWIDTH 548 0
DWIDTH 5 0
BBX 8 9 -2 -2
BITMAP
02A8
035C
076C
0A28
0E34
0D75
1C38
AC00
B400
ENDCHAR
STARTCHAR ffi
ENCODING 64259
SWIDTH 764 0
DWIDTH 8 0
BBX 10 9 -2 -2
BITMAP
02EA80
036880
07BAC0
0A7280
0EB380
0DA350
1DD3D0
ADD000
BB8000
ENDCHAR
STARTCHAR ffl
ENCODING 64260
SWIDTH 780 0
DWIDTH 8 0
BBX 10 9 -2 -2
BITMAP
02EE90
0378D0
07B9D0
0A71C0
0EB280
0DA390
1DD2D0
ADD000
BB8000
ENDCHAR
STARTCHAR .notdef
ENCODING -1
SWIDTH 810 0
DWIDTH 8 0
BBX 8 13 0 -3
BITMAP
0556
0401
0401
0401
1155
1254
1044
1104
1104
4010
4010
4010
9550
ENDCHAR
STARTCHAR A.salt
ENCODING -1
SWIDTH 590 0
DWIDTH 6 0
BBX 6 8 0 -1
BITMAP
01B0
06B0
08A0
2AD0
31C0
A1C0
9280
9000
ENDCHAR
STARTCHAR B.salt
ENCODING -1
SWIDTH 633 0
DWIDTH 6 0
BBX 6 7 0 0
BITMAP
2A90
9A60
8ED0
1CB0
2CB0
28D0
3F80
ENDCHAR
STARTCHAR E.salt
ENCODING -1
SWIDTH 554 0
DWIDTH 6 0
BBX 6 7 0 0
BITMAP
2FF0
9E00
CD00
5E40
2C00
2800
3F80
ENDCHAR
STARTCHAR N.salt
ENCODING -1
SWIDTH 669 0
DWIDTH 7 0
BBX 7 7 0 0
BITMAP
1BB0
9E34
DD34
1D70
2CA0
38E4
34B4
ENDCHAR
STARTCHAR i.loclTRK
ENCODING -1
SWIDTH 267 0
DWIDTH 3 0
BBX 3 7 0 0
BITMAP
34
10
70
A0
E0
D4
B4
ENDCHAR
STARTCHAR a.end
ENCODING -1
SWIDTH 467 0
DWIDTH 5 0
BBX 5 5 0 0
BITMAP
2B80
A340
D340
D700
B740
ENDCHAR
STARTCHAR aacute.end
ENCODING -1
SWIDTH 461 0
DWIDTH 5 0
BBX 5 7 0 0
BITMAP
0200
0500
2B80
A340
D740
DB00
B740
ENDCHAR
STARTCHAR c.end
ENCODING -1
SWIDTH 341 0
DWIDTH 3 0
BBX 5 5 -1 0
BITMAP
0A40
2840
3400
7400
2E00
ENDCHAR
STARTCHAR d.end
ENCODING -1
SWIDTH 476 0
DWIDTH 5 0
BBX 5 7 0 0
BITMAP
0180
02C0
2B80
A340
D740
DB00
B740
ENDCHAR
STARTCHAR e.end
ENCODING -1
SWIDTH 366 0
DWIDTH 4 0
BBX 4 5 0 0
BITMAP
29
A5
E4
D0
B8
ENDCHAR
STARTCHAR eacute.end
ENCODING -1
SWIDTH 367 0
DWIDTH 4 0
BBX 4 7 0 0
BITMAP
06
04
2A
A5
E4
D0
B8
ENDCHAR
STARTCHAR uni0292.end
ENCODING -1
SWIDTH 391 0
DWIDTH 4 0
BBX 4 7 0 -2
BITMAP
AE
6C
74
28
2C
AC
B4
ENDCHAR
STARTCHAR g.end
ENCODING -1
SWIDTH 480 0
DWIDTH 5 0
BBX 5 7 0 -2
BITMAP
2B80
A340
D740
D700
BE00
5E00
7800
ENDCHAR
STARTCHAR uni01E5.end
ENCODING -1
SWIDTH 507 0
DWIDTH 5 0
BBX 5 7 0 -2
BITMAP
2B80
A340
D740
D700
BE00
6E00
7800
ENDCHAR
STARTCHAR h.end
ENCODING -1
SWIDTH 453 0
DWIDTH 5 0
BBX 6 7 -1 0
BITMAP
0900
1D00
1EC0
2DD0
39C0
36C0
71D0
ENDCHAR
STARTCHAR i.end
ENCODING -1
SWIDTH 209 0
DWIDTH 2 0
BBX 3 7 0 0
BITMAP
34
10
70
A0
E0
D0
A0
ENDCHAR
STARTCHAR iacute.end
ENCODING -1
SWIDTH 209 0
DWIDTH 2 0
BBX 3 7 0 0
BITMAP
18
10
70
A0
E0
D0
A0
ENDCHAR
STARTCHAR ij.end
ENCODING -1
SWIDTH 480 0
DWIDTH 5 0
BBX 5 10 0 -2
BITMAP
1040
35C0
0000
7280
A340
E740
D700
BA00
5E00
7800
ENDCHAR
STARTCHAR j.end
ENCODING -1
SWIDTH 213 0
DWIDTH 2 0
BBX 5 10 -2 -2
BITMAP
0100
0340
0000
0700
0A00
0E00
0D00
1C00
AC00
B400
ENDCHAR
STARTCHAR k.end
ENCODING -1
SWIDTH 472 0
DWIDTH 5 0
BBX 6 7 -1 0
BITMAP
0900
1D00
1C90
2F40
3AC0
35C0
75D0
ENDCHAR
STARTCHAR l.end
ENCODING -1
SWIDTH 207 0
DWIDTH 2 0
BBX 3 7 0 0
BITMAP
24
74
70
A0
E0
D0
E0
ENDCHAR
STARTCHAR m.end
ENCODING -1
SWIDTH 701 0
DWIDTH 7 0
BBX 8 5 -1 0
BITMAP
1EDE
2DDA
39CE
36CD
728E
ENDCHAR
STARTCHAR n.end
ENCODING -1
SWIDTH 454 0
DWIDTH 5 0
BBX 6 5 -1 0
BITMAP
1EC0
2DD0
39C0
36C0
71D0
ENDCHAR
STARTCHAR o.end
ENCODING -1
SWIDTH 487 0
DWIDTH 5 0
BBX 5 5 0 0
BITMAP
2A00
A340
D200
D500
B800
ENDCHAR
STARTCHAR oacute.end
ENCODING -1
SWIDTH 487 0
DWIDTH 5 0
BBX 5 7 0 0
BITMAP
0600
0400
2A00
B340
D200
D500
B800
ENDCHAR
STARTCHAR s.end
ENCODING -1
SWIDTH 316 0
DWIDTH 3 0
BBX 4 6 -1 0
BITMAP
01
0B
1B
27
67
2D
ENDCHAR
STARTCHAR t.end
ENCODING -1
SWIDTH 276 0
DWIDTH 3 0
BBX 3 7 0 0
BITMAP
14
74
B4
B0
A0
D0
A0
ENDCHAR
STARTCHAR u.end
ENCODING -1
SWIDTH 459 0
DWIDTH 5 0
BBX 5 5 0 0
BITMAP
7340
A740
E700
DB00
B740
ENDCHAR
STARTCHAR uacute.end
ENCODING -1
SWIDTH 459 0
DWIDTH 5 0
BBX 5 7 0 0
BITMAP
0600
0400
7340
A740
E700
DB00
B740
ENDCHAR
STARTCHAR x.end
ENCODING -1
SWIDTH 500 0
DWIDTH 5 0
BBX 5 6 0 0
BITMAP
0080
2D80
4E40
4A00
1B00
5740
ENDCHAR
STARTCHAR y.end
ENCODING -1
SWIDTH 460 0
DWIDTH 5 0
BBX 5 7 0 -2
BITMAP
7340
A740
E700
DA00
BE00
5D00
7800
ENDCHAR
STARTCHAR k.salt
ENCODING -1
SWIDTH 518 0
DWIDTH 5 0
BBX 7 7 -1 0
BITMAP
0900
1D00
1D90
2E40
3AC0
35C4
75E0
ENDCHAR
STARTCHAR p.salt
ENCODING -1
SWIDTH 482 0
DWIDTH 5 0
BBX 6 9 -1 -3
BITMAP
0800
1EC0
2CD0
38E0
3AC0
7740
B000
A000
4000
ENDCHAR
STARTCHAR E_x
ENCODING -1
SWIDTH 797 0
DWIDTH 8 0
BBX 9 7 0 0
BITMAP
0A8000
284600
1C7200
747900
B03800
F0B940
7E5D00
ENDCHAR
STARTCHAR F_i
ENCODING -1
SWIDTH 726 0
DWIDTH 7 0
BBX 8 7 0 0
BITMAP
2BFC
9A14
4F78
0D34
1C70
2871
2878
ENDCHAR
STARTCHAR T_h
ENCODING -1
SWIDTH 971 0
DWIDTH 10 0
BBX 10 7 0 0
BITMAP
2BE900
935C00
C72F80
0A29C0
0E3680
0D7390
1CB2D0
ENDCHAR
STARTCHAR T_i
ENCODING -1
SWIDTH 744 0
DWIDTH 7 0
BBX 8 7 0 0
BITMAP
2BFD
9354
C728
0A38
0E34
0D75
1C38
ENDCHAR
STARTCHAR a_x
ENCODING -1
SWIDTH 899 0
DWIDTH 9 0
BBX 10 6 0 0
BITMAP
000040
2B9C80
A35D40
D34E00
D71E50
B7D780
ENDCHAR
STARTCHAR a_z
ENCODING -1
SWIDTH 906 0
DWIDTH 9 0
BBX 9 5 0 0
BITMAP
2B9B80
A35740
D34A00
D71D40
B77E40
ENDCHAR
STARTCHAR b_s
ENCODING -1
SWIDTH 799 0
DWIDTH 8 0
BBX 8 7 0 0
BITMAP
2400
7404
7A2C
A35D
E31D
D69D
B8B9
ENDCHAR
STARTCHAR b_s_x
ENCODING -1
SWIDTH 1144 0
DWIDTH 11 0
BBX 12 8 0 0
BITMAP
100000
340000
740408
762CD5
A35DA8
E31DB4
D69DB1
B8B939
ENDCHAR
STARTCHAR b_s_z
ENCODING -1
SWIDTH 1158 0
DWIDTH 12 0
BBX 12 7 0 0
BITMAP
240000
740400
7A2CAD
A35D68
E31D70
D69DA4
B8B9E8
ENDCHAR
STARTCHAR c_x
ENCODING -1
SWIDTH 755 0
DWIDTH 8 0
BBX 8 6 0 0
BITMAP
0004
29E9
A1A8
D074
D0B1
B93D
ENDCHAR
STARTCHAR c_z
ENCODING -1
SWIDTH 769 0
DWIDTH 8 0
BBX 9 5 -1 0
BITMAP
0A6B40
285A00
341D00
742900
2E7E00
ENDCHAR
STARTCHAR e_x
ENCODING -1
SWIDTH 762 0
DWIDTH 8 0
BBX 8 6 0 0
BITMAP
0004
2AA5
A5B8
E474
D0B5
B92D
ENDCHAR
STARTCHAR e_z
ENCODING -1
SWIDTH 788 0
DWIDTH 8 0
BBX 9 5 -1 0
BITMAP
0A6B80
295700
390D00
742940
2E3E40
ENDCHAR
STARTCHAR eacute_x
ENCODING -1
SWIDTH 760 0
DWIDTH 8 0
BBX 8 7 0 0
BITMAP
0600
0404
29A5
A5A8
E470
D1B5
B92D
ENDCHAR
STARTCHAR f_f_t
ENCODING -1
SWIDTH 780 0
DWIDTH 8 0
BBX 10 9 -2 -2
BITMAP
02EE90
0378D0
07BAD0
0A72C0
0EB280
0DA390
1DD2D0
ADD000
BB8000
ENDCHAR
STARTCHAR f_i_x
ENCODING -1
SWIDTH 898 0
DWIDTH 9 0
BBX 12 9 -2 -2
BITMAP
01A800
035404
0769C8
0A35D4
0E74E0
0D71E5
1C7978
AC0000
B40000
ENDCHAR
STARTCHAR f_i_z
ENCODING -1
SWIDTH 904 0
DWIDTH 9 0
BBX 11 9 -2 -2
BITMAP
01A800
035400
0769B8
0A3574
0E74A0
0D71D4
1C7BE4
AC0000
B40000
ENDCHAR
STARTCHAR f_l_x
ENCODING -1
SWIDTH 912 0
DWIDTH 9 0
BBX 12 9 -2 -2
BITMAP
02A800
035C04
076DD8
0A28D4
0E34E0
0D75E1
1C3D78
AC0000
B40000
ENDCHAR
STARTCHAR f_l_z
ENCODING -1
SWIDTH 938 0
DWIDTH 9 0
BBX 11 9 -2 -2
BITMAP
02A800
035C00
076CAC
0A2874
0E3470
0D74D4
1C3AE8
AC0000
B40000
ENDCHAR
STARTCHAR f_t
ENCODING -1
SWIDTH 548 0
DWIDTH 5 0
BBX 8 9 -2 -2
BITMAP
02A8
035C
076D
0A28
0E34
0D75
1C38
AC00
B400
ENDCHAR
STARTCHAR f_u
ENCODING -1
SWIDTH 772 0
DWIDTH 8 0
BBX 10 9 -2 -2
BITMAP
02E000
034000
0779C0
0A36C0
0E7680
0D7790
1C7AD0
AC0000
B40000
ENDCHAR
STARTCHAR f_x
ENCODING -1
SWIDTH 663 0
DWIDTH 7 0
BBX 9 9 -2 -2
BITMAP
02E000
034100
077940
0A2A00
0E2D00
0D5D40
1C9B40
6C0000
B40000
ENDCHAR
STARTCHAR g_p
ENCODING -1
SWIDTH 975 0
DWIDTH 10 0
BBX 10 8 0 -2
BITMAP
000800
2B9ED0
A36CD0
D768D0
DB35C0
BFBF40
1E7000
6CA000
ENDCHAR
STARTCHAR g_x
ENCODING -1
SWIDTH 892 0
DWIDTH 9 0
BBX 9 8 0 -2
BITMAP
000040
2B9D80
A35D40
D34E00
D71E40
BF4B40
1E0000
6C0000
ENDCHAR
STARTCHAR g_z
ENCODING -1
SWIDTH 907 0
DWIDTH 9 0
BBX 9 7 0 -2
BITMAP
2B9B80
A35740
D74A00
DB1D40
BE3E40
5E0000
780000
ENDCHAR
STARTCHAR i_x
ENCODING -1
SWIDTH 631 0
DWIDTH 6 0
BBX 7 7 0 0
BITMAP
3400
1020
7360
A390
E2C0
D6C4
B4E0
ENDCHAR
STARTCHAR i_z
ENCODING -1
SWIDTH 637 0
DWIDTH 6 0
BBX 6 7 0 0
BITMAP
3400
1000
76B0
A1D0
E1C0
D350
ABA0
ENDCHAR
STARTCHAR iacute_x
ENCODING -1
SWIDTH 631 0
DWIDTH 6 0
BBX 7 7 0 0
BITMAP
1800
0020
7360
A390
E2C0
D6C4
B4E0
ENDCHAR
STARTCHAR iacute_z
ENCODING -1
SWIDTH 637 0
DWIDTH 6 0
BBX 6 7 0 0
BITMAP
1800
1000
72B0
A5D0
E1C0
D350
ABA0
ENDCHAR
STARTCHAR j_x
ENCODING -1
SWIDTH 624 0
DWIDTH 6 0
BBX 9 10 -2 -2
BITMAP
010000
034000
000200
077600
0A3900
0E2800
0D7C40
1D5E00
AC0000
B40000
ENDCHAR
STARTCHAR j_z
ENCODING -1
SWIDTH 618 0
DWIDTH 6 0
BBX 8 10 -2 -2
BITMAP
0100
0340
0000
076F
0A5D
0E28
0D75
1CB9
AC00
B400
ENDCHAR
STARTCHAR l_x
ENCODING -1
SWIDTH 631 0
DWIDTH 6 0
BBX 7 8 0 0
BITMAP
1000
3400
7420
7360
A390
E2C0
D6C4
B4E0
ENDCHAR
STARTCHAR l_z
ENCODING -1
SWIDTH 635 0
DWIDTH 6 0
BBX 6 7 0 0
BITMAP
2400
7400
76B0
A1D0
E2C0
D350
EBA0
ENDCHAR
STARTCHAR m_x
ENCODING -1
SWIDTH 1124 0
DWIDTH 11 0
BBX 13 6 -1 0
BITMAP
00000200
1FEE3600
2DDA3900
39CE2800
36CD7C40
728B5E00
ENDCHAR
STARTCHAR m_z
ENCODING -1
SWIDTH 1125 0
DWIDTH 11 0
BBX 12 5 -1 0
BITMAP
1EDE6B
2DDA1D
39CE28
36CD75
728EBA
ENDCHAR
STARTCHAR n_z
ENCODING -1
SWIDTH 882 0
DWIDTH 9 0
BBX 10 5 -1 0
BITMAP
1ECAE0
2DD5C0
39C340
36CA40
71DF80
ENDCHAR
STARTCHAR o_ae
ENCODING -1
SWIDTH 1089 0
DWIDTH 11 0
BBX 11 5 0 0
BITMAP
2A1BA8
B74298
E22B90
D5A744
B87AE0
ENDCHAR
STARTCHAR o_s
ENCODING -1
SWIDTH 786 0
DWIDTH 8 0
BBX 8 5 0 0
BITMAP
292C
A35C
D21C
D69D
B8B8
ENDCHAR
STARTCHAR o_s_x
ENCODING -1
SWIDTH 1132 0
DWIDTH 11 0
BBX 12 6 0 0
BITMAP
000004
292CD8
A35CD8
D21CB4
D69DB1
B8B978
ENDCHAR
STARTCHAR o_s_z
ENCODING -1
SWIDTH 1139 0
DWIDTH 11 0
BBX 11 5 0 0
BITMAP
292CAC
B35D68
D21C70
D69DD4
B8BAE8
ENDCHAR
STARTCHAR o_x
ENCODING -1
SWIDTH 851 0
DWIDTH 9 0
BBX 9 6 0 0
BITMAP
000100
2A3A40
B36A00
D22C00
D56C40
B88E40
ENDCHAR
STARTCHAR oacute_s
ENCODING -1
SWIDTH 787 0
DWIDTH 8 0
BBX 8 7 0 0
BITMAP
0600
0400
292C
B35C
D21C
D69D
B8B8
ENDCHAR
STARTCHAR oacute_s_x
ENCODING -1
SWIDTH 1141 0
DWIDTH 11 0
BBX 11 7 0 0
BITMAP
060000
040000
2A2CAC
B35D68
E21C70
D69DD4
B8BAE8
ENDCHAR
STARTCHAR oacute_s_z
ENCODING -1
SWIDTH 1140 0
DWIDTH 11 0
BBX 11 7 0 0
BITMAP
060000
040000
292CAC
B35D68
E21C70
D69DD4
B8BAE8
ENDCHAR
STARTCHAR oacute_x
ENCODING -1
SWIDTH 852 0
DWIDTH 9 0
BBX 9 7 0 0
BITMAP
060000
040100
2A3A40
B36A00
D22C00
D56C40
B88E40
ENDCHAR
STARTCHAR r_x
ENCODING -1
SWIDTH 784 0
DWIDTH 8 0
BBX 9 6 -1 0
BITMAP
000140
1EA880
285D00
381D00
345D40
709B40
ENDCHAR
STARTCHAR r_z
ENCODING -1
SWIDTH 654 0
DWIDTH 7 0
BBX 8 5 -1 0
BITMAP
1EED
2868
3870
34E4
71E8
ENDCHAR
STARTCHAR s_x
ENCODING -1
SWIDTH 727 0
DWIDTH 7 0
BBX 9 6 -1 0
BITMAP
050200
0B3600
1B3900
272800
67AC40
2E1E00
ENDCHAR
STARTCHAR s_z
ENCODING -1
SWIDTH 744 0
DWIDTH 7 0
BBX 8 6 -1 0
BITMAP
0100
0B2B
0B1A
271C
6735
2EBA
ENDCHAR
STARTCHAR t_x
ENCODING -1
SWIDTH 631 0
DWIDTH 6 0
BBX 7 7 0 0
BITMAP
1400
7410
B760
A3A0
E2C0
D6C4
B5E0
ENDCHAR
STARTCHAR t_z
ENCODING -1
SWIDTH 704 0
DWIDTH 7 0
BBX 7 7 0 0
BITMAP
1400
7400
B5B8
B174
A0A0
D1D4
A3E4
ENDCHAR
STARTCHAR u_v
ENCODING -1
SWIDTH 923 0
DWIDTH 9 0
BBX 9 5 0 0
BITMAP
736D80
A76C80
E72880
DB3540
BE2D00
ENDCHAR
STARTCHAR u_x
ENCODING -1
SWIDTH 878 0
DWIDTH 9 0
BBX 9 6 0 0
BITMAP
000140
736880
A75E00
E71D00
DB2D40
B79B40
ENDCHAR
STARTCHAR y_p
ENCODING -1
SWIDTH 954 0
DWIDTH 10 0
BBX 10 8 0 -2
BITMAP
001400
736EC0
A768D0
E735C0
DB76C0
BFBF40
6DA000
789000
ENDCHAR
STARTCHAR y_x
ENCODING -1
SWIDTH 871 0
DWIDTH 9 0
BBX 9 8 0 -2
BITMAP
000240
736840
A35E00
E71D00
DB2D40
BE4B40
6D0000
780000
ENDCHAR
STARTCHAR y_z
ENCODING -1
SWIDTH 888 0
DWIDTH 9 0
BBX 9 7 0 -2
BITMAP
736B80
A75700
E70D00
DA2940
BE3E40
5D0000
780000
ENDCHAR
STARTCHAR a_x.end
ENCODING -1
SWIDTH 884 0
DWIDTH 9 0
BBX 9 6 0 0
BITMAP
000040
2B9C80
A35D40
D34E00
D71E00
B7D740
ENDCHAR
STARTCHAR b_s.end
ENCODING -1
SWIDTH 731 0
DWIDTH 7 0
BBX 8 7 0 0
BITMAP
2400
7404
7A2C
A35D
E31D
D69D
B8B8
ENDCHAR
STARTCHAR e_x.end
ENCODING -1
SWIDTH 747 0
DWIDTH 7 0
BBX 8 6 0 0
BITMAP
0004
2AA5
A5B8
E474
D0B4
B928
ENDCHAR
STARTCHAR f_u.end
ENCODING -1
SWIDTH 724 0
DWIDTH 7 0
BBX 9 9 -2 -2
BITMAP
02E000
034000
0779C0
0A36C0
0E7680
0D7780
1C7AC0
AC0000
B40000
ENDCHAR
STARTCHAR fi.end
ENCODING -1
SWIDTH 479 0
DWIDTH 5 0
BBX 7 9 -2 -2
BITMAP
01A8
0354
0768
0A34
0E74
0D70
1C74
AC00
B400
ENDCHAR
STARTCHAR fl.end
ENCODING -1
SWIDTH 490 0
DWIDTH 5 0
BBX 7 9 -2 -2
BITMAP
02A8
035C
076C
0A28
0E34
0D74
1C38
AC00
B400
ENDCHAR
STARTCHAR i_x.end
ENCODING -1
SWIDTH 616 0
DWIDTH 6 0
BBX 6 7 0 0
BITMAP
3400
1020
7360
A390
E2C0
D6C0
B4D0
ENDCHAR
STARTCHAR o_s.end
ENCODING -1
SWIDTH 718 0
DWIDTH 7 0
BBX 7 5 0 0
BITMAP
292C
A35C
D21C
D69C
B8B8
ENDCHAR
STARTCHAR oacute_s.end
ENCODING -1
SWIDTH 719 0
DWIDTH 7 0
BBX 7 7 0 0
BITMAP
0600
0400
292C
B35C
D21C
D69C
B8B8
ENDCHAR
STARTCHAR u_x.end
ENCODING -1
SWIDTH 863 0
DWIDTH 9 0
BBX 9 6 0 0
BITMAP
000140
736880
A35E00
E71D00
DB2D00
B79B00
ENDCHAR
STARTCHAR uni0424.loclBGR
ENCODING -1
SWIDTH 840 0
DWIDTH 8 0
BBX 9 9 0 -1
BITMAP
05A000
18A000
0AE900
75D700
A1C340
A28700
A38E00
1BA400
070000
ENDCHAR
STARTCHAR uni0492.loclBSH
ENCODING -1
SWIDTH 459 0
DWIDTH 5 0
BBX 6 7 0 0
BITMAP
2FF0
9E00
4E40
1C00
2800
2800
3400
ENDCHAR
STARTCHAR uni04AA.loclCHU
ENCODING -1
SWIDTH 497 0
DWIDTH 5 0
BBX 6 9 0 -2
BITMAP
0A80
2890
7400
B000
B000
B040
7E40
0900
1500
ENDCHAR
STARTCHAR uni0418.loclSRB
ENCODING -1
SWIDTH 705 0
DWIDTH 7 0
BBX 8 7 0 0
BITMAP
1B1D
5A2C
8DB8
1EB8
1E34
2C70
38B0
ENDCHAR
STARTCHAR uni0419.loclSRB
ENCODING -1
SWIDTH 705 0
DWIDTH 7 0
BBX 8 10 0 0
BITMAP
0184
01A0
0000
1B1D
5A2C
8DB8
1EB8
1E34
2C70
38B0
ENDCHAR
STARTCHAR uni0430.end
ENCODING -1
SWIDTH 467 0
DWIDTH 5 0
BBX 5 5 0 0
BITMAP
2B80
A340
D340
D700
B740
ENDCHAR
STARTCHAR uni0432.end
ENCODING -1
SWIDTH 406 0
DWIDTH 4 0
BBX 4 7 0 0
BITMAP
1A
36
72
AA
D3
D6
B8
ENDCHAR
STARTCHAR uni0434.end
ENCODING -1
SWIDTH 480 0
DWIDTH 5 0
BBX 5 7 0 -2
BITMAP
2B80
A340
D740
D700
BE00
5E00
7800
ENDCHAR
STARTCHAR uni0435.end
ENCODING -1
SWIDTH 366 0
DWIDTH 4 0
BBX 4 5 0 0
BITMAP
29
A5
E4
D0
B8
ENDCHAR
STARTCHAR uni0451.end
ENCODING -1
SWIDTH 366 0
DWIDTH 4 0
BBX 4 7 0 0
BITMAP
27
00
29
A5
E4
D0
B8
ENDCHAR
STARTCHAR uni0436.end
ENCODING -1
SWIDTH 848 0
DWIDTH 8 0
BBX 10 5 -1 0
BITMAP
1A3590
137710
07BA00
16AA00
68E780
ENDCHAR
STARTCHAR uni0437.end
ENCODING -1
SWIDTH 426 0
DWIDTH 4 0
BBX 5 7 0 -2
BITMAP
2E00
5740
4B00
2D00
0D00
5D00
7800
ENDCHAR
STARTCHAR uni0438.end
ENCODING -1
SWIDTH 459 0
DWIDTH 5 0
BBX 5 5 0 0
BITMAP
7340
A740
E700
DB00
B740
ENDCHAR
STARTCHAR uni0439.end
ENCODING -1
SWIDTH 459 0
DWIDTH 5 0
BBX 5 7 0 0
BITMAP
1440
1A00
7340
A740
E700
DB00
B740
ENDCHAR
STARTCHAR uni043A.end
ENCODING -1
SWIDTH 501 0
DWIDTH 5 0
BBX 6 5 -1 0
BITMAP
1CA0
2E00
3A80
3680
71D0
ENDCHAR
STARTCHAR uni043B.end
ENCODING -1
SWIDTH 511 0
DWIDTH 5 0
BBX 6 5 -1 0
BITMAP
01B0
02A0
05A0
68D0
68A0
ENDCHAR
STARTCHAR uni043C.end
ENCODING -1
SWIDTH 780 0
DWIDTH 8 0
BBX 9 5 -1 0
BITMAP
01C380
02DB40
05DB40
64E700
28E740
ENDCHAR
STARTCHAR uni043D.end
ENCODING -1
SWIDTH 460 0
DWIDTH 5 0
BBX 6 5 -1 0
BITMAP
1CD0
28D0
3EC0
35C0
75D0
ENDCHAR
STARTCHAR uni043E.end
ENCODING -1
SWIDTH 439 0
DWIDTH 4 0
BBX 4 5 0 0
BITMAP
2A
B2
D2
D5
B8
ENDCHAR
STARTCHAR uni043F.end
ENCODING -1
SWIDTH 454 0
DWIDTH 5 0
BBX 6 5 -1 0
BITMAP
1EC0
2DD0
39C0
36C0
71D0
ENDCHAR
STARTCHAR uni0441.end
ENCODING -1
SWIDTH 341 0
DWIDTH 3 0
BBX 5 5 -1 0
BITMAP
0A40
2840
3400
7400
2E00
ENDCHAR
STARTCHAR uni0442.end
ENCODING -1
SWIDTH 701 0
DWIDTH 7 0
BBX 8 5 -1 0
BITMAP
1EDE
2DDA
39CE
36CD
728E
ENDCHAR
STARTCHAR uni0443.end
ENCODING -1
SWIDTH 460 0
DWIDTH 5 0
BBX 5 7 0 -2
BITMAP
7340
A740
E700
DA00
BE00
5D00
7800
ENDCHAR
STARTCHAR uni0445.end
ENCODING -1
SWIDTH 500 0
DWIDTH 5 0
BBX 5 6 0 0
BITMAP
0080
2D80
4E40
4A00
1B00
5740
ENDCHAR
STARTCHAR uni0447.end
ENCODING -1
SWIDTH 459 0
DWIDTH 5 0
BBX 5 5 0 0
BITMAP
7340
A740
BB00
1B00
0740
ENDCHAR
STARTCHAR uni0448.end
ENCODING -1
SWIDTH 706 0
DWIDTH 7 0
BBX 7 5 0 0
BITMAP
735C
A768
E738
DB74
B7A8
ENDCHAR
STARTCHAR uni044B.end
ENCODING -1
SWIDTH 608 0
DWIDTH 6 0
BBX 6 5 0 0
BITMAP
70B0
AAA0
E6E0
D9D0
B8A0
ENDCHAR
STARTCHAR uni0455.end
ENCODING -1
SWIDTH 316 0
DWIDTH 3 0
BBX 4 6 -1 0
BITMAP
01
0B
1B
27
67
2D
ENDCHAR
STARTCHAR uni0456.end
ENCODING -1
SWIDTH 209 0
DWIDTH 2 0
BBX 3 7 0 0
BITMAP
34
10
70
A0
E0
D0
A0
ENDCHAR
STARTCHAR uni0458.end
ENCODING -1
SWIDTH 213 0
DWIDTH 2 0
BBX 5 10 -2 -2
BITMAP
0100
0340
0000
0700
0A00
0E00
0D00
1C00
AC00
B400
ENDCHAR
STARTCHAR uni044E.end
ENCODING -1
SWIDTH 675 0
DWIDTH 7 0
BBX 8 5 -1 0
BITMAP
1C68
2DD9
3EC8
3688
75E4
ENDCHAR
STARTCHAR uni044F.end
ENCODING -1
SWIDTH 480 0
DWIDTH 5 0
BBX 6 5 -1 0
BITMAP
0AE0
1CD0
0AD0
69C0
68D0
ENDCHAR
STARTCHAR uni0437.init
ENCODING -1
SWIDTH 455 0
DWIDTH 5 0
BBX 5 7 0 -2
BITMAP
2D00
4A00
0D00
3840
1D00
6C00
B400
ENDCHAR
STARTCHAR uni0445.init
ENCODING -1
SWIDTH 390 0
DWIDTH 4 0
BBX 5 6 -1 0
BITMAP
0180
2880
1E00
1D00
5E40
6740
ENDCHAR
STARTCHAR uni0436.loclBGR
ENCODING -1
SWIDTH 882 0
DWIDTH 9 0
BBX 10 7 -1 0
BITMAP
002800
002800
1A3590
137710
07BA00
16AA10
68E790
ENDCHAR
STARTCHAR uni043A.loclBGR
ENCODING -1
SWIDTH 518 0
DWIDTH 5 0
BBX 7 7 -1 0
BITMAP
0900
1D00
1C90
2F80
39C0
35C4
71E0
ENDCHAR
STARTCHAR uni044E.loclBGR
ENCODING -1
SWIDTH 675 0
DWIDTH 7 0
BBX 9 7 -1 0
BITMAP
0D0000
1D0000
1C6800
2DD940
3EC800
368800
75E400
ENDCHAR
STARTCHAR uni0493.loclBSH
ENCODING -1
SWIDTH 398 0
DWIDTH 4 0
BBX 5 5 -1 0
BITMAP
2FC0
3400
3900
7100
7800
ENDCHAR
STARTCHAR uni04AB.loclCHU
ENCODING -1
SWIDTH 384 0
DWIDTH 4 0
BBX 4 7 0 -2
BITMAP
29
A1
D0
D1
B8
14
14
ENDCHAR
STARTCHAR uni0453.loclMKD
ENCODING -1
SWIDTH 267 0
DWIDTH 3 0
BBX 3 10 0 0
BITMAP
08
14
00
A8
00
70
A0
E0
D4
B4
ENDCHAR
STARTCHAR uni0433.loclSRB
ENCODING -1
SWIDTH 267 0
DWIDTH 3 0
BBX 3 7 0 0
BITMAP
A8
00
70
A0
E0
D4
B4
ENDCHAR
STARTCHAR uni043F.loclSRB
ENCODING -1
SWIDTH 505 0
DWIDTH 5 0
BBX 6 7 0 0
BITMAP
2A40
0000
7340
A740
E700
DB10
B780
ENDCHAR
STARTCHAR uni0442.loclSRB
ENCODING -1
SWIDTH 752 0
DWIDTH 8 0
BBX 8 7 0 0
BITMAP
2AA8
0000
735C
A768
E738
DB75
B7AD
ENDCHAR
STARTCHAR uni04150437
ENCODING -1
SWIDTH 940 0
DWIDTH 9 0
BBX 10 9 0 -2
BITMAP
0A8000
288000
1C1F40
381380
B04340
F15E10
7E0B40
001B00
002D00
ENDCHAR
STARTCHAR uni04150445
ENCODING -1
SWIDTH 797 0
DWIDTH 8 0
BBX 9 7 0 0
BITMAP
0A8000
284600
1C7200
747900
B03800
F0B940
7E5D00
ENDCHAR
STARTCHAR uni04010437
ENCODING -1
SWIDTH 940 0
DWIDTH 9 0
BBX 10 12 0 -2
BITMAP
059000
000000
000000
0A8000
288000
1C1F40
381380
B04340
F15E10
7E0B40
001B00
002D00
ENDCHAR
STARTCHAR uni04010445
ENCODING -1
SWIDTH 797 0
DWIDTH 8 0
BBX 9 9 0 0
BITMAP
059000
000000
0A8000
284600
1C7200
747900
B03800
F0B940
7E5D00
ENDCHAR
STARTCHAR uni04210437
ENCODING -1
SWIDTH 973 0
DWIDTH 10 0
BBX 10 9 0 -2
BITMAP
0A8000
289000
740B80
B012C0
B01280
B04A10
7E0790
001B40
001E00
ENDCHAR
STARTCHAR uni04210445
ENCODING -1
SWIDTH 814 0
DWIDTH 8 0
BBX 9 7 0 0
BITMAP
0A9000
284200
747600
B03900
B03800
B07840
7E5E00
ENDCHAR
STARTCHAR uni04040437
ENCODING -1
SWIDTH 973 0
DWIDTH 10 0
BBX 10 9 0 -2
BITMAP
0A8000
289000
7A0B80
B012C0
B01280
B04A10
7E0790
001B40
001E00
ENDCHAR
STARTCHAR uni04040445
ENCODING -1
SWIDTH 814 0
DWIDTH 8 0
BBX 9 7 0 0
BITMAP
0A9000
284200
7A7600
B03900
B03800
B07840
7E5E00
ENDCHAR
STARTCHAR uni04300445
ENCODING -1
SWIDTH 899 0
DWIDTH 9 0
BBX 10 6 0 0
BITMAP
000040
2B9C80
A35D40
D34E00
D71E50
B7D780
ENDCHAR
STARTCHAR uni04300447
ENCODING -1
SWIDTH 993 0
DWIDTH 10 0
BBX 10 5 0 0
BITMAP
2BACD0
A369C0
D36AC0
D71690
B741D0
ENDCHAR
STARTCHAR uni04310433
ENCODING -1
SWIDTH 816 0
DWIDTH 8 0
BBX 9 7 0 0
BITMAP
1FD000
0D0000
1A2D00
B38E00
D36800
D5B140
B87900
ENDCHAR
STARTCHAR uni04310453
ENCODING -1
SWIDTH 816 0
DWIDTH 8 0
BBX 9 7 0 0
BITMAP
1FD500
0D0400
1A2D00
B38E00
D36800
D5B140
B87900
ENDCHAR
STARTCHAR uni04310451
ENCODING -1
SWIDTH 814 0
DWIDTH 8 0
BBX 9 8 0 0
BITMAP
010000
1FDA40
090000
2A1A00
B27600
D2B400
D5A100
B87900
ENDCHAR
STARTCHAR uni04310436
ENCODING -1
SWIDTH 1261 0
DWIDTH 13 0
BBX 13 7 0 0
BITMAP
1FD00000
09000000
2A68D680
B34DDC40
D30EE800
D55AA840
B8A69E40
ENDCHAR
STARTCHAR uni04310439
ENCODING -1
SWIDTH 935 0
DWIDTH 9 0
BBX 10 7 0 0
BITMAP
1FD840
090A00
2A3680
A27380
D2B340
D5A750
B8B780
ENDCHAR
STARTCHAR uni0431045E
ENCODING -1
SWIDTH 916 0
DWIDTH 9 0
BBX 10 9 0 -2
BITMAP
1E9940
090000
2A3680
A27380
D2B340
D5A750
B8BF40
001E00
002D00
ENDCHAR
STARTCHAR uni0431044D
ENCODING -1
SWIDTH 860 0
DWIDTH 9 0
BBX 8 7 0 0
BITMAP
1FD0
0900
292E
B387
D31B
D68A
B8A8
ENDCHAR
STARTCHAR uni04310456
ENCODING -1
SWIDTH 697 0
DWIDTH 7 0
BBX 7 7 0 0
BITMAP
1FE8
0914
2A34
A270
D2B0
D5A4
B8B4
ENDCHAR
STARTCHAR uni04310457
ENCODING -1
SWIDTH 697 0
DWIDTH 7 0
BBX 8 8 0 0
BITMAP
0100
1FB5
0900
2A34
A270
D2B0
D5A4
B8B4
ENDCHAR
STARTCHAR uni04310458
ENCODING -1
SWIDTH 669 0
DWIDTH 7 0
BBX 7 10 0 -2
BITMAP
0A54
1EA4
0900
2A34
B270
D2B0
D5A4
B8E4
06C0
0780
ENDCHAR
STARTCHAR uni04320433
ENCODING -1
SWIDTH 837 0
DWIDTH 8 0
BBX 9 7 0 0
BITMAP
1A0000
360000
726E00
AA4A00
D32C00
D67040
B87900
ENDCHAR
STARTCHAR uni04320453
ENCODING -1
SWIDTH 837 0
DWIDTH 8 0
BBX 9 7 0 0
BITMAP
1A0600
360400
726E00
AA4A00
D32C00
D67040
B87900
ENDCHAR
STARTCHAR uni04320436
ENCODING -1
SWIDTH 1279 0
DWIDTH 13 0
BBX 13 7 0 0
BITMAP
1A000000
36000000
726CA680
AA4DDD40
D30EEC00
D65DDC40
B8A68E40
ENDCHAR
STARTCHAR uni04320437
ENCODING -1
SWIDTH 824 0
DWIDTH 8 0
BBX 9 9 0 -2
BITMAP
1A0000
360000
727D00
AA4D00
D31D00
D67440
B82900
007800
00B400
ENDCHAR
STARTCHAR uni04320445
ENCODING -1
SWIDTH 851 0
DWIDTH 9 0
BBX 9 7 0 0
BITMAP
1A0000
360240
726540
AA2A00
D31C00
D66C40
B98A00
ENDCHAR
STARTCHAR uni04330437
ENCODING -1
SWIDTH 840 0
DWIDTH 8 0
BBX 9 7 0 -2
BITMAP
7D2D00
5D8E00
790D00
D17440
F82D00
006C00
00B400
ENDCHAR
STARTCHAR uni04330445
ENCODING -1
SWIDTH 740 0
DWIDTH 7 0
BBX 8 6 0 0
BITMAP
0008
7DD4
5DE8
78B0
D1B1
F938
ENDCHAR
STARTCHAR uni04330447
ENCODING -1
SWIDTH 880 0
DWIDTH 9 0
BBX 9 5 0 0
BITMAP
7DA740
5DE700
79EE00
D25E40
F80B40
ENDCHAR
STARTCHAR uni04530437
ENCODING -1
SWIDTH 840 0
DWIDTH 8 0
BBX 9 9 0 -2
BITMAP
060000
040000
7D2D00
5D8E00
790D00
D17440
F82D00
006C00
00B400
ENDCHAR
STARTCHAR uni04530445
ENCODING -1
SWIDTH 740 0
DWIDTH 7 0
BBX 8 7 0 0
BITMAP
0500
0008
7DD4
5DE8
78B0
D1B1
F938
ENDCHAR
STARTCHAR uni04530447
ENCODING -1
SWIDTH 880 0
DWIDTH 9 0
BBX 9 7 0 0
BITMAP
060000
040000
7DA740
5DE700
79EE00
D25E40
F80B40
ENDCHAR
STARTCHAR uni04340447
ENCODING -1
SWIDTH 1010 0
DWIDTH 10 0
BBX 11 7 0 -2
BITMAP
2B9CE0
A36CD0
D76EC0
DB16C4
BF41E0
1E0000
6C0000
ENDCHAR
STARTCHAR uni04340458
ENCODING -1
SWIDTH 746 0
DWIDTH 7 0
BBX 8 10 0 -2
BITMAP
0004
000D
0000
2B9C
A36C
D368
D735
BF74
1EB0
7AD0
ENDCHAR
STARTCHAR uni04350437
ENCODING -1
SWIDTH 876 0
DWIDTH 9 0
BBX 9 7 0 -2
BITMAP
2A2E00
A54B00
E44A00
D12840
B81E40
006D00
007800
ENDCHAR
STARTCHAR uni04350445
ENCODING -1
SWIDTH 762 0
DWIDTH 8 0
BBX 8 6 0 0
BITMAP
0004
2AA5
A5B8
E474
D0B5
B92D
ENDCHAR
STARTCHAR uni04350447
ENCODING -1
SWIDTH 889 0
DWIDTH 9 0
BBX 9 5 0 0
BITMAP
2AB340
A5A700
E5FF00
D15A40
B80B40
ENDCHAR
STARTCHAR uni04510437
ENCODING -1
SWIDTH 876 0
DWIDTH 9 0
BBX 9 9 0 -2
BITMAP
270000
000000
2A2E00
A54B00
E44A00
D12840
B81E40
006D00
007800
ENDCHAR
STARTCHAR uni04510445
ENCODING -1
SWIDTH 762 0
DWIDTH 8 0
BBX 8 7 0 0
BITMAP
2700
0004
2AA5
A5B8
E474
D0B5
B92D
ENDCHAR
STARTCHAR uni04510447
ENCODING -1
SWIDTH 889 0
DWIDTH 9 0
BBX 9 7 0 0
BITMAP
270000
000000
2AB340
A5A700
E5FF00
D15A40
B80B40
ENDCHAR
STARTCHAR uni04360447
ENCODING -1
SWIDTH 1392 0
DWIDTH 14 0
BBX 15 5 -1 0
BITMAP
1A359B34
13771A70
07BA0EB0
16AA25A4
68E790B4
ENDCHAR
STARTCHAR uni04370437
ENCODING -1
SWIDTH 921 0
DWIDTH 9 0
BBX 10 7 0 -2
BITMAP
2E1F00
575340
4B4700
2C5D10
0E0A40
6D2E00
682D00
ENDCHAR
STARTCHAR uni04380447
ENCODING -1
SWIDTH 1010 0
DWIDTH 10 0
BBX 11 5 0 0
BITMAP
735CE0
A76CD0
E72EC0
DB16C4
B781E0
ENDCHAR
STARTCHAR uni04390447
ENCODING -1
SWIDTH 1010 0
DWIDTH 10 0
BBX 11 7 0 0
BITMAP
144000
1A0000
735CE0
A76CD0
E72EC0
DB16C4
B781E0
ENDCHAR
STARTCHAR uni043A0447
ENCODING -1
SWIDTH 1016 0
DWIDTH 10 0
BBX 12 5 -1 0
BITMAP
1CA768
2E0734
3A8BB4
3685B1
71E078
ENDCHAR
STARTCHAR uni045C0447
ENCODING -1
SWIDTH 1016 0
DWIDTH 10 0
BBX 12 7 -1 0
BITMAP
008000
010000
1CA768
2E0734
3A8BB4
3685B1
71E078
ENDCHAR
STARTCHAR uni043B0447
ENCODING -1
SWIDTH 1061 0
DWIDTH 11 0
BBX 12 5 -1 0
BITMAP
01B39C
02A36C
05A7B8
68D575
68B42D
ENDCHAR
STARTCHAR uni043C0447
ENCODING -1
SWIDTH 1276 0
DWIDTH 13 0
BBX 14 5 -1 0
BITMAP
028729D0
038F39C0
07DE3B80
66EE5790
69DB42D0
ENDCHAR
STARTCHAR uni043D0447
ENCODING -1
SWIDTH 1011 0
DWIDTH 10 0
BBX 12 5 -1 0
BITMAP
1CD738
28DB34
3ECBB0
35C5B1
75E078
ENDCHAR
STARTCHAR uni043E0433
ENCODING -1
SWIDTH 804 0
DWIDTH 8 0
BBX 8 5 0 0
BITMAP
2A2E
B34A
D228
D5A1
B8B9
ENDCHAR
STARTCHAR uni043E0453
ENCODING -1
SWIDTH 804 0
DWIDTH 8 0
BBX 8 7 0 0
BITMAP
0002
0005
2A2E
B34A
D228
D5A1
B8B9
ENDCHAR
STARTCHAR uni043E0436
ENCODING -1
SWIDTH 1271 0
DWIDTH 13 0
BBX 13 5 0 0
BITMAP
2A68A680
A34DDC40
D20EEC00
D55DDC40
B8A68E40
ENDCHAR
STARTCHAR uni043E0437
ENCODING -1
SWIDTH 837 0
DWIDTH 8 0
BBX 9 7 0 -2
BITMAP
2A6D00
B34E00
D20D00
D57440
B82D00
006C00
00B400
ENDCHAR
STARTCHAR uni043E043B
ENCODING -1
SWIDTH 992 0
DWIDTH 10 0
BBX 10 5 0 0
BITMAP
2A06D0
B209C0
D209C0
D59690
B9A1D0
ENDCHAR
STARTCHAR uni043E043C
ENCODING -1
SWIDTH 1207 0
DWIDTH 12 0
BBX 13 5 0 0
BITMAP
2A070D00
B20B2D00
D20B7C00
D58BAC40
B9A39E00
ENDCHAR
STARTCHAR uni043E0445
ENCODING -1
SWIDTH 850 0
DWIDTH 9 0
BBX 9 6 0 0
BITMAP
000100
2A3A40
B36A00
D22C00
D56C40
B88E40
ENDCHAR
STARTCHAR uni043E0459
ENCODING -1
SWIDTH 1179 0
DWIDTH 12 0
BBX 12 5 0 0
BITMAP
2A06D0
B209E4
D209DD
D5969D
B9A1F4
ENDCHAR
STARTCHAR uni043E044D
ENCODING -1
SWIDTH 867 0
DWIDTH 9 0
BBX 9 5 0 0
BITMAP
2A2E00
B34740
D21B00
D58A00
B8A800
ENDCHAR
STARTCHAR uni043F0447
ENCODING -1
SWIDTH 1010 0
DWIDTH 10 0
BBX 12 5 -1 0
BITMAP
1EC738
2DDB34
39CBB0
36C5B1
71E078
ENDCHAR
STARTCHAR uni04400437
ENCODING -1
SWIDTH 890 0
DWIDTH 9 0
BBX 10 8 -1 -2
BITMAP
080000
1EDB80
28E1C0
38D280
35CB10
7F4390
B00740
A01E00
ENDCHAR
STARTCHAR uni04410437
ENCODING -1
SWIDTH 876 0
DWIDTH 9 0
BBX 9 7 0 -2
BITMAP
292E00
A14B00
D04A00
D12840
B81E40
006D00
007800
ENDCHAR
STARTCHAR uni04410445
ENCODING -1
SWIDTH 755 0
DWIDTH 8 0
BBX 8 6 0 0
BITMAP
0004
29E9
A1A8
D074
D0B1
B93D
ENDCHAR
STARTCHAR uni04410447
ENCODING -1
SWIDTH 889 0
DWIDTH 9 0
BBX 9 5 0 0
BITMAP
29B340
A1A700
D1EB00
D25A40
B80B40
ENDCHAR
STARTCHAR uni0441044A
ENCODING -1
SWIDTH 841 0
DWIDTH 8 0
BBX 9 5 0 0
BITMAP
29A800
A1AA00
D0A340
D1E700
B8B900
ENDCHAR
STARTCHAR uni04420447
ENCODING -1
SWIDTH 1257 0
DWIDTH 13 0
BBX 14 5 -1 0
BITMAP
1EDE39C0
2DDA3680
39CE7B80
36CD5750
728B42D0
ENDCHAR
STARTCHAR uni04430447
ENCODING -1
SWIDTH 989 0
DWIDTH 10 0
BBX 10 7 0 -2
BITMAP
736CD0
A769C0
E73BC0
DA5690
BE42D0
6D0000
780000
ENDCHAR
STARTCHAR uni04430458
ENCODING -1
SWIDTH 725 0
DWIDTH 7 0
BBX 8 10 0 -2
BITMAP
0004
001C
0000
736C
A768
E734
DB75
BEB4
5DA0
7AD0
ENDCHAR
STARTCHAR uni045E0447
ENCODING -1
SWIDTH 989 0
DWIDTH 10 0
BBX 10 10 0 -2
BITMAP
144000
1A0000
000000
736CD0
A769C0
E73BC0
DA5690
BE42D0
6D0000
780000
ENDCHAR
STARTCHAR uni045E0458
ENCODING -1
SWIDTH 725 0
DWIDTH 7 0
BBX 8 10 0 -2
BITMAP
1448
1A08
0000
736C
A768
E734
DB75
BEB4
5DA0
7AD0
ENDCHAR
STARTCHAR uni04440437
ENCODING -1
SWIDTH 1148 0
DWIDTH 11 0
BBX 12 9 0 -2
BITMAP
018000
028000
2BA8B4
A35D28
D71C34
DB39E1
BFE074
0D01B0
0D02D0
ENDCHAR
STARTCHAR uni04450447
ENCODING -1
SWIDTH 1027 0
DWIDTH 10 0
BBX 11 6 0 0
BITMAP
008000
2D9DA0
4E5CD0
4A2ED0
1A26C4
5781E0
ENDCHAR
STARTCHAR uni0445044A
ENCODING -1
SWIDTH 1006 0
DWIDTH 10 0
BBX 10 6 0 0
BITMAP
004000
2D9B00
4E5A90
4A0CA0
1A2CD0
579F80
ENDCHAR
STARTCHAR uni04470447
ENCODING -1
SWIDTH 1010 0
DWIDTH 10 0
BBX 11 5 0 0
BITMAP
735CE0
A76CD0
BB2EC0
1B16C4
0781E0
ENDCHAR
STARTCHAR uni04480447
ENCODING -1
SWIDTH 1257 0
DWIDTH 13 0
BBX 13 5 0 0
BITMAP
735CE700
A768DA00
E739EE00
DB755D40
B7AD0B40
ENDCHAR
STARTCHAR uni045F0447
ENCODING -1
SWIDTH 1010 0
DWIDTH 10 0
BBX 11 7 0 -2
BITMAP
735CE0
A76CD0
E72EC0
DB16C4
BB81E0
180000
080000
ENDCHAR
STARTCHAR uni044B0447
ENCODING -1
SWIDTH 1157 0
DWIDTH 12 0
BBX 12 5 0 0
BITMAP
70B39C
AAA368
E6E7F8
D9D575
B8B429
ENDCHAR
STARTCHAR uni04550437
ENCODING -1
SWIDTH 840 0
DWIDTH 8 0
BBX 10 7 -1 -2
BITMAP
0B1F40
0B2380
174340
679D10
2E0B40
001B00
002D00
ENDCHAR
STARTCHAR uni04550445
ENCODING -1
SWIDTH 727 0
DWIDTH 7 0
BBX 9 6 -1 0
BITMAP
050200
0B3600
1B3900
272800
67AC40
2E1E00
ENDCHAR
STARTCHAR uni04550447
ENCODING -1
SWIDTH 909 0
DWIDTH 9 0
BBX 11 6 -1 0
BITMAP
010000
0B1CE0
0B2CD0
273EC0
6786C4
2E01E0
ENDCHAR
STARTCHAR uni04540437
ENCODING -1
SWIDTH 876 0
DWIDTH 9 0
BBX 9 7 0 -2
BITMAP
2A2E00
A44B00
D04A00
D12840
B81E40
006D00
007800
ENDCHAR
STARTCHAR uni04540445
ENCODING -1
SWIDTH 755 0
DWIDTH 8 0
BBX 8 6 0 0
BITMAP
0004
29E5
A1A4
E4B4
D0B1
B93D
ENDCHAR
STARTCHAR uni04540447
ENCODING -1
SWIDTH 889 0
DWIDTH 9 0
BBX 9 5 0 0
BITMAP
29B340
B1A700
E5EB00
D25A40
B80B40
ENDCHAR
STARTCHAR uni044D0437
ENCODING -1
SWIDTH 837 0
DWIDTH 8 0
BBX 10 7 -1 -2
BITMAP
1B9F40
0AD380
028340
635D10
290B40
001B00
002D00
ENDCHAR
STARTCHAR uni04560447
ENCODING -1
SWIDTH 763 0
DWIDTH 8 0
BBX 8 7 0 0
BITMAP
3400
1000
739C
A36C
E7B8
D575
B42D
ENDCHAR
STARTCHAR uni04570447
ENCODING -1
SWIDTH 763 0
DWIDTH 8 0
BBX 8 7 0 0
BITMAP
9C00
0000
739C
A36C
E7B8
D575
B42D
ENDCHAR
STARTCHAR uni04570457
ENCODING -1
SWIDTH 543 0
DWIDTH 5 0
BBX 6 7 0 0
BITMAP
9A60
0000
7280
A340
E740
DB10
B780
ENDCHAR
STARTCHAR uni04580447
ENCODING -1
SWIDTH 743 0
DWIDTH 7 0
BBX 10 10 -2 -2
BITMAP
010000
034000
000000
0736C0
0A7680
0E7B40
0D5750
1D0380
AC0000
B40000
ENDCHAR
STARTCHAR uni04580458
ENCODING -1
SWIDTH 480 0
DWIDTH 5 0
BBX 7 10 -2 -2
BITMAP
0114
0368
0000
0734
0A74
0E70
0DA4
1DE4
ADD0
BB80
ENDCHAR
STARTCHAR uni045B0447
ENCODING -1
SWIDTH 990 0
DWIDTH 10 0
BBX 11 9 -1 -2
BITMAP
0D0000
2E4000
1E8A74
29CE70
39CFF0
3695A4
7780B4
1B4000
1E0000
ENDCHAR
STARTCHAR uni045B0458
ENCODING -1
SWIDTH 722 0
DWIDTH 7 0
BBX 9 10 -1 -2
BITMAP
050100
0D0700
2E4000
1E8B00
29CA00
39CD00
369D40
779C00
1B6800
1EF400
ENDCHAR
STARTCHAR uni044E0433
ENCODING -1
SWIDTH 1050 0
DWIDTH 11 0
BBX 12 5 -1 0
BITMAP
1C6878
2DDA1C
3EC874
3689D1
75E5F8
ENDCHAR
STARTCHAR uni044E0453
ENCODING -1
SWIDTH 1050 0
DWIDTH 11 0
BBX 12 7 -1 0
BITMAP
000009
000004
1C6878
2DDA1C
3EC874
3689D1
75E5F8
ENDCHAR
STARTCHAR uni044E0436
ENCODING -1
SWIDTH 1507 0
DWIDTH 15 0
BBX 17 5 -1 0
BITMAP
1C68B5CA00
2DCA2AA500
3E882BB400
3689377440
75E6A72D00
ENDCHAR
STARTCHAR uni044E0437
ENCODING -1
SWIDTH 1073 0
DWIDTH 11 0
BBX 12 7 -1 -2
BITMAP
1CA9B8
2EDA2C
36CC28
3698A1
71E479
0001B4
0001E0
ENDCHAR
STARTCHAR uni044E043B
ENCODING -1
SWIDTH 1228 0
DWIDTH 12 0
BBX 14 5 -1 0
BITMAP
1C680B80
2DC91740
3E882740
36896710
75FA9380
ENDCHAR
STARTCHAR uni044E043C
ENCODING -1
SWIDTH 1443 0
DWIDTH 14 0
BBX 16 5 -1 0
BITMAP
1C680D2C
2DC91D78
3E882EB4
36896AB5
75FA9B3C
ENDCHAR
STARTCHAR uni044E0445
ENCODING -1
SWIDTH 1088 0
DWIDTH 11 0
BBX 12 6 -1 0
BITMAP
000005
1C68B6
2DCAB5
3EC878
3688B5
75E66D
ENDCHAR
STARTCHAR uni044E0459
ENCODING -1
SWIDTH 1415 0
DWIDTH 14 0
BBX 15 5 -1 0
BITMAP
1C680B80
2DD91790
3EC827A8
36896728
75FA93E0
ENDCHAR
STARTCHAR uni044E044D
ENCODING -1
SWIDTH 1103 0
DWIDTH 11 0
BBX 12 5 -1 0
BITMAP
1C686D
2DDA0E
3EC82D
36895C
75E5A4
ENDCHAR
STARTCHAR uni044F0447
ENCODING -1
SWIDTH 1030 0
DWIDTH 10 0
BBX 12 5 -1 0
BITMAP
0AE768
1CD738
0ADBB4
69C575
68E038
ENDCHAR
STARTCHAR uni04300445.liga
ENCODING -1
SWIDTH 884 0
DWIDTH 9 0
BBX 9 6 0 0
BITMAP
000040
2B9C80
A35D40
D34E00
D71E00
B7D740
ENDCHAR
STARTCHAR uni04300447.liga
ENCODING -1
SWIDTH 947 0
DWIDTH 9 0
BBX 10 5 0 0
BITMAP
2BACD0
A369C0
D36AC0
D71680
B741D0
ENDCHAR
STARTCHAR uni04310451.liga
ENCODING -1
SWIDTH 746 0
DWIDTH 7 0
BBX 9 8 0 0
BITMAP
010000
1FDA40
090000
2A1A00
A27600
D2B400
D5A000
B87800
ENDCHAR
STARTCHAR uni04310436.liga
ENCODING -1
SWIDTH 1258 0
DWIDTH 13 0
BBX 13 7 0 0
BITMAP
1FD00000
09000000
2A68D680
B34DDC40
D30EE800
D55A9800
B8A69E40
ENDCHAR
STARTCHAR uni04310439.liga
ENCODING -1
SWIDTH 901 0
DWIDTH 9 0
BBX 9 7 0 0
BITMAP
1FD840
090A00
2A3680
A27380
D2B340
D5A740
B8B780
ENDCHAR
STARTCHAR uni0431045E.liga
ENCODING -1
SWIDTH 890 0
DWIDTH 9 0
BBX 9 9 0 -2
BITMAP
1E9940
090000
2A3680
A27380
D2B340
D5A700
B8BF00
001E00
003C00
ENDCHAR
STARTCHAR uni04310456.liga
ENCODING -1
SWIDTH 639 0
DWIDTH 6 0
BBX 7 7 0 0
BITMAP
1FE8
0914
2A34
A270
D2B0
D5A0
B8B4
ENDCHAR
STARTCHAR uni04310457.liga
ENCODING -1
SWIDTH 638 0
DWIDTH 6 0
BBX 8 8 0 0
BITMAP
0100
1FB5
0900
2A34
A270
D2B0
D5A0
B8B4
ENDCHAR
STARTCHAR uni04310458.liga
ENCODING -1
SWIDTH 638 0
DWIDTH 6 0
BBX 7 10 0 -2
BITMAP
0A54
1EA4
0900
2A34
B270
D2B0
D5A0
B9D0
06C0
0B80
ENDCHAR
STARTCHAR uni04320436.liga
ENCODING -1
SWIDTH 1275 0
DWIDTH 13 0
BBX 13 7 0 0
BITMAP
1A000000
36000000
726CA680
AA4DDD40
D30EEC00
D65DDC00
B8A68E40
ENDCHAR
STARTCHAR uni04320437.liga
ENCODING -1
SWIDTH 752 0
DWIDTH 8 0
BBX 8 9 0 -2
BITMAP
1A00
3600
727D
AA4D
D31D
D674
B828
0068
00B4
ENDCHAR
STARTCHAR uni04320445.liga
ENCODING -1
SWIDTH 842 0
DWIDTH 8 0
BBX 9 7 0 0
BITMAP
1A0000
360240
726540
AA2A00
D31C00
D66C00
B98E00
ENDCHAR
STARTCHAR uni04330437.liga
ENCODING -1
SWIDTH 768 0
DWIDTH 8 0
BBX 8 7 0 -2
BITMAP
7D2D
5D8E
790D
D178
F82C
006C
00B4
ENDCHAR
STARTCHAR uni04330445.liga
ENCODING -1
SWIDTH 725 0
DWIDTH 7 0
BBX 7 6 0 0
BITMAP
0008
7DD4
5DE8
78B0
D1B0
F938
ENDCHAR
STARTCHAR uni04330447.liga
ENCODING -1
SWIDTH 834 0
DWIDTH 8 0
BBX 9 5 0 0
BITMAP
7DA740
5DE700
79EE00
D25E00
F80B00
ENDCHAR
STARTCHAR uni04530437.liga
ENCODING -1
SWIDTH 768 0
DWIDTH 8 0
BBX 8 9 0 -2
BITMAP
0600
0400
7D2D
5D8E
790D
D178
F82C
006C
00B4
ENDCHAR
STARTCHAR uni04530445.liga
ENCODING -1
SWIDTH 725 0
DWIDTH 7 0
BBX 7 7 0 0
BITMAP
0500
0008
7DD4
5DE8
78B0
D1B0
F938
ENDCHAR
STARTCHAR uni04530447.liga
ENCODING -1
SWIDTH 834 0
DWIDTH 8 0
BBX 9 7 0 0
BITMAP
060000
040000
7DA740
5DE700
79EE00
D25E00
F80B00
ENDCHAR
STARTCHAR uni04340447.liga
ENCODING -1
SWIDTH 965 0
DWIDTH 10 0
BBX 10 7 0 -2
BITMAP
2B9CE0
A36CD0
D76EC0
DB16C0
BF41D0
1E0000
6C0000
ENDCHAR
STARTCHAR uni04340458.liga
ENCODING -1
SWIDTH 715 0
DWIDTH 7 0
BBX 8 10 0 -2
BITMAP
0004
000D
0000
2B9C
A36C
D368
D734
BF70
1EB0
7AD0
ENDCHAR
STARTCHAR uni04350437.liga
ENCODING -1
SWIDTH 804 0
DWIDTH 8 0
BBX 8 7 0 -2
BITMAP
2A2E
A54B
E44A
D12C
B81D
005D
0078
ENDCHAR
STARTCHAR uni04350445.liga
ENCODING -1
SWIDTH 747 0
DWIDTH 7 0
BBX 8 6 0 0
BITMAP
0004
2AA5
A5B8
E474
D0B4
B928
ENDCHAR
STARTCHAR uni04350447.liga
ENCODING -1
SWIDTH 844 0
DWIDTH 8 0
BBX 9 5 0 0
BITMAP
2AB340
A5A700
E5FF00
D15A00
B80740
ENDCHAR
STARTCHAR uni04510437.liga
ENCODING -1
SWIDTH 804 0
DWIDTH 8 0
BBX 8 9 0 -2
BITMAP
2700
0000
2A2E
A54B
E44A
D12C
B81D
005D
0078
ENDCHAR
STARTCHAR uni04510445.liga
ENCODING -1
SWIDTH 747 0
DWIDTH 7 0
BBX 8 7 0 0
BITMAP
2700
0004
2AA5
A5B8
E474
D0B4
B928
ENDCHAR
STARTCHAR uni04510447.liga
ENCODING -1
SWIDTH 844 0
DWIDTH 8 0
BBX 9 7 0 0
BITMAP
270000
000000
2AB340
A5A700
E5FF00
D15A00
B80740
ENDCHAR
STARTCHAR uni04360447.liga
ENCODING -1
SWIDTH 1341 0
DWIDTH 13 0
BBX 15 5 -1 0
BITMAP
1A359B34
13771A70
07BA0EB0
16AA25A0
68E790B4
ENDCHAR
STARTCHAR uni04370437.liga
ENCODING -1
SWIDTH 849 0
DWIDTH 8 0
BBX 9 7 0 -2
BITMAP
2E1F00
575340
4B4700
2C5D00
0E0A00
6D1A00
783C00
ENDCHAR
STARTCHAR uni04380447.liga
ENCODING -1
SWIDTH 964 0
DWIDTH 10 0
BBX 10 5 0 0
BITMAP
735CE0
A76CD0
E72EC0
DB16C0
B781D0
ENDCHAR
STARTCHAR uni04390447.liga
ENCODING -1
SWIDTH 964 0
DWIDTH 10 0
BBX 10 7 0 0
BITMAP
144000
1A0000
735CE0
A76CD0
E72EC0
DB16C0
B781D0
ENDCHAR
STARTCHAR uni043A0447.liga
ENCODING -1
SWIDTH 978 0
DWIDTH 10 0
BBX 11 5 -1 0
BITMAP
1CA768
2E0734
3A8BB4
368570
71E074
ENDCHAR
STARTCHAR uni045C0447.liga
ENCODING -1
SWIDTH 978 0
DWIDTH 10 0
BBX 11 7 -1 0
BITMAP
008000
010000
1CA768
2E0734
3A8BB4
368570
71E074
ENDCHAR
STARTCHAR uni043B0447.liga
ENCODING -1
SWIDTH 1015 0
DWIDTH 10 0
BBX 11 5 -1 0
BITMAP
01B39C
02A368
05A7B8
68D574
68B428
ENDCHAR
STARTCHAR uni043C0447.liga
ENCODING -1
SWIDTH 1231 0
DWIDTH 12 0
BBX 14 5 -1 0
BITMAP
028729D0
038F39C0
07DE3B80
66EE5780
69DB42C0
ENDCHAR
STARTCHAR uni043D0447.liga
ENCODING -1
SWIDTH 965 0
DWIDTH 10 0
BBX 11 5 -1 0
BITMAP
1CD738
28DB34
3ECBB0
35C5B0
75E074
ENDCHAR
STARTCHAR uni043E0436.liga
ENCODING -1
SWIDTH 1268 0
DWIDTH 13 0
BBX 13 5 0 0
BITMAP
2A68A680
A34DDD40
D20EEC00
D55DDC00
B8A68E40
ENDCHAR
STARTCHAR uni043E0437.liga
ENCODING -1
SWIDTH 765 0
DWIDTH 8 0
BBX 8 7 0 -2
BITMAP
2A6D
B34E
D20D
D578
B82C
0068
00B4
ENDCHAR
STARTCHAR uni043E043B.liga
ENCODING -1
SWIDTH 945 0
DWIDTH 9 0
BBX 10 5 0 0
BITMAP
2A06D0
B209C0
D209C0
D59680
B9A1D0
ENDCHAR
STARTCHAR uni043E043C.liga
ENCODING -1
SWIDTH 1161 0
DWIDTH 12 0
BBX 12 5 0 0
BITMAP
2A070E
B20B2D
D20B7C
D58BAC
B9A39D
ENDCHAR
STARTCHAR uni043E0445.liga
ENCODING -1
SWIDTH 835 0
DWIDTH 8 0
BBX 9 6 0 0
BITMAP
000100
2A3A40
B36A00
D22C00
D56C00
B88E00
ENDCHAR
STARTCHAR uni043F0447.liga
ENCODING -1
SWIDTH 965 0
DWIDTH 10 0
BBX 11 5 -1 0
BITMAP
1EC738
2DDB34
39CBB0
36C5B0
71E074
ENDCHAR
STARTCHAR uni04400437.liga
ENCODING -1
SWIDTH 818 0
DWIDTH 8 0
BBX 9 8 -1 -2
BITMAP
080000
1EDB80
28E1C0
38D280
35CB00
7F4340
B01740
A01E00
ENDCHAR
STARTCHAR uni04410437.liga
ENCODING -1
SWIDTH 804 0
DWIDTH 8 0
BBX 8 7 0 -2
BITMAP
292E
A14B
D04A
D12C
B81D
005D
0078
ENDCHAR
STARTCHAR uni04410445.liga
ENCODING -1
SWIDTH 740 0
DWIDTH 7 0
BBX 8 6 0 0
BITMAP
0004
29E9
A1A8
D074
D0B0
B938
ENDCHAR
STARTCHAR uni04410447.liga
ENCODING -1
SWIDTH 843 0
DWIDTH 8 0
BBX 9 5 0 0
BITMAP
29B340
A1A700
D1EB00
D25A00
B80B40
ENDCHAR
STARTCHAR uni04420447.liga
ENCODING -1
SWIDTH 1211 0
DWIDTH 12 0
BBX 13 5 -1 0
BITMAP
1EDE39C0
2DDA3680
39CE7B80
36CD5740
728B4380
ENDCHAR
STARTCHAR uni04430447.liga
ENCODING -1
SWIDTH 943 0
DWIDTH 9 0
BBX 10 7 0 -2
BITMAP
736CD0
A769C0
E73BC0
DA5680
BE42D0
6D0000
780000
ENDCHAR
STARTCHAR uni04430458.liga
ENCODING -1
SWIDTH 694 0
DWIDTH 7 0
BBX 7 10 0 -2
BITMAP
0004
001C
0000
736C
A768
E734
DB74
BEB0
5DA0
7AD0
ENDCHAR
STARTCHAR uni045E0447.liga
ENCODING -1
SWIDTH 943 0
DWIDTH 9 0
BBX 10 10 0 -2
BITMAP
144000
1A0000
000000
736CD0
A769C0
E73BC0
DA5680
BE42D0
6D0000
780000
ENDCHAR
STARTCHAR uni045E0458.liga
ENCODING -1
SWIDTH 694 0
DWIDTH 7 0
BBX 7 10 0 -2
BITMAP
1448
1A08
0000
736C
A768
E734
DB74
BEB0
5DA0
7AD0
ENDCHAR
STARTCHAR uni04440437.liga
ENCODING -1
SWIDTH 1076 0
DWIDTH 11 0
BBX 11 9 0 -2
BITMAP
018000
028000
2BA8B4
A35D28
D71C34
DB39E0
BFE070
0D01B0
0D02D0
ENDCHAR
STARTCHAR uni04450447.liga
ENCODING -1
SWIDTH 981 0
DWIDTH 10 0
BBX 10 6 0 0
BITMAP
008000
2D9DA0
4E5CD0
4A2ED0
1A26C0
5781D0
ENDCHAR
STARTCHAR uni04470447.liga
ENCODING -1
SWIDTH 964 0
DWIDTH 10 0
BBX 10 5 0 0
BITMAP
735CE0
A76CD0
BB2EC0
1B16C0
0781D0
ENDCHAR
STARTCHAR uni04480447.liga
ENCODING -1
SWIDTH 1211 0
DWIDTH 12 0
BBX 12 5 0 0
BITMAP
735CE7
A768DA
E739EE
DB755D
B7AD0E
ENDCHAR
STARTCHAR uni045F0447.liga
ENCODING -1
SWIDTH 964 0
DWIDTH 10 0
BBX 10 7 0 -2
BITMAP
735CE0
A76CD0
E72EC0
DB16C0
BB81D0
180000
080000
ENDCHAR
STARTCHAR uni044B0447.liga
ENCODING -1
SWIDTH 1112 0
DWIDTH 11 0
BBX 11 5 0 0
BITMAP
70B39C
AAA368
E6E7F8
D9D574
B8B428
ENDCHAR
STARTCHAR uni04550437.liga
ENCODING -1
SWIDTH 768 0
DWIDTH 8 0
BBX 9 7 -1 -2
BITMAP
0B1F40
0B2380
174340
679E00
2E0B00
001B00
002D00
ENDCHAR
STARTCHAR uni04550445.liga
ENCODING -1
SWIDTH 712 0
DWIDTH 7 0
BBX 8 6 -1 0
BITMAP
0502
0B36
1B39
2728
67AC
2E1D
ENDCHAR
STARTCHAR uni04550447.liga
ENCODING -1
SWIDTH 864 0
DWIDTH 9 0
BBX 10 6 -1 0
BITMAP
010000
0B1CE0
0B2CD0
273EC0
6786C0
2E01D0
ENDCHAR
STARTCHAR uni04540437.liga
ENCODING -1
SWIDTH 804 0
DWIDTH 8 0
BBX 8 7 0 -2
BITMAP
2A2E
A44B
D04A
D12C
B81D
005D
0078
ENDCHAR
STARTCHAR uni04540445.liga
ENCODING -1
SWIDTH 740 0
DWIDTH 7 0
BBX 8 6 0 0
BITMAP
0004
29E5
A1A4
E4B4
D0B0
B938
ENDCHAR
STARTCHAR uni04540447.liga
ENCODING -1
SWIDTH 844 0
DWIDTH 8 0
BBX 9 5 0 0
BITMAP
29B340
B1A700
E5EB00
D25A00
B80B40
ENDCHAR
STARTCHAR uni044D0437.liga
ENCODING -1
SWIDTH 765 0
DWIDTH 8 0
BBX 9 7 -1 -2
BITMAP
1B9F40
0AD380
028340
635E00
290B00
001A00
002D00
ENDCHAR
STARTCHAR uni04560447.liga
ENCODING -1
SWIDTH 717 0
DWIDTH 7 0
BBX 7 7 0 0
BITMAP
3400
1000
739C
A36C
E7B8
D574
B428
ENDCHAR
STARTCHAR uni04570447.liga
ENCODING -1
SWIDTH 718 0
DWIDTH 7 0
BBX 7 7 0 0
BITMAP
9C00
0000
739C
A36C
E7B8
D574
B428
ENDCHAR
STARTCHAR uni04570457.liga
ENCODING -1
SWIDTH 476 0
DWIDTH 5 0
BBX 6 7 0 0
BITMAP
9A60
0000
7280
A340
E740
DB00
B740
ENDCHAR
STARTCHAR uni04580447.liga
ENCODING -1
SWIDTH 697 0
DWIDTH 7 0
BBX 9 10 -2 -2
BITMAP
010000
034000
000000
0736C0
0A7680
0E7B40
0D5740
1D0380
AC0000
B40000
ENDCHAR
STARTCHAR uni04580458.liga
ENCODING -1
SWIDTH 449 0
DWIDTH 4 0
BBX 7 10 -2 -2
BITMAP
0114
0368
0000
0734
0A74
0E70
0DA0
1DE0
ADD0
BB80
ENDCHAR
STARTCHAR uni045B0447.liga
ENCODING -1
SWIDTH 937 0
DWIDTH 9 0
BBX 11 9 -1 -2
BITMAP
0D0000
2E4000
1E8A74
29CE70
39CFF0
3695A0
7780B0
1B4000
1E0000
ENDCHAR
STARTCHAR uni045B0458.liga
ENCODING -1
SWIDTH 691 0
DWIDTH 7 0
BBX 8 10 -1 -2
BITMAP
0501
0D07
2E40
1E8B
29CA
39CD
369C
779C
1B68
1EF4
ENDCHAR
STARTCHAR uni044E0436.liga
ENCODING -1
SWIDTH 1503 0
DWIDTH 15 0
BBX 16 5 -1 0
BITMAP
1C68B5CA
2DCA2AA5
3E882BB4
36893774
75E6A72D
ENDCHAR
STARTCHAR uni044E0437.liga
ENCODING -1
SWIDTH 1001 0
DWIDTH 10 0
BBX 11 7 -1 -2
BITMAP
1CA9B8
2EDA2C
36CC28
3698B0
71E474
000174
0002E0
ENDCHAR
STARTCHAR uni044E043B.liga
ENCODING -1
SWIDTH 1181 0
DWIDTH 12 0
BBX 13 5 -1 0
BITMAP
1C680B80
2DC91740
3E882740
36896700
75FA9380
ENDCHAR
STARTCHAR uni044E043C.liga
ENCODING -1
SWIDTH 1396 0
DWIDTH 14 0
BBX 15 5 -1 0
BITMAP
1C680D2C
2DC91D78
3E882EB4
36896AB4
75FA9B38
ENDCHAR
STARTCHAR uni044E0445.liga
ENCODING -1
SWIDTH 1072 0
DWIDTH 11 0
BBX 12 6 -1 0
BITMAP
000005
1C68B6
2DCAB5
3EC878
3688B4
75E66C
ENDCHAR
STARTCHAR uni044F0447.liga
ENCODING -1
SWIDTH 984 0
DWIDTH 10 0
BBX 11 5 -1 0
BITMAP
0AE768
1CD738
0ADBB4
69C570
68E038
ENDCHAR
STARTCHAR brevecombcy
ENCODING -1
SWIDTH 0 0
DWIDTH 0 0
BBX 4 2 -3 5
BITMAP
91
64
ENDCHAR
STARTCHAR brevecombcy.case
ENCODING -1
SWIDTH 0 0
DWIDTH 0 0
BBX 4 2 -3 8
BITMAP
61
28
ENDCHAR
ENDFONT
